<?xml version="1.0" encoding="UTF-8"?>
<svg xmlns="http://www.w3.org/2000/svg" xmlns:xlink="http://www.w3.org/1999/xlink" width="133pt" height="561pt" viewBox="0 0 133 561" version="1.1">
<defs>
<clipPath id="clip1">
  <path d="M 0.25 431 L 133 431 L 133 561 L 0.25 561 Z M 0.25 431 "/>
</clipPath>
</defs>
<g id="surface1">
<rect x="0" y="0" width="133" height="561" style="fill:rgb(100%,100%,100%);fill-opacity:1;stroke:none;"/>
<rect x="0" y="0" width="133" height="561" style="fill:rgb(100%,100%,100%);fill-opacity:1;stroke:none;"/>
<path style=" stroke:none;fill-rule:nonzero;fill:rgb(87.059021%,34.899902%,27.839661%);fill-opacity:1;" d="M 90.390625 41.320312 L 90.390625 68 L 41.84375 68 L 41.84375 41.320312 Z M 90.390625 41.320312 "/>
<path style=" stroke:none;fill-rule:nonzero;fill:rgb(87.059021%,34.899902%,27.839661%);fill-opacity:1;" d="M 90.390625 192.574219 L 90.390625 219.257812 L 41.84375 219.257812 L 41.84375 192.574219 Z M 90.390625 192.574219 "/>
<path style=" stroke:none;fill-rule:nonzero;fill:rgb(87.059021%,34.899902%,27.839661%);fill-opacity:1;" d="M 90.390625 71.570312 L 90.390625 98.253906 L 41.84375 98.253906 L 41.84375 71.570312 Z M 90.390625 71.570312 "/>
<path style=" stroke:none;fill-rule:nonzero;fill:rgb(87.059021%,34.899902%,27.839661%);fill-opacity:1;" d="M 90.390625 162.324219 L 90.390625 189.007812 L 41.84375 189.007812 L 41.84375 162.324219 Z M 90.390625 162.324219 "/>
<path style=" stroke:none;fill-rule:nonzero;fill:rgb(87.059021%,34.899902%,27.839661%);fill-opacity:1;" d="M 90.390625 132.074219 L 90.390625 158.753906 L 41.84375 158.753906 L 41.84375 132.074219 Z M 90.390625 132.074219 "/>
<path style=" stroke:none;fill-rule:nonzero;fill:rgb(87.059021%,34.899902%,27.839661%);fill-opacity:1;" d="M 90.390625 253.078125 L 90.390625 279.757812 L 41.84375 279.757812 L 41.84375 253.078125 Z M 90.390625 253.078125 "/>
<path style=" stroke:none;fill-rule:nonzero;fill:rgb(87.059021%,34.899902%,27.839661%);fill-opacity:1;" d="M 90.390625 222.828125 L 90.390625 249.507812 L 41.84375 249.507812 L 41.84375 222.828125 Z M 90.390625 222.828125 "/>
<path style=" stroke:none;fill-rule:nonzero;fill:rgb(87.059021%,34.899902%,27.839661%);fill-opacity:1;" d="M 90.390625 283.324219 L 90.390625 306.882812 L 41.84375 306.882812 L 41.84375 283.324219 Z M 90.390625 283.324219 "/>
<path style=" stroke:none;fill-rule:nonzero;fill:rgb(87.059021%,34.899902%,27.839661%);fill-opacity:1;" d="M 90.390625 101.824219 L 90.390625 128.503906 L 41.84375 128.503906 L 41.84375 101.824219 Z M 90.390625 101.824219 "/>
<path style=" stroke:none;fill-rule:nonzero;fill:rgb(87.059021%,34.899902%,27.839661%);fill-opacity:1;" d="M 90.390625 313.289062 L 90.390625 339.96875 L 41.84375 339.96875 L 41.84375 313.289062 Z M 90.390625 313.289062 "/>
<path style=" stroke:none;fill-rule:nonzero;fill:rgb(87.059021%,34.899902%,27.839661%);fill-opacity:1;" d="M 90.390625 343.539062 L 90.390625 370.222656 L 41.84375 370.222656 L 41.84375 343.539062 Z M 90.390625 343.539062 "/>
<path style=" stroke:none;fill-rule:nonzero;fill:rgb(87.059021%,34.899902%,27.839661%);fill-opacity:1;" d="M 90.390625 404.042969 L 90.390625 430.722656 L 41.84375 430.722656 L 41.84375 404.042969 Z M 90.390625 404.042969 "/>
<path style=" stroke:none;fill-rule:nonzero;fill:rgb(87.059021%,34.899902%,27.839661%);fill-opacity:1;" d="M 90.390625 373.792969 L 90.390625 400.472656 L 41.84375 400.472656 L 41.84375 373.792969 Z M 90.390625 373.792969 "/>
<path style=" stroke:none;fill-rule:nonzero;fill:rgb(87.059021%,34.899902%,27.839661%);fill-opacity:1;" d="M 90.390625 18.910156 L 90.390625 0.363281 L 41.84375 0.363281 L 41.84375 38.902344 L 90.390625 38.902344 Z M 90.390625 18.910156 "/>
<g clip-path="url(#clip1)" clip-rule="nonzero">
<path style=" stroke:none;fill-rule:nonzero;fill:rgb(87.059021%,34.899902%,27.839661%);fill-opacity:1;" d="M 132.871094 487.164062 L 132.871094 444.296875 L 90.390625 491.058594 L 90.390625 431.460938 L 41.84375 431.460938 L 41.84375 491.058594 L -0.632812 444.296875 L -0.632812 487.164062 L 66.117188 560.652344 Z M 132.871094 487.164062 "/>
</g>
</g>
</svg>
