<?xml version="1.0" encoding="UTF-8"?>
<svg xmlns="http://www.w3.org/2000/svg" xmlns:xlink="http://www.w3.org/1999/xlink" width="516pt" height="365pt" viewBox="0 0 516 365" version="1.1">
<defs>
<clipPath id="clip1">
  <path d="M 0 158 L 516 158 L 516 364.25 L 0 364.25 Z M 0 158 "/>
</clipPath>
<clipPath id="clip2">
  <path d="M 171 0.5 L 339 0.5 L 339 36 L 171 36 Z M 171 0.5 "/>
</clipPath>
</defs>
<g id="surface1">
<rect x="0" y="0" width="516" height="365" style="fill:rgb(100%,100%,100%);fill-opacity:1;stroke:none;"/>
<rect x="0" y="0" width="516" height="365" style="fill:rgb(100%,100%,100%);fill-opacity:1;stroke:none;"/>
<path style=" stroke:none;fill-rule:nonzero;fill:rgb(21.569824%,21.569824%,21.569824%);fill-opacity:1;" d="M 232.136719 202.769531 C 232.136719 163.796875 263.726562 132.210938 302.695312 132.210938 C 341.660156 132.210938 373.253906 163.796875 373.253906 202.769531 C 373.253906 241.734375 341.660156 273.320312 302.695312 273.320312 C 263.726562 273.320312 232.136719 241.734375 232.136719 202.769531 Z M 232.136719 202.769531 "/>
<path style=" stroke:none;fill-rule:nonzero;fill:rgb(21.569824%,21.569824%,21.569824%);fill-opacity:1;" d="M 302.695312 93.011719 C 340.671875 93.011719 374.136719 112.300781 393.84375 141.613281 L 515.9375 141.613281 L 515.9375 98.832031 C 515.9375 67.042969 490.195312 41.269531 458.445312 41.269531 L 57.578125 41.269531 C 25.828125 41.269531 0.0820312 67.042969 0.0820312 98.828125 L 0.0820312 141.613281 L 211.542969 141.613281 C 231.25 112.296875 264.71875 93.011719 302.695312 93.011719 Z M 302.695312 93.011719 "/>
<g clip-path="url(#clip1)" clip-rule="nonzero">
<path style=" stroke:none;fill-rule:nonzero;fill:rgb(21.569824%,21.569824%,21.569824%);fill-opacity:1;" d="M 403.292969 158.863281 C 409.175781 172.3125 412.453125 187.15625 412.453125 202.769531 C 412.453125 263.386719 363.3125 312.523438 302.695312 312.523438 C 242.078125 312.523438 192.933594 263.386719 192.933594 202.769531 C 192.933594 187.15625 196.214844 172.3125 202.09375 158.863281 L 0.0820312 158.863281 L 0.0820312 306.703125 C 0.0820312 338.496094 25.828125 364.265625 57.578125 364.265625 L 458.445312 364.265625 C 490.195312 364.265625 515.9375 338.496094 515.9375 306.703125 L 515.9375 158.863281 Z M 403.292969 158.863281 "/>
</g>
<path style=" stroke:none;fill-rule:nonzero;fill:rgb(21.569824%,21.569824%,21.569824%);fill-opacity:1;" d="M 460.277344 35.777344 L 451.648438 15.398438 L 403.046875 15.398438 L 393.636719 35.777344 Z M 460.277344 35.777344 "/>
<path style=" stroke:none;fill-rule:nonzero;fill:rgb(21.569824%,21.569824%,21.569824%);fill-opacity:1;" d="M 112.195312 35.484375 L 108.277344 22.746094 L 70.644531 22.746094 L 65.941406 35.484375 Z M 112.195312 35.484375 "/>
<g clip-path="url(#clip2)" clip-rule="nonzero">
<path style=" stroke:none;fill-rule:nonzero;fill:rgb(21.569824%,21.569824%,21.569824%);fill-opacity:1;" d="M 317.144531 0.5 L 195.351562 0.5 L 171.777344 35.777344 L 338.761719 35.777344 Z M 279.179688 29.113281 L 232.136719 29.113281 L 232.136719 6.773438 L 279.179688 6.773438 Z M 279.179688 29.113281 "/>
</g>
</g>
</svg>
