<?xml version="1.0" encoding="UTF-8"?>
<svg xmlns="http://www.w3.org/2000/svg" xmlns:xlink="http://www.w3.org/1999/xlink" width="558pt" height="558pt" viewBox="0 0 558 558" version="1.1">
<g id="surface1">
<rect x="0" y="0" width="558" height="558" style="fill:rgb(100%,100%,100%);fill-opacity:1;stroke:none;"/>
<rect x="0" y="0" width="558" height="558" style="fill:rgb(100%,100%,100%);fill-opacity:1;stroke:none;"/>
<path style=" stroke:none;fill-rule:nonzero;fill:rgb(55.688477%,73.329163%,67.059326%);fill-opacity:1;" d="M 279.238281 0.9375 C 125.398438 0.9375 0.9375 125.539062 0.9375 279.375 C 0.9375 433.210938 125.398438 557.8125 279.238281 557.8125 C 433.074219 557.8125 557.8125 433.210938 557.8125 279.375 C 557.8125 125.539062 433.074219 0.9375 279.238281 0.9375 Z M 279.375 502.125 C 156.304688 502.125 56.625 402.445312 56.625 279.375 C 56.625 156.304688 156.304688 56.625 279.375 56.625 C 402.445312 56.625 502.125 156.304688 502.125 279.375 C 502.125 402.445312 402.445312 502.125 279.375 502.125 Z M 279.375 502.125 "/>
<path style=" stroke:none;fill-rule:nonzero;fill:rgb(55.688477%,73.329163%,67.059326%);fill-opacity:1;" d="M 293.296875 140.15625 L 251.53125 140.15625 L 251.53125 307.21875 L 397.574219 394.925781 L 418.59375 360.679688 L 293.296875 286.335938 Z M 293.296875 140.15625 "/>
</g>
</svg>
