<?xml version="1.0" encoding="UTF-8"?>
<svg xmlns="http://www.w3.org/2000/svg" xmlns:xlink="http://www.w3.org/1999/xlink" width="611pt" height="611pt" viewBox="0 0 611 611" version="1.1">
<defs>
<clipPath id="clip1">
  <path d="M 0 0.265625 L 610.734375 0.265625 L 610.734375 610.773438 L 0 610.773438 Z M 0 0.265625 "/>
</clipPath>
</defs>
<g id="surface1">
<g clip-path="url(#clip1)" clip-rule="nonzero">
<path style=" stroke:none;fill-rule:nonzero;fill:rgb(45.198059%,5.989075%,14.929199%);fill-opacity:1;" d="M 610.027344 305.632812 C 610.027344 473.902344 473.628906 610.289062 305.367188 610.289062 C 137.109375 610.289062 0.707031 473.902344 0.707031 305.632812 C 0.707031 137.375 137.109375 0.972656 305.367188 0.972656 C 473.628906 0.972656 610.027344 137.375 610.027344 305.632812 "/>
<path style=" stroke:none;fill-rule:nonzero;fill:rgb(13.729858%,12.159729%,12.548828%);fill-opacity:1;" d="M 305.367188 1.679688 C 137.769531 1.679688 1.414062 138.035156 1.414062 305.632812 C 1.414062 473.242188 137.769531 609.597656 305.367188 609.597656 C 472.96875 609.597656 609.324219 473.242188 609.324219 305.632812 C 609.324219 138.035156 472.96875 1.679688 305.367188 1.679688 Z M 305.367188 611 C 136.984375 611 0 474.015625 0 305.632812 C 0 137.25 136.984375 0.265625 305.367188 0.265625 C 473.746094 0.265625 610.734375 137.25 610.734375 305.632812 C 610.734375 474.015625 473.746094 611 305.367188 611 "/>
</g>
<path style=" stroke:none;fill-rule:nonzero;fill:rgb(100%,100%,100%);fill-opacity:1;" d="M 332.8125 247.847656 C 371.3125 247.847656 391.335938 246.828125 405.195312 245.796875 C 408.792969 248.371094 408.792969 255.039062 406.226562 258.125 L 383.628906 261.710938 C 355.398438 266.328125 340.511719 292 324.597656 317.660156 C 307.660156 344.871094 286.621094 373.617188 265.058594 403.390625 C 273.78125 417.25 276.863281 421.351562 281.996094 429.054688 C 309.199219 470.628906 335.378906 475.242188 356.425781 475.242188 C 372.347656 475.242188 390.816406 469.082031 402.625 456.769531 C 406.734375 457.285156 409.820312 461.382812 408.265625 466.007812 C 387.742188 491.675781 358.476562 500.402344 326.648438 500.402344 C 303.554688 500.402344 281.488281 494.238281 271.722656 485.507812 C 264.03125 478.851562 246.066406 448.046875 240.414062 438.292969 C 211.152344 471.140625 174.203125 500.402344 128.515625 500.402344 C 56.132812 500.402344 27.90625 448.566406 27.90625 408.011719 C 27.90625 354.621094 65.375 323.3125 111.066406 296.101562 C 92.570312 283.273438 71.535156 263.253906 71.535156 233.996094 C 71.535156 193.441406 106.433594 164.699219 143.394531 164.699219 C 182.414062 164.699219 209.613281 190.359375 209.613281 225.78125 C 209.613281 259.660156 182.921875 273.003906 157.769531 287.375 C 186.003906 304.832031 221.414062 337.691406 255.816406 387.992188 C 267.625 372.066406 294.824219 327.925781 309.199219 298.160156 C 317.929688 280.707031 320.492188 273.003906 320.492188 269.921875 C 320.492188 266.328125 315.363281 263.253906 307.144531 262.222656 L 289.691406 260.171875 C 286.621094 257.09375 286.621094 250.425781 290.722656 247.847656 Z M 66.402344 392.597656 C 66.402344 438.292969 97.710938 470.113281 142.890625 470.113281 C 177.269531 470.113281 208.078125 450.097656 231.171875 422.890625 C 206.53125 379.78125 165.46875 334.089844 124.402344 306.882812 C 98.734375 319.714844 66.402344 351.03125 66.402344 392.597656 M 104.386719 221.679688 C 104.386719 243.230469 118.761719 261.710938 146.476562 277.625 C 163.925781 265.820312 177.269531 248.878906 177.269531 224.234375 C 177.269531 201.664062 165.976562 179.578125 141.34375 179.578125 C 118.761719 179.578125 104.386719 200.625 104.386719 221.679688 "/>
<path style=" stroke:none;fill-rule:nonzero;fill:rgb(80.000305%,88.938904%,6.272888%);fill-opacity:1;" d="M 242.632812 189.871094 C 242.632812 184.199219 242.527344 183.28125 239.363281 183.015625 L 238.023438 182.90625 C 237.703125 182.703125 237.808594 181.726562 238.128906 181.566406 C 240.808594 181.679688 242.632812 181.726562 244.882812 181.726562 C 247.03125 181.726562 248.851562 181.679688 251.53125 181.566406 C 251.859375 181.726562 251.960938 182.703125 251.636719 182.90625 L 250.296875 183.015625 C 247.132812 183.28125 247.03125 184.199219 247.03125 189.871094 L 247.03125 208.953125 C 247.03125 214.636719 247.132812 215.386719 250.296875 215.765625 L 251.636719 215.929688 C 251.960938 216.136719 251.859375 217.101562 251.53125 217.261719 C 248.851562 217.160156 247.03125 217.101562 244.882812 217.101562 C 242.632812 217.101562 240.808594 217.160156 238.128906 217.261719 C 237.808594 217.101562 237.703125 216.242188 238.023438 215.929688 L 239.363281 215.765625 C 242.527344 215.386719 242.632812 214.636719 242.632812 208.953125 L 242.632812 189.871094 "/>
<path style=" stroke:none;fill-rule:nonzero;fill:rgb(80.000305%,88.938904%,6.272888%);fill-opacity:1;" d="M 261.179688 198.238281 C 260.269531 198.238281 260.214844 198.402344 260.214844 199.519531 L 260.214844 209.546875 C 260.214844 212.65625 260.589844 215.5 264.125 215.5 C 264.667969 215.5 265.144531 215.386719 265.574219 215.230469 C 266.0625 215.070312 266.753906 214.476562 266.914062 214.476562 C 267.34375 214.476562 267.5625 215.070312 267.457031 215.386719 C 266.488281 216.511719 264.558594 217.855469 261.824219 217.855469 C 257.210938 217.855469 256.253906 215.28125 256.253906 212.0625 L 256.253906 199.785156 C 256.253906 198.34375 256.195312 198.238281 255.125 198.238281 L 253.625 198.238281 C 253.304688 198.023438 253.25 197.429688 253.46875 197.117188 C 255.015625 196.628906 256.351562 195.929688 256.890625 195.445312 C 257.589844 194.804688 258.609375 193.359375 259.144531 192.289062 C 259.410156 192.183594 260.058594 192.183594 260.269531 192.554688 L 260.269531 194.96875 C 260.269531 195.929688 260.324219 195.988281 261.238281 195.988281 L 267.183594 195.988281 C 267.828125 196.46875 267.722656 197.914062 267.234375 198.238281 L 261.179688 198.238281 "/>
<path style=" stroke:none;fill-rule:nonzero;fill:rgb(80.000305%,88.938904%,6.272888%);fill-opacity:1;" d="M 277.746094 184.734375 C 277.746094 188.433594 274.847656 191 271.46875 192.019531 C 271.039062 191.804688 270.832031 191.265625 271.097656 190.894531 C 273.078125 189.988281 275.171875 188.480469 275.171875 186.289062 C 275.171875 184.246094 273.511719 183.339844 272.492188 183.28125 C 271.738281 183.234375 271.039062 182.800781 271.039062 181.78125 C 271.039062 180.972656 271.53125 179.589844 273.617188 179.589844 C 275.8125 179.589844 277.746094 181.945312 277.746094 184.734375 "/>
<path style=" stroke:none;fill-rule:nonzero;fill:rgb(80.000305%,88.938904%,6.272888%);fill-opacity:1;" d="M 288.949219 196.195312 C 289.425781 197.378906 289.804688 199.097656 289.804688 200.539062 C 289.589844 200.921875 288.789062 201.023438 288.519531 200.703125 C 287.609375 198.34375 285.992188 196.789062 283.800781 196.789062 C 281.707031 196.789062 280.371094 198.128906 280.371094 200.0625 C 280.371094 202.257812 282.625 203.429688 284.496094 204.507812 C 287.335938 206.121094 289.960938 207.933594 289.960938 211.742188 C 289.960938 215.8125 286.210938 217.855469 282.25 217.855469 C 279.722656 217.855469 277.855469 217.320312 276.515625 216.242188 C 276.085938 215.222656 275.757812 212.597656 275.867188 210.832031 C 276.136719 210.507812 276.832031 210.464844 277.097656 210.785156 C 278.015625 213.722656 279.722656 216.296875 282.785156 216.296875 C 284.714844 216.296875 286.375 215.171875 286.375 212.875 C 286.375 210.402344 284.226562 209.058594 282.25 207.933594 C 279.136719 206.167969 276.941406 204.289062 276.941406 201.339844 C 276.941406 197.429688 280.152344 195.234375 284.226562 195.234375 C 286.476562 195.234375 288.460938 195.769531 288.949219 196.195312 "/>
<path style=" stroke:none;fill-rule:nonzero;fill:rgb(80.000305%,88.938904%,6.272888%);fill-opacity:1;" d="M 312.800781 198.238281 C 311.882812 198.238281 311.882812 198.34375 311.882812 199.785156 L 311.882812 211.101562 C 311.882812 214.953125 312 215.601562 313.925781 215.765625 L 315.851562 215.929688 C 316.234375 216.195312 316.117188 217.101562 315.746094 217.261719 C 313.332031 217.160156 311.777344 217.101562 309.902344 217.101562 C 307.972656 217.101562 306.367188 217.160156 304.757812 217.261719 C 304.382812 217.101562 304.277344 216.195312 304.652344 215.929688 L 305.882812 215.765625 C 307.867188 215.5 307.921875 214.953125 307.921875 211.101562 L 307.921875 199.785156 C 307.921875 198.34375 307.921875 198.238281 306.851562 198.238281 L 304.972656 198.238281 C 304.652344 198.023438 304.59375 197.542969 304.8125 197.21875 L 307.117188 196.09375 C 307.542969 195.886719 307.921875 195.558594 307.921875 195.015625 C 307.921875 191.914062 308.296875 188.582031 309.582031 185.589844 C 310.917969 182.527344 313.925781 178.78125 319.226562 178.78125 C 322.070312 178.78125 324.484375 180.066406 324.484375 181.996094 C 324.484375 183.070312 323.464844 183.917969 322.445312 183.917969 C 321.851562 183.917969 321.535156 183.710938 321.15625 183.28125 C 320.136719 182.109375 318.644531 180.925781 316.871094 180.925781 C 315.210938 180.925781 313.871094 181.945312 313.066406 183.875 C 312.101562 186.34375 311.882812 190.253906 311.882812 192.929688 L 311.882812 194.484375 C 311.882812 195.929688 311.882812 195.988281 312.800781 195.988281 L 318.910156 195.988281 C 319.5 196.523438 319.125 198.023438 318.53125 198.238281 L 312.800781 198.238281 "/>
<path style=" stroke:none;fill-rule:nonzero;fill:rgb(80.000305%,88.938904%,6.272888%);fill-opacity:1;" d="M 341.472656 206.332031 C 341.472656 213.027344 336.867188 217.855469 330.160156 217.855469 C 324 217.855469 319.175781 213.515625 319.175781 206.816406 C 319.175781 200.0625 324.273438 195.234375 330.589844 195.234375 C 336.589844 195.234375 341.472656 199.738281 341.472656 206.332031 M 329.953125 196.847656 C 326.417969 196.847656 323.785156 200.226562 323.785156 206.121094 C 323.785156 210.996094 325.984375 216.242188 330.699219 216.242188 C 335.421875 216.242188 336.867188 211.320312 336.867188 207.191406 C 336.867188 202.628906 335.046875 196.847656 329.953125 196.847656 "/>
<path style=" stroke:none;fill-rule:nonzero;fill:rgb(80.000305%,88.938904%,6.272888%);fill-opacity:1;" d="M 347.535156 201.722656 C 347.535156 199.632812 347.535156 199.367188 346.082031 198.402344 L 345.59375 198.078125 C 345.386719 197.859375 345.386719 197.277344 345.65625 197.117188 C 346.886719 196.683594 349.726562 195.292969 351.066406 194.484375 C 351.339844 194.539062 351.5 194.640625 351.5 194.863281 L 351.5 197.972656 C 351.5 198.230469 351.554688 198.402344 351.652344 198.453125 C 353.53125 196.898438 355.566406 195.234375 357.554688 195.234375 C 358.894531 195.234375 359.964844 196.09375 359.964844 197.378906 C 359.964844 199.148438 358.519531 199.84375 357.667969 199.84375 C 357.128906 199.84375 356.855469 199.683594 356.484375 199.46875 C 355.683594 198.9375 354.871094 198.609375 354.128906 198.609375 C 353.269531 198.609375 352.625 199.097656 352.195312 199.683594 C 351.652344 200.433594 351.5 201.988281 351.5 203.8125 L 351.5 211.101562 C 351.5 214.964844 351.601562 215.601562 353.644531 215.765625 L 355.566406 215.929688 C 355.949219 216.195312 355.839844 217.101562 355.460938 217.261719 C 352.941406 217.160156 351.390625 217.101562 349.511719 217.101562 C 347.585938 217.101562 345.980469 217.160156 344.585938 217.261719 C 344.210938 217.101562 344.101562 216.195312 344.476562 215.929688 L 345.492188 215.765625 C 347.480469 215.441406 347.535156 214.964844 347.535156 211.101562 L 347.535156 201.722656 "/>
<path style=" stroke:none;fill-rule:nonzero;fill:rgb(80.000305%,88.938904%,6.272888%);fill-opacity:1;" d="M 378.300781 203.382812 C 376.914062 203.382812 376.851562 203.488281 376.851562 204.828125 C 376.851562 210.242188 380.011719 214.851562 385.75 214.851562 C 387.519531 214.851562 389.015625 214.3125 390.683594 212.226562 C 391.214844 212.0625 391.589844 212.390625 391.648438 212.875 C 389.875 216.511719 386.015625 217.855469 383.234375 217.855469 C 379.746094 217.855469 377.011719 216.347656 375.457031 214.3125 C 373.847656 212.226562 373.207031 209.707031 373.207031 207.351562 C 373.207031 200.757812 377.546875 195.234375 383.984375 195.234375 C 388.597656 195.234375 391.589844 198.402344 391.589844 201.617188 C 391.589844 202.363281 391.480469 202.789062 391.371094 203.007812 C 391.214844 203.324219 390.464844 203.382812 388.21875 203.382812 Z M 381.621094 201.769531 C 385.585938 201.769531 386.765625 201.5625 387.195312 201.246094 C 387.355469 201.132812 387.519531 200.921875 387.519531 200.214844 C 387.519531 198.71875 386.496094 196.847656 383.398438 196.847656 C 380.226562 196.847656 377.496094 199.738281 377.441406 201.511719 C 377.441406 201.617188 377.441406 201.769531 377.820312 201.769531 L 381.621094 201.769531 "/>
<path style=" stroke:none;fill-rule:nonzero;fill:rgb(80.000305%,88.938904%,6.272888%);fill-opacity:1;" d="M 395.882812 201.292969 C 395.074219 199.308594 394.59375 197.59375 392.664062 197.320312 L 391.589844 197.164062 C 391.273438 196.734375 391.324219 195.988281 391.757812 195.824219 C 393.097656 195.929688 394.96875 195.988281 396.789062 195.988281 C 398.238281 195.988281 399.308594 195.929688 401.128906 195.824219 C 401.507812 196.039062 401.558594 196.898438 401.191406 197.164062 L 400.542969 197.277344 C 398.878906 197.542969 398.828125 197.800781 399.363281 199.417969 C 400.59375 203.117188 402.148438 206.867188 403.382812 209.648438 C 403.871094 210.730469 404.078125 211.207031 404.238281 211.367188 C 404.460938 211.207031 404.832031 210.464844 405.261719 209.335938 C 405.953125 207.503906 407.777344 202.847656 408.316406 201.457031 C 409.066406 199.578125 409.277344 198.453125 409.277344 198.128906 C 409.277344 197.648438 408.960938 197.429688 408.316406 197.320312 L 407.082031 197.164062 C 406.757812 196.789062 406.816406 196.039062 407.191406 195.824219 C 408.847656 195.929688 410.195312 195.988281 411.210938 195.988281 C 412.550781 195.988281 413.457031 195.929688 414.960938 195.824219 C 415.335938 196.039062 415.390625 196.847656 415.066406 197.164062 L 414.265625 197.277344 C 412.386719 197.542969 411.90625 198.9375 410.355469 201.933594 C 409.597656 203.382812 406.273438 211.160156 405.425781 213.351562 C 404.886719 214.699219 404.347656 215.929688 403.652344 217.75 C 403.546875 217.902344 403.335938 217.960938 403.113281 217.960938 C 402.84375 217.960938 402.582031 217.902344 402.417969 217.75 C 401.988281 216.242188 401.191406 214.152344 400.386719 212.167969 L 395.882812 201.292969 "/>
<path style=" stroke:none;fill-rule:nonzero;fill:rgb(80.000305%,88.938904%,6.272888%);fill-opacity:1;" d="M 419.140625 203.382812 C 417.753906 203.382812 417.691406 203.488281 417.691406 204.828125 C 417.691406 210.242188 420.855469 214.851562 426.589844 214.851562 C 428.363281 214.851562 429.859375 214.3125 431.523438 212.226562 C 432.0625 212.0625 432.429688 212.390625 432.488281 212.875 C 430.71875 216.511719 426.855469 217.855469 424.074219 217.855469 C 420.59375 217.855469 417.851562 216.347656 416.300781 214.3125 C 414.695312 212.226562 414.046875 209.707031 414.046875 207.351562 C 414.046875 200.757812 418.390625 195.234375 424.824219 195.234375 C 429.4375 195.234375 432.429688 198.402344 432.429688 201.617188 C 432.429688 202.363281 432.324219 202.789062 432.21875 203.007812 C 432.0625 203.324219 431.308594 203.382812 429.0625 203.382812 Z M 422.464844 201.769531 C 426.425781 201.769531 427.613281 201.5625 428.042969 201.246094 C 428.203125 201.132812 428.363281 200.921875 428.363281 200.214844 C 428.363281 198.71875 427.347656 196.847656 424.238281 196.847656 C 421.070312 196.847656 418.34375 199.738281 418.285156 201.511719 C 418.285156 201.617188 418.285156 201.769531 418.660156 201.769531 L 422.464844 201.769531 "/>
<path style=" stroke:none;fill-rule:nonzero;fill:rgb(80.000305%,88.938904%,6.272888%);fill-opacity:1;" d="M 437.582031 201.722656 C 437.582031 199.632812 437.582031 199.367188 436.136719 198.402344 L 435.648438 198.078125 C 435.433594 197.859375 435.433594 197.277344 435.707031 197.117188 C 436.933594 196.683594 439.777344 195.292969 441.113281 194.484375 C 441.390625 194.539062 441.550781 194.640625 441.550781 194.863281 L 441.550781 197.972656 C 441.550781 198.230469 441.601562 198.402344 441.707031 198.453125 C 443.585938 196.898438 445.621094 195.234375 447.609375 195.234375 C 448.945312 195.234375 450.011719 196.09375 450.011719 197.378906 C 450.011719 199.148438 448.570312 199.84375 447.714844 199.84375 C 447.179688 199.84375 446.910156 199.683594 446.527344 199.46875 C 445.730469 198.9375 444.925781 198.609375 444.175781 198.609375 C 443.316406 198.609375 442.679688 199.097656 442.246094 199.683594 C 441.707031 200.433594 441.550781 201.988281 441.550781 203.8125 L 441.550781 211.101562 C 441.550781 214.964844 441.65625 215.601562 443.683594 215.765625 L 445.621094 215.929688 C 445.996094 216.195312 445.886719 217.101562 445.511719 217.261719 C 442.996094 217.160156 441.4375 217.101562 439.566406 217.101562 C 437.632812 217.101562 436.027344 217.160156 434.632812 217.261719 C 434.257812 217.101562 434.148438 216.195312 434.523438 215.929688 L 435.542969 215.765625 C 437.523438 215.441406 437.582031 214.964844 437.582031 211.101562 L 437.582031 201.722656 "/>
<path style=" stroke:none;fill-rule:nonzero;fill:rgb(80.000305%,88.938904%,6.272888%);fill-opacity:1;" d="M 453.445312 228.148438 C 453.445312 226.699219 454.40625 226.003906 455.585938 226.003906 L 456.609375 226.003906 C 457.460938 226.003906 458.003906 225.628906 458.378906 225.03125 C 459.929688 222.628906 461.003906 220.371094 461.484375 219.085938 C 461.648438 218.660156 462.023438 217.53125 462.023438 216.785156 C 462.023438 215.707031 461.808594 215.070312 461.105469 213.085938 L 456.929688 201.617188 C 456.015625 199.097656 455.648438 197.800781 453.769531 197.429688 L 452.425781 197.164062 C 452.105469 196.898438 452.160156 195.988281 452.585938 195.824219 C 454.304688 195.929688 455.910156 195.988281 457.679688 195.988281 C 459.125 195.988281 460.628906 195.929688 462.335938 195.824219 C 462.777344 195.988281 462.828125 196.898438 462.457031 197.164062 L 461.105469 197.429688 C 460.355469 197.59375 459.929688 197.753906 459.929688 198.128906 C 459.929688 198.777344 461.167969 202.257812 461.484375 203.160156 L 463.203125 208.09375 C 463.523438 208.953125 464.542969 211.796875 464.75 211.898438 C 464.914062 211.796875 465.773438 210.136719 466.738281 207.933594 L 468.558594 203.703125 C 469.746094 200.921875 470.4375 198.9375 470.4375 198.34375 C 470.4375 197.972656 470.109375 197.59375 469.148438 197.429688 L 467.488281 197.164062 C 467.113281 196.898438 467.171875 195.988281 467.59375 195.824219 C 469.3125 195.929688 470.914062 195.988281 472.3125 195.988281 C 473.652344 195.988281 474.886719 195.929688 476.382812 195.824219 C 476.808594 196.039062 476.871094 196.847656 476.492188 197.164062 L 475.582031 197.320312 C 473.8125 197.648438 472.851562 199.203125 471.027344 203 L 468.023438 209.171875 C 466.257812 212.757812 461.863281 222.085938 459.234375 227.929688 C 458.324219 229.964844 457.042969 230.445312 455.804688 230.445312 C 454.25 230.445312 453.445312 229.484375 453.445312 228.148438 "/>
<path style=" stroke:none;fill-rule:nonzero;fill:rgb(80.000305%,88.938904%,6.272888%);fill-opacity:1;" d="M 497.347656 206.332031 C 497.347656 213.027344 492.734375 217.855469 486.039062 217.855469 C 479.875 217.855469 475.046875 213.515625 475.046875 206.816406 C 475.046875 200.0625 480.140625 195.234375 486.464844 195.234375 C 492.464844 195.234375 497.347656 199.738281 497.347656 206.332031 M 485.820312 196.847656 C 482.28125 196.847656 479.660156 200.226562 479.660156 206.121094 C 479.660156 210.996094 481.851562 216.242188 486.570312 216.242188 C 491.289062 216.242188 492.734375 211.320312 492.734375 207.191406 C 492.734375 202.628906 490.910156 196.847656 485.820312 196.847656 "/>
<path style=" stroke:none;fill-rule:nonzero;fill:rgb(80.000305%,88.938904%,6.272888%);fill-opacity:1;" d="M 502.332031 201.722656 C 502.332031 199.632812 502.332031 199.367188 500.878906 198.402344 L 500.402344 198.078125 C 500.1875 197.859375 500.1875 197.277344 500.449219 197.117188 C 501.691406 196.683594 504.742188 195.292969 505.8125 194.484375 C 506.03125 194.484375 506.300781 194.597656 506.402344 194.863281 C 506.300781 196.09375 506.300781 196.898438 506.300781 197.378906 C 506.300781 197.707031 506.515625 197.972656 506.890625 197.972656 C 509.140625 196.574219 511.660156 195.234375 514.390625 195.234375 C 518.84375 195.234375 520.660156 198.289062 520.660156 201.882812 L 520.660156 211.101562 C 520.660156 214.964844 520.769531 215.5 522.703125 215.765625 L 523.878906 215.929688 C 524.253906 216.195312 524.148438 217.101562 523.773438 217.261719 C 522.164062 217.160156 520.609375 217.101562 518.734375 217.101562 C 516.800781 217.101562 515.199219 217.160156 513.75 217.261719 C 513.371094 217.101562 513.265625 216.195312 513.644531 215.929688 L 514.652344 215.765625 C 516.644531 215.441406 516.695312 214.964844 516.695312 211.101562 L 516.695312 203.117188 C 516.695312 200.0625 515.304688 197.800781 511.660156 197.800781 C 509.621094 197.800781 507.855469 198.671875 507.101562 199.683594 C 506.402344 200.597656 506.300781 201.339844 506.300781 202.894531 L 506.300781 211.101562 C 506.300781 214.964844 506.402344 215.441406 508.332031 215.765625 L 509.296875 215.929688 C 509.675781 216.195312 509.570312 217.101562 509.191406 217.261719 C 507.75 217.160156 506.195312 217.101562 504.3125 217.101562 C 502.390625 217.101562 500.78125 217.160156 499.277344 217.261719 C 498.90625 217.101562 498.792969 216.195312 499.171875 215.929688 L 500.292969 215.765625 C 502.28125 215.5 502.332031 214.964844 502.332031 211.101562 L 502.332031 201.722656 "/>
<path style=" stroke:none;fill-rule:nonzero;fill:rgb(80.000305%,88.938904%,6.272888%);fill-opacity:1;" d="M 530.046875 203.382812 C 528.652344 203.382812 528.597656 203.488281 528.597656 204.828125 C 528.597656 210.242188 531.757812 214.851562 537.492188 214.851562 C 539.257812 214.851562 540.769531 214.3125 542.429688 212.226562 C 542.960938 212.0625 543.335938 212.390625 543.394531 212.875 C 541.625 216.511719 537.761719 217.855469 534.972656 217.855469 C 531.496094 217.855469 528.757812 216.347656 527.203125 214.3125 C 525.589844 212.226562 524.953125 209.707031 524.953125 207.351562 C 524.953125 200.757812 529.296875 195.234375 535.730469 195.234375 C 540.339844 195.234375 543.335938 198.402344 543.335938 201.617188 C 543.335938 202.363281 543.230469 202.789062 543.121094 203.007812 C 542.960938 203.324219 542.210938 203.382812 539.960938 203.382812 Z M 533.363281 201.769531 C 537.332031 201.769531 538.511719 201.5625 538.941406 201.246094 C 539.101562 201.132812 539.257812 200.921875 539.257812 200.214844 C 539.257812 198.71875 538.238281 196.847656 535.140625 196.847656 C 531.972656 196.847656 529.242188 199.738281 529.1875 201.511719 C 529.1875 201.617188 529.1875 201.769531 529.5625 201.769531 L 533.363281 201.769531 "/>
<path style=" stroke:none;fill-rule:nonzero;fill:rgb(80.000305%,88.938904%,6.272888%);fill-opacity:1;" d="M 545.855469 214.90625 C 545.855469 213.085938 547.140625 211.742188 548.859375 211.742188 C 550.683594 211.742188 551.859375 213.1875 551.859375 214.90625 C 551.859375 216.613281 550.683594 217.855469 548.859375 217.855469 C 547.304688 217.855469 545.855469 216.726562 545.855469 214.90625 "/>
</g>
</svg>
