<?xml version="1.0" encoding="UTF-8"?>
<svg xmlns="http://www.w3.org/2000/svg" xmlns:xlink="http://www.w3.org/1999/xlink" width="584pt" height="164pt" viewBox="0 0 584 164" version="1.1">
<defs>
<filter id="alpha" filterUnits="objectBoundingBox" x="0%" y="0%" width="100%" height="100%">
  <feColorMatrix type="matrix" in="SourceGraphic" values="0 0 0 0 1 0 0 0 0 1 0 0 0 0 1 0 0 0 1 0"/>
</filter>
<mask id="mask0">
  <g filter="url(#alpha)">
<rect x="0" y="0" width="584" height="164" style="fill:rgb(0%,0%,0%);fill-opacity:0.298;stroke:none;"/>
  </g>
</mask>
<clipPath id="clip1">
  <rect width="185" height="110"/>
</clipPath>
<g id="surface7" clip-path="url(#clip1)">
<path style=" stroke:none;fill-rule:nonzero;fill:rgb(85.099792%,85.099792%,85.099792%);fill-opacity:1;" d="M 185.214844 84.644531 C 185.214844 84.644531 61.988281 104.15625 -0.347656 110.085938 C 77.136719 -11.421875 181.039062 79.886719 181.039062 79.886719 Z M 185.214844 84.644531 "/>
</g>
<clipPath id="clip2">
  <path d="M 32 0 L 215.609375 0 L 215.609375 109 L 32 109 Z M 32 0 "/>
</clipPath>
<mask id="mask1">
  <g filter="url(#alpha)">
<rect x="0" y="0" width="584" height="164" style="fill:rgb(0%,0%,0%);fill-opacity:0.298;stroke:none;"/>
  </g>
</mask>
<clipPath id="clip4">
  <path d="M 0 46 L 183.609375 46 L 183.609375 109 L 0 109 Z M 0 46 "/>
</clipPath>
<clipPath id="clip3">
  <rect width="184" height="109"/>
</clipPath>
<g id="surface6" clip-path="url(#clip3)">
<g clip-path="url(#clip4)" clip-rule="nonzero">
<path style=" stroke:none;fill-rule:nonzero;fill:rgb(85.099792%,85.099792%,85.099792%);fill-opacity:1;" d="M 3.824219 79.152344 C 3.824219 79.152344 106.804688 -11.347656 183.597656 109.082031 C 121.820312 103.207031 -0.316406 83.867188 -0.316406 83.867188 Z M 3.824219 79.152344 "/>
</g>
</g>
</defs>
<g id="surface1">
<rect x="0" y="0" width="584" height="164" style="fill:rgb(100%,100%,100%);fill-opacity:1;stroke:none;"/>
<rect x="0" y="0" width="584" height="164" style="fill:rgb(100%,100%,100%);fill-opacity:1;stroke:none;"/>
<path style=" stroke:none;fill-rule:nonzero;fill:rgb(100%,100%,100%);fill-opacity:1;" d="M 454.222656 45.878906 C 502.585938 45.878906 541.792969 69.117188 541.792969 97.78125 C 541.792969 126.445312 502.585938 149.683594 454.222656 149.683594 C 405.859375 149.683594 366.65625 126.445312 366.65625 97.78125 C 366.65625 69.117188 405.859375 45.878906 454.222656 45.878906 Z M 454.222656 45.878906 "/>
<use xlink:href="#surface7" transform="matrix(1,0,0,1,367,0)" mask="url(#mask0)"/>
<path style=" stroke:none;fill-rule:nonzero;fill:rgb(58.428955%,47.839355%,35.289001%);fill-opacity:1;" d="M 458.0625 36.585938 C 482.625 36.585938 502.535156 59.878906 502.535156 88.609375 C 502.535156 117.335938 482.625 140.632812 458.0625 140.632812 C 433.5 140.632812 413.585938 117.339844 413.585938 88.609375 C 413.585938 59.878906 433.5 36.582031 458.0625 36.585938 Z M 458.0625 36.585938 "/>
<path style=" stroke:none;fill-rule:nonzero;fill:rgb(10.978699%,11.369324%,11.759949%);fill-opacity:1;" d="M 458.0625 63.761719 C 469.800781 63.761719 479.3125 74.886719 479.3125 88.609375 C 479.3125 102.332031 469.796875 113.453125 458.0625 113.453125 C 446.324219 113.453125 436.808594 102.332031 436.808594 88.609375 C 436.808594 74.886719 446.324219 63.761719 458.0625 63.761719 Z M 345.542969 103.980469 L 345.503906 103.960938 C 368.984375 61.335938 398.964844 34.757812 434.609375 24.960938 C 451.929688 20.195312 468.375 20.101562 482.886719 22.257812 L 488.085938 0.78125 L 503.390625 4.488281 L 498.304688 25.492188 C 505.164062 27.359375 511.351562 29.613281 516.726562 31.898438 L 531.144531 6.996094 L 544.773438 14.886719 L 530.898438 38.847656 C 531.585938 39.234375 532.246094 39.613281 532.851562 39.96875 C 536.894531 42.339844 541.394531 45.484375 546.003906 48.988281 L 565.722656 28.09375 L 577.175781 38.898438 L 558.304688 58.902344 C 570.847656 69.5 581.828125 80.085938 583.746094 81.949219 L 559.148438 107.289062 C 557.109375 105.308594 554.03125 102.394531 550.386719 99.046875 C 528.117188 139.265625 493.136719 163.472656 455.542969 163.472656 C 430.097656 163.472656 404.207031 152.523438 379.640625 131.628906 Z M 417.191406 88.609375 C 417.191406 115.308594 435.527344 137.027344 458.0625 137.027344 C 480.597656 137.027344 498.929688 115.308594 498.929688 88.609375 C 498.929688 77.960938 496.011719 68.113281 491.074219 60.109375 C 477.964844 56.25 461.453125 54.207031 443.964844 59.011719 C 435.773438 61.265625 427.910156 64.871094 420.402344 69.800781 C 418.335938 75.585938 417.191406 81.945312 417.191406 88.609375 Z M 538.304688 88.277344 C 530.035156 81.148438 521.257812 74.109375 514.976562 70.421875 C 511.757812 68.535156 506.953125 65.984375 500.972656 63.5625 C 504.269531 71.097656 506.140625 79.601562 506.140625 88.609375 C 506.140625 119.285156 484.570312 144.238281 458.0625 144.238281 C 431.550781 144.238281 409.980469 119.285156 409.980469 88.609375 C 409.980469 84.546875 410.371094 80.589844 411.089844 76.773438 C 400.449219 85.707031 390.601562 97.542969 381.601562 112.183594 C 405.769531 135.472656 431.140625 147.726562 455.542969 147.726562 C 488.21875 147.726562 518.914062 125.320312 538.304688 88.277344 Z M 538.304688 88.277344 "/>
<path style=" stroke:none;fill-rule:nonzero;fill:rgb(100%,100%,100%);fill-opacity:1;" d="M 215.597656 96.886719 C 215.597656 125.296875 176.742188 148.328125 128.804688 148.328125 C 80.875 148.328125 42.015625 125.296875 42.015625 96.886719 C 42.015625 68.476562 80.875 45.445312 128.804688 45.445312 C 176.742188 45.445312 215.597656 68.476562 215.597656 96.886719 Z M 215.597656 96.886719 "/>
<g clip-path="url(#clip2)" clip-rule="nonzero">
<use xlink:href="#surface6" transform="matrix(1,0,0,1,32,0)" mask="url(#mask1)"/>
</g>
<path style=" stroke:none;fill-rule:nonzero;fill:rgb(58.428955%,47.839355%,35.289001%);fill-opacity:1;" d="M 169.082031 87.796875 C 169.082031 116.273438 149.347656 139.359375 125 139.359375 C 100.65625 139.359375 80.921875 116.273438 80.921875 87.796875 C 80.921875 59.320312 100.660156 36.234375 125 36.234375 C 149.347656 36.234375 169.082031 59.320312 169.082031 87.796875 Z M 169.082031 87.796875 "/>
<path style=" stroke:none;fill-rule:nonzero;fill:rgb(10.978699%,11.369324%,11.759949%);fill-opacity:1;" d="M 146.066406 87.796875 C 146.066406 101.398438 136.636719 112.421875 125 112.421875 C 113.371094 112.421875 103.9375 101.398438 103.9375 87.796875 C 103.9375 74.199219 113.371094 63.171875 125 63.171875 C 136.636719 63.171875 146.066406 74.199219 146.066406 87.796875 Z M 202.726562 130.433594 C 178.378906 151.140625 152.71875 161.996094 127.5 161.996094 C 90.238281 161.996094 55.566406 138.003906 33.492188 98.140625 C 29.882812 101.460938 26.832031 104.347656 24.8125 106.308594 L 0.429688 81.195312 C 2.332031 79.347656 13.214844 68.855469 25.648438 58.351562 L 6.945312 38.527344 L 18.296875 27.816406 L 37.839844 48.527344 C 42.40625 45.054688 46.867188 41.9375 50.875 39.585938 C 51.472656 39.234375 52.128906 38.859375 52.8125 38.476562 L 39.058594 14.726562 L 52.566406 6.90625 L 66.855469 31.585938 C 72.183594 29.324219 78.316406 27.089844 85.113281 25.238281 L 80.074219 4.421875 L 95.242188 0.746094 L 100.394531 22.035156 C 114.777344 19.894531 131.078125 19.992188 148.246094 24.710938 C 183.574219 34.421875 213.289062 60.765625 236.5625 103.011719 L 236.523438 103.03125 Z M 162.328125 69.15625 C 154.886719 64.269531 147.09375 60.695312 138.972656 58.464844 C 121.640625 53.699219 105.273438 55.726562 92.28125 59.550781 C 87.390625 67.480469 84.496094 77.242188 84.496094 87.796875 C 84.496094 114.257812 102.664062 135.785156 125 135.785156 C 147.335938 135.785156 165.511719 114.257812 165.511719 87.796875 C 165.511719 81.191406 164.375 74.890625 162.328125 69.15625 Z M 127.5 146.390625 C 151.683594 146.390625 176.832031 134.246094 200.785156 111.164062 C 191.863281 96.648438 182.101562 84.921875 171.558594 76.066406 C 172.269531 79.847656 172.65625 83.773438 172.65625 87.796875 C 172.65625 118.199219 151.277344 142.933594 125 142.933594 C 98.726562 142.933594 77.351562 118.199219 77.351562 87.796875 C 77.351562 78.871094 79.207031 70.441406 82.472656 62.972656 C 76.542969 65.375 71.785156 67.902344 68.59375 69.773438 C 62.367188 73.425781 53.664062 80.402344 45.46875 87.46875 C 64.691406 124.183594 95.113281 146.390625 127.5 146.390625 Z M 127.5 146.390625 "/>
</g>
</svg>
