<?xml version="1.0" encoding="UTF-8"?>
<svg xmlns="http://www.w3.org/2000/svg" xmlns:xlink="http://www.w3.org/1999/xlink" width="465pt" height="465pt" viewBox="0 0 465 465" version="1.1">
<g id="surface1">
<rect x="0" y="0" width="465" height="465" style="fill:rgb(100%,100%,100%);fill-opacity:1;stroke:none;"/>
<rect x="0" y="0" width="465" height="465" style="fill:rgb(100%,100%,100%);fill-opacity:1;stroke:none;"/>
<path style=" stroke:none;fill-rule:nonzero;fill:rgb(71.759033%,92.158508%,90.979004%);fill-opacity:1;" d="M 464.96875 232.9375 C 464.96875 297.011719 442.316406 351.703125 397.007812 397.007812 C 351.703125 442.316406 297.011719 464.96875 232.9375 464.96875 C 168.863281 464.96875 114.171875 442.316406 68.867188 397.007812 C 23.558594 351.703125 0.90625 297.011719 0.90625 232.9375 C 0.90625 168.863281 23.558594 114.171875 68.867188 68.867188 C 114.171875 23.558594 168.863281 0.90625 232.9375 0.90625 C 297.011719 0.90625 351.703125 23.558594 397.007812 68.867188 C 442.316406 114.171875 464.96875 168.863281 464.96875 232.9375 Z M 464.96875 232.9375 "/>
<path style=" stroke:none;fill-rule:nonzero;fill:rgb(50.588989%,79.60968%,87.059021%);fill-opacity:1;" d="M 169.28125 176.03125 C 169.28125 181.625 167.304688 186.394531 163.351562 190.351562 C 159.394531 194.304688 154.625 196.28125 149.03125 196.28125 C 143.4375 196.28125 138.667969 194.304688 134.710938 190.351562 C 130.757812 186.394531 128.78125 181.625 128.78125 176.03125 C 128.78125 170.4375 130.757812 165.667969 134.710938 161.710938 C 138.667969 157.757812 143.4375 155.78125 149.03125 155.78125 C 154.625 155.78125 159.394531 157.757812 163.351562 161.710938 C 167.304688 165.667969 169.28125 170.4375 169.28125 176.03125 Z M 169.28125 176.03125 "/>
<path style=" stroke:none;fill-rule:nonzero;fill:rgb(50.588989%,79.60968%,87.059021%);fill-opacity:1;" d="M 268 194.96875 C 266.3125 194.96875 264.53125 194.5 262.9375 193.46875 C 258.625 190.65625 257.3125 184.9375 260.03125 180.53125 C 260.78125 179.3125 278.6875 151.5625 308.3125 146.96875 C 338.21875 142.28125 365.59375 166.5625 366.71875 167.59375 C 370.5625 171.0625 370.84375 176.96875 367.375 180.8125 C 363.90625 184.65625 358 184.9375 354.15625 181.46875 C 353.96875 181.28125 332.21875 162.0625 311.125 165.34375 C 289.9375 168.625 275.875 190.28125 275.78125 190.46875 C 274.09375 193.46875 271.09375 194.96875 268 194.96875 Z M 268 194.96875 "/>
<path style=" stroke:none;fill-rule:nonzero;fill:rgb(50.588989%,79.60968%,87.059021%);fill-opacity:1;" d="M 224.40625 364.5625 C 197.59375 364.5625 176.03125 354.53125 162.0625 335.5 C 158.96875 331.28125 159.90625 325.46875 164.03125 322.375 C 168.25 319.28125 174.0625 320.21875 177.15625 324.34375 C 187.5625 338.59375 203.5 345.71875 224.40625 345.71875 C 229.5625 345.71875 233.78125 349.9375 233.78125 355.09375 C 233.78125 360.25 229.65625 364.5625 224.40625 364.5625 Z M 224.40625 364.5625 "/>
<path style=" stroke:none;fill-rule:nonzero;fill:rgb(50.588989%,79.60968%,87.059021%);fill-opacity:1;" d="M 224.40625 364.5625 C 219.25 364.5625 215.03125 360.34375 215.03125 355.1875 C 215.03125 350.03125 219.25 345.8125 224.40625 345.8125 C 250.84375 345.8125 271.84375 335.96875 286.84375 316.46875 C 298.09375 301.75 301.5625 287.21875 301.5625 287.03125 C 302.6875 281.96875 307.75 278.78125 312.8125 280 C 317.875 281.125 321.0625 286.1875 319.84375 291.25 C 319.65625 292 315.4375 310 301.75 327.90625 C 288.8125 344.59375 265 364.5625 224.40625 364.5625 Z M 224.40625 364.5625 "/>
</g>
</svg>
