<svg xmlns="http://www.w3.org/2000/svg" xmlns:xlink="http://www.w3.org/1999/xlink" width="1200" zoomAndPan="magnify" viewBox="0 0 900 599.999999" height="800" preserveAspectRatio="xMidYMid meet" version="1.0"><defs><clipPath id="9b7894b1cd"><path d="M 115 264 L 768 264 L 768 481.261719 L 115 481.261719 Z M 115 264 " clip-rule="nonzero"/></clipPath></defs><rect x="-90" width="1080" fill="#ffffff" y="-60" height="719.999999" fill-opacity="1"/><rect x="-90" width="1080" fill="#ffffff" y="-60" height="719.999999" fill-opacity="1"/><rect x="-90" width="1080" fill="#d0c781" y="-60" height="719.999999" fill-opacity="1"/><path fill="#1c3550" d="M 372.796875 394.480469 C 369.621094 395.851562 366.117188 397.03125 362.761719 396.207031 C 358.910156 395.265625 355.050781 387.6875 354.730469 383.933594 C 352.230469 354.460938 351.296875 324.863281 351.925781 295.296875 C 352.011719 291.316406 352.160156 287.199219 353.886719 283.613281 C 357.433594 276.25 366.714844 273.320312 374.835938 274.171875 C 382.957031 275.019531 390.445312 278.753906 398.171875 281.402344 C 410.316406 285.5625 423.210938 287.0625 435.53125 290.675781 C 444.742188 293.375 454.074219 297.625 459.570312 305.5 C 463.632812 311.316406 465.175781 318.554688 465.59375 325.640625 C 466.425781 339.695312 462.5 354.945312 451.535156 363.761719 C 447.355469 367.121094 442.40625 369.363281 437.476562 371.46875 C 416.375 380.496094 393.738281 385.429688 372.796875 394.480469 Z M 373.089844 395.167969 C 383.613281 390.621094 394.769531 387.050781 405.566406 383.59375 C 416.234375 380.175781 427.273438 376.644531 437.773438 372.152344 C 442.855469 369.980469 447.765625 367.746094 452.003906 364.339844 C 461.941406 356.351562 467.300781 341.863281 466.339844 325.597656 C 465.832031 316.992188 463.816406 310.277344 460.183594 305.070312 C 455.488281 298.34375 447.492188 293.402344 435.742188 289.957031 C 430.269531 288.351562 424.601562 287.144531 419.125 285.976562 C 412.253906 284.515625 405.148438 283 398.414062 280.695312 C 396.3125 279.976562 394.183594 279.15625 392.125 278.363281 C 386.613281 276.246094 380.910156 274.050781 374.914062 273.425781 C 366.882812 272.585938 357.058594 275.308594 353.214844 283.285156 C 351.355469 287.144531 351.261719 291.652344 351.183594 295.28125 C 350.550781 324.757812 351.496094 354.605469 353.988281 383.996094 C 354.3125 387.78125 358.164062 395.851562 362.582031 396.929688 C 363.410156 397.136719 364.246094 397.222656 365.078125 397.222656 C 367.875 397.226562 370.648438 396.222656 373.089844 395.167969 Z M 374.761719 274.910156 C 380.558594 275.515625 386.167969 277.671875 391.59375 279.757812 C 393.664062 280.554688 395.804688 281.378906 397.933594 282.105469 C 404.75 284.441406 411.898438 285.964844 418.8125 287.4375 C 424.265625 288.597656 429.90625 289.800781 435.324219 291.386719 C 446.734375 294.734375 454.464844 299.488281 458.960938 305.921875 C 462.433594 310.894531 464.359375 317.359375 464.851562 325.679688 C 465.785156 341.46875 460.632812 355.484375 451.066406 363.175781 C 446.980469 366.460938 442.167969 368.648438 437.183594 370.777344 C 426.75 375.242188 415.75 378.765625 405.109375 382.171875 C 394.28125 385.636719 383.085938 389.21875 372.5 393.796875 C 369.554688 395.070312 366.121094 396.261719 362.9375 395.484375 C 359.59375 394.664062 355.785156 387.539062 355.472656 383.867188 C 352.984375 354.53125 352.042969 324.738281 352.675781 295.3125 C 352.75 291.832031 352.84375 287.5 354.558594 283.933594 C 357.675781 277.464844 365.1875 274.769531 372.074219 274.769531 C 372.984375 274.769531 373.886719 274.816406 374.761719 274.910156 Z M 437.480469 371.46875 L 437.492188 371.46875 Z M 143.714844 293.566406 C 151.40625 290.46875 159.449219 287.121094 164.640625 280.652344 C 170.9375 272.816406 171.78125 261.914062 170.792969 251.910156 C 170.25 246.414062 169.179688 240.824219 166.277344 236.125 C 161.71875 228.75 153.070312 224.5625 144.4375 223.777344 C 135.804688 222.996094 127.15625 225.222656 119.070312 228.347656 C 113.28125 230.582031 107.175781 233.800781 104.921875 239.589844 C 103.539062 243.144531 103.863281 247.101562 104.203125 250.898438 C 104.878906 258.386719 105.550781 265.878906 106.222656 273.367188 C 106.585938 277.375 106.964844 281.460938 108.523438 285.171875 C 110.5625 290.023438 111.886719 301.386719 117.941406 303.078125 C 123.914062 304.746094 138.042969 295.847656 143.714844 293.566406 Z M 138.085938 297.113281 C 140.46875 295.898438 142.523438 294.847656 143.992188 294.257812 C 151.023438 291.429688 159.773438 287.90625 165.222656 281.121094 C 170.664062 274.34375 172.785156 264.492188 171.53125 251.839844 C 171.058594 247.058594 170.101562 240.90625 166.90625 235.734375 C 162.539062 228.660156 154.160156 223.914062 144.5 223.039062 C 136.898438 222.351562 128.734375 223.816406 118.800781 227.652344 C 113.300781 229.777344 106.675781 233.023438 104.226562 239.320312 C 102.75 243.113281 103.128906 247.285156 103.457031 250.96875 L 105.480469 273.4375 C 105.839844 277.453125 106.214844 281.609375 107.835938 285.464844 C 108.339844 286.664062 108.816406 288.335938 109.320312 290.105469 C 110.882812 295.597656 112.832031 302.429688 117.738281 303.800781 C 118.3125 303.960938 118.945312 304.03125 119.625 304.03125 C 124.515625 304.03125 131.957031 300.234375 138.085938 297.113281 Z M 144.371094 224.523438 C 153.5625 225.359375 161.515625 229.84375 165.640625 236.519531 C 168.675781 241.429688 169.59375 247.363281 170.050781 251.984375 C 171.265625 264.238281 169.25 273.726562 164.0625 280.183594 C 158.855469 286.667969 150.664062 289.964844 143.433594 292.871094 C 141.90625 293.488281 139.820312 294.550781 137.40625 295.78125 C 131.011719 299.042969 122.257812 303.511719 118.140625 302.363281 C 114.035156 301.214844 112.214844 294.828125 110.753906 289.695312 C 110.238281 287.878906 109.75 286.167969 109.210938 284.886719 C 107.679688 281.242188 107.316406 277.207031 106.964844 273.300781 L 104.945312 250.832031 C 104.628906 247.3125 104.269531 243.324219 105.617188 239.859375 C 107.855469 234.105469 114.125 231.058594 119.335938 229.042969 C 127.519531 225.878906 134.453125 224.363281 140.835938 224.363281 C 142.035156 224.367188 143.207031 224.417969 144.371094 224.523438 Z M 144.371094 224.523438 " fill-opacity="1" fill-rule="nonzero"/><g clip-path="url(#9b7894b1cd)"><path fill="#660000" d="M 766.789062 420.007812 C 764.425781 430.527344 758.257812 438.636719 748.457031 444.117188 C 739.132812 449.324219 727.707031 451.40625 716.632812 451.40625 C 706.621094 451.40625 696.902344 449.707031 689.277344 447.085938 C 687.726562 446.554688 684.953125 445.359375 681.808594 443.609375 C 677.03125 440.957031 668.957031 435.664062 668.542969 430.019531 C 668.375 427.722656 669.476562 425.652344 671.816406 423.863281 C 674.941406 421.476562 680.265625 421.605469 684.960938 421.714844 C 686.9375 421.757812 688.808594 421.800781 690.296875 421.652344 C 696.539062 421.011719 702.859375 420.066406 708.96875 419.152344 L 713.179688 418.519531 C 729.253906 416.109375 745.871094 413.621094 762.410156 414.847656 C 763.976562 414.964844 765.878906 415.304688 766.675781 416.898438 C 767.167969 417.886719 767.023438 418.976562 766.789062 420.007812 Z M 467.265625 335.964844 C 463.710938 328.472656 460.03125 320.722656 454.253906 315.082031 C 446.382812 307.394531 432.421875 309.066406 421.203125 310.414062 C 419.539062 310.617188 417.941406 310.804688 416.4375 310.957031 C 410.78125 311.523438 404.21875 312.507812 398.441406 315.484375 C 394.296875 317.628906 390.367188 320.871094 386.433594 325.40625 C 372.5625 341.402344 365.621094 364.949219 365.808594 395.386719 C 365.976562 423.207031 371.644531 444.5 383.140625 460.488281 C 394.289062 475.992188 411.289062 479.050781 427.746094 480.855469 C 429.941406 481.097656 432.09375 481.21875 434.203125 481.21875 C 451.121094 481.21875 465.261719 473.574219 473.609375 459.683594 C 484.59375 441.40625 484.9375 424.484375 485.335938 404.890625 C 485.78125 382.851562 480.988281 361.953125 471.476562 344.449219 C 470.019531 341.765625 468.683594 338.949219 467.265625 335.964844 Z M 200.054688 337.171875 C 199.28125 334.941406 198.484375 332.632812 197.859375 330.035156 C 195.3125 319.398438 191.839844 308.859375 188.484375 298.664062 C 187.753906 296.445312 187.023438 294.230469 186.304688 292.011719 C 185.808594 290.492188 185.351562 288.84375 184.863281 287.097656 C 183.121094 280.820312 181.140625 273.703125 176.53125 269.445312 C 168.835938 262.335938 153.300781 264.488281 148.726562 265.316406 C 139.84375 266.925781 131.789062 273.085938 124.792969 283.625 C 109.6875 306.367188 115.285156 344.636719 125.566406 372.871094 C 127.515625 378.230469 129.574219 383.382812 133.257812 387.5 C 139.871094 394.886719 148.207031 396.328125 156.800781 396.328125 C 159.566406 396.328125 162.363281 396.175781 165.132812 396.027344 C 167.691406 395.890625 170.332031 395.75 172.929688 395.730469 C 174.671875 395.714844 176.472656 395.699219 178.175781 395.070312 C 179.496094 394.578125 180.648438 393.746094 181.621094 393.007812 C 196.597656 381.640625 202.351562 370.28125 202.84375 351.101562 C 202.976562 346.082031 201.789062 342.199219 200.339844 338 Z M 200.054688 337.171875 " fill-opacity="1" fill-rule="nonzero"/></g><path fill="#93a496" d="M 819.277344 355.328125 C 818.546875 359.152344 818.332031 364.554688 818.101562 370.273438 C 817.5 385.289062 816.75 403.980469 806.414062 410.617188 C 801.867188 413.535156 796.59375 414.679688 791.140625 415.6875 C 773.886719 418.878906 756.195312 420.183594 739.085938 421.445312 C 728.289062 422.242188 717.125 423.070312 706.191406 424.355469 C 678.105469 427.671875 647.96875 430.78125 617.886719 431.101562 L 506.492188 432.289062 C 505.824219 432.296875 505.15625 432.300781 504.492188 432.300781 C 496.738281 432.300781 489.417969 431.683594 483.871094 427.246094 C 480.617188 424.636719 478.402344 420.960938 476.414062 417.414062 C 465.242188 397.503906 458.679688 375.363281 452.335938 353.953125 C 451.441406 350.933594 450.542969 347.914062 449.636719 344.90625 C 449.023438 342.867188 448.429688 340.808594 447.835938 338.75 C 442.535156 320.382812 437.054688 301.394531 416.28125 295.148438 C 401.75 290.78125 390.765625 288.378906 378.359375 286.859375 C 376.632812 286.648438 374.679688 286.40625 373.046875 287.109375 C 371.074219 287.957031 369.84375 290.089844 368.992188 291.847656 C 364.734375 300.648438 363.734375 310.8125 363.285156 320.480469 C 362.796875 331.101562 363.296875 341.792969 363.78125 352.136719 C 363.945312 355.652344 364.113281 359.179688 364.238281 362.714844 C 364.238281 364.488281 364.265625 366.269531 364.292969 368.074219 C 364.421875 377.265625 364.554688 386.769531 361.574219 395.203125 C 361.363281 395.800781 360.917969 396.257812 360.292969 396.519531 C 357.058594 397.886719 348.503906 394.128906 339.277344 389.824219 C 336.757812 388.648438 334.578125 387.632812 333.730469 387.394531 C 320.730469 383.753906 306.980469 380.101562 290.46875 375.902344 C 280.105469 373.269531 269.730469 370.394531 259.691406 367.613281 C 241.777344 362.652344 223.25 357.519531 204.503906 353.6875 C 198.042969 352.363281 192.371094 350.925781 188.429688 346.699219 C 185.414062 343.464844 184.042969 339.109375 182.828125 335.265625 C 179.210938 323.792969 175.097656 313.390625 170.742188 302.378906 C 168.007812 295.464844 165.179688 288.3125 162.515625 280.9375 C 161.269531 277.496094 160.3125 273.816406 159.386719 270.261719 C 156.464844 259.035156 153.703125 248.429688 142.625 243.195312 C 137.597656 240.824219 129.121094 239.429688 123.3125 241.523438 C 120.578125 242.507812 118.65625 244.160156 117.585938 246.4375 C 109.277344 264.183594 111.601562 285.78125 115.019531 300.777344 L 115.445312 302.648438 L 113.867188 301.558594 C 108.523438 297.859375 102.46875 293.671875 98.910156 287.5625 C 95.128906 281.066406 94.644531 273.136719 94.484375 266.214844 C 93.957031 243.242188 96.1875 220.214844 101.117188 197.769531 C 102.460938 191.648438 104.097656 185.238281 108.007812 180.046875 C 109.671875 177.839844 111.695312 175.933594 113.652344 174.089844 C 114.316406 173.464844 114.976562 172.84375 115.625 172.210938 C 125.019531 163.015625 131.652344 151.273438 138.0625 139.921875 C 142.636719 131.820312 147.367188 123.441406 153.097656 115.957031 C 159.160156 108.042969 166.429688 101.015625 173.457031 94.222656 C 177.523438 90.292969 182.128906 85.839844 187.757812 83.410156 C 192.773438 81.242188 198.222656 80.777344 203.496094 80.328125 C 206.589844 80.0625 209.714844 79.761719 212.855469 79.457031 C 221.058594 78.664062 229.546875 77.84375 237.734375 77.6875 C 315.300781 76.207031 393.808594 79.015625 471.070312 86.03125 C 501.210938 88.765625 525.996094 95.15625 551.453125 106.757812 C 576.386719 118.121094 599.101562 140.285156 615.683594 156.46875 C 620.179688 160.855469 624.789062 165.164062 629.296875 169.289062 C 633.597656 166.738281 642.183594 168.605469 646.03125 169.644531 C 652.039062 171.261719 656.710938 175.066406 658.53125 179.820312 C 660.179688 184.121094 659.121094 189.917969 655.296875 192.929688 C 659.449219 196.648438 663.71875 200.070312 668.167969 202.347656 C 674.789062 205.738281 683.289062 207.519531 691.507812 209.238281 C 696.6875 210.324219 701.582031 211.347656 706.054688 212.75 C 730.882812 220.523438 755.351562 230.160156 778.78125 241.394531 C 787.769531 245.703125 797.742188 251.089844 802.25 260.46875 C 804.378906 264.894531 804.382812 269.140625 804.386719 273.246094 C 804.386719 275.773438 804.390625 278.382812 804.886719 281.03125 C 805.425781 283.890625 807.160156 285.972656 809 288.171875 C 810.054688 289.441406 811.148438 290.753906 812.023438 292.242188 C 815.292969 297.820312 816.820312 304.773438 817.523438 309.621094 C 817.933594 312.445312 818.128906 315.300781 818.324219 318.0625 C 818.589844 321.921875 818.867188 325.914062 819.730469 329.707031 C 821.761719 338.605469 821.140625 345.578125 819.277344 355.328125 Z M 819.277344 355.328125 " fill-opacity="1" fill-rule="nonzero"/><path fill="#ffc629" d="M 602.101562 309.535156 C 604.695312 314.929688 604.464844 319.242188 601.480469 321.070312 C 600.523438 321.65625 599.453125 321.847656 598.390625 321.847656 C 597.15625 321.847656 595.933594 321.585938 594.910156 321.367188 C 582.015625 318.582031 568.660156 317.363281 555.742188 316.1875 C 550.742188 315.734375 545.574219 315.261719 540.5 314.707031 C 538.617188 314.5 536.582031 314.320312 534.445312 314.132812 C 520.753906 312.921875 503.710938 311.417969 495.464844 300.863281 C 493.820312 298.761719 492.675781 296.375 491.859375 294.527344 C 491.464844 293.628906 491.085938 292.71875 490.714844 291.8125 C 490.441406 291.15625 489.898438 290.074219 489.273438 288.824219 C 486.496094 283.28125 481.847656 274.007812 484.390625 270.167969 C 485.226562 268.898438 486.707031 268.328125 488.785156 268.453125 L 574.707031 273.875 C 577.554688 274.054688 580.785156 274.257812 583.5 275.878906 C 586.878906 277.894531 588.691406 281.664062 590.148438 284.6875 Z M 806.722656 268.171875 C 806.019531 264.777344 804.875 261.128906 801.699219 259.808594 C 799.058594 258.710938 796.234375 259.730469 793.566406 260.867188 C 792.617188 261.273438 791.28125 261.710938 789.730469 262.222656 C 785.234375 263.699219 779.640625 265.539062 777.960938 268.394531 C 774.671875 274.03125 778.066406 287.128906 780.542969 296.691406 C 781.304688 299.632812 781.964844 302.175781 782.269531 303.917969 C 782.367188 304.492188 782.519531 305.359375 783.152344 305.957031 C 783.730469 306.5 784.492188 306.632812 785.199219 306.632812 C 785.414062 306.632812 785.625 306.621094 785.824219 306.601562 C 796.210938 305.722656 805.421875 297.707031 807.734375 287.542969 C 809.179688 281.191406 808.027344 274.492188 806.722656 268.171875 Z M 106.871094 178.628906 C 101.359375 179.347656 94.191406 198.449219 94.132812 198.640625 C 91.109375 208.308594 90.371094 218.597656 91.984375 228.386719 C 92.507812 231.535156 94.207031 232.460938 95.175781 232.734375 C 95.527344 232.835938 95.890625 232.882812 96.265625 232.882812 C 97.976562 232.882812 99.890625 231.882812 101.398438 230.140625 C 103.585938 227.609375 105.1875 223.863281 106.296875 218.699219 C 107.179688 214.570312 107.394531 210.304688 107.605469 206.179688 C 107.660156 205.0625 107.71875 203.945312 107.785156 202.832031 C 107.894531 201.058594 108.472656 198.652344 109.082031 196.097656 C 110.449219 190.394531 111.996094 183.929688 109.613281 180.140625 C 108.714844 178.714844 107.632812 178.535156 106.871094 178.628906 Z M 106.871094 178.628906 " fill-opacity="1" fill-rule="nonzero"/><path fill="#660000" d="M 773.652344 339.476562 C 768.121094 342.636719 759.175781 342.769531 751.28125 342.890625 C 748.019531 342.9375 744.929688 342.984375 742.398438 343.242188 C 731.941406 344.3125 721.125 345.414062 710.226562 345.910156 C 689.75 346.855469 669 347.296875 648.933594 347.71875 C 648.097656 347.738281 647.035156 347.808594 645.851562 347.890625 C 643.976562 348.015625 641.902344 348.152344 639.929688 348.152344 C 637.4375 348.152344 635.113281 347.929688 633.59375 347.171875 C 632.691406 346.722656 631.992188 345.828125 631.769531 344.835938 C 631.589844 344.042969 631.746094 343.28125 632.207031 342.691406 C 632.652344 342.128906 633.285156 341.828125 633.839844 341.59375 C 640.367188 338.804688 648.441406 338.550781 656.246094 338.304688 C 659.328125 338.207031 662.242188 338.113281 664.976562 337.867188 C 677.546875 336.734375 690.359375 336.671875 702.75 336.613281 C 718.367188 336.542969 734.515625 336.464844 750.25 334.226562 C 752.074219 333.96875 753.894531 333.679688 755.714844 333.390625 C 760.21875 332.671875 764.871094 331.929688 769.515625 331.683594 C 772.949219 331.496094 775.210938 332.496094 775.90625 334.484375 C 776.605469 336.496094 775.269531 338.554688 773.652344 339.476562 Z M 672.640625 262.441406 C 675.273438 262.996094 677.976562 263.273438 680.683594 263.273438 C 683.464844 263.273438 686.246094 262.980469 688.953125 262.394531 C 689.957031 262.171875 693.015625 261.507812 693.027344 259.511719 C 693.042969 257.414062 689.511719 255.808594 687.28125 255.285156 C 681.8125 254.007812 675.414062 256.058594 672.914062 256.996094 C 671.925781 257.367188 670.625 258.214844 670.210938 259.390625 C 670 259.992188 670.058594 260.597656 670.378906 261.140625 C 670.9375 262.078125 672.089844 262.324219 672.640625 262.441406 Z M 672.640625 262.441406 " fill-opacity="1" fill-rule="nonzero"/><path fill="#f1e4b2" d="M 647.203125 193.859375 C 645.667969 197.109375 634.816406 198.242188 612.03125 197.53125 C 610.828125 197.492188 610.003906 197.464844 609.566406 197.464844 C 601.164062 197.488281 592.625 197.710938 584.359375 197.929688 C 581.550781 198 578.742188 198.078125 575.9375 198.140625 C 554.144531 198.65625 530.472656 199.546875 503.578125 200.871094 C 493.824219 201.347656 483.910156 202.09375 474.320312 202.8125 C 468.457031 203.253906 462.589844 203.691406 456.722656 204.078125 C 455.046875 204.191406 452.054688 204.558594 448.257812 205.027344 C 436.34375 206.5 423.960938 207.855469 414.21875 207.855469 C 404.6875 207.855469 397.683594 206.554688 396.128906 202.789062 C 389.53125 186.796875 382.425781 171.699219 374.398438 156.632812 C 372.917969 153.847656 371.441406 151.058594 369.964844 148.269531 C 367.015625 142.695312 364.066406 137.125 361.058594 131.582031 C 358.417969 126.714844 355.988281 121.246094 357.980469 117.5625 C 359.230469 115.25 361.960938 113.949219 366.320312 113.59375 C 384.992188 112.070312 405.257812 111.082031 428.28125 110.574219 C 448.167969 110.136719 469.441406 109.832031 490.222656 110.574219 C 501.902344 110.992188 512.519531 111.683594 522.6875 112.6875 C 524.191406 112.835938 526.167969 112.980469 528.453125 113.148438 C 539.699219 113.984375 558.527344 115.382812 564.710938 120.316406 C 580.429688 132.855469 595.878906 146.152344 610.625 159.828125 C 612.378906 161.457031 614.117188 163.144531 615.859375 164.835938 C 620.578125 169.421875 625.460938 174.164062 630.890625 177.839844 L 632.234375 178.746094 C 638.277344 182.824219 641.035156 184.683594 646.488281 190.902344 C 647.621094 192.195312 647.5 193.222656 647.203125 193.859375 Z M 424.128906 352.984375 C 416.839844 344.113281 407.453125 339.410156 399.027344 340.410156 C 392.171875 341.226562 386.589844 345.691406 382.886719 353.328125 C 373.511719 372.65625 372.269531 397.449219 379.382812 423.148438 C 384.480469 441.5625 391.144531 452.042969 399.757812 455.199219 C 401.511719 455.84375 403.339844 456.164062 405.238281 456.164062 C 409.632812 456.164062 414.394531 454.433594 419.445312 450.984375 C 434.140625 440.953125 435.515625 422.894531 436.726562 406.964844 L 436.898438 404.707031 C 437.601562 395.683594 437.261719 387.265625 435.878906 379.683594 C 433.953125 369.117188 430 360.132812 424.128906 352.984375 Z M 141.242188 288.675781 C 133.78125 287.347656 131.308594 292.578125 128.917969 297.628906 C 128.617188 298.269531 128.308594 298.917969 127.992188 299.554688 C 119.515625 316.621094 121.644531 333.851562 124.847656 348.460938 L 124.992188 349.136719 C 126.863281 357.691406 130.339844 373.617188 138.96875 377.597656 C 140.277344 378.203125 141.652344 378.503906 143.085938 378.503906 C 145.117188 378.503906 147.261719 377.898438 149.507812 376.695312 C 151.5625 375.59375 152.972656 373.707031 154.191406 371.828125 C 156.578125 368.152344 158.605469 364.058594 160.210938 359.660156 C 166.789062 341.636719 165.785156 320.71875 157.589844 305.074219 C 152.417969 295.203125 146.917969 289.683594 141.242188 288.675781 Z M 141.242188 288.675781 " fill-opacity="1" fill-rule="nonzero"/><path fill="#93a496" d="M 431.578125 403.570312 L 431.433594 405.429688 C 430.433594 418.578125 429.300781 433.476562 417.148438 441.769531 C 412.964844 444.625 409.027344 446.058594 405.378906 446.058594 C 403.804688 446.058594 402.285156 445.789062 400.820312 445.257812 C 393.6875 442.644531 388.175781 433.980469 383.96875 418.78125 C 378.101562 397.59375 379.128906 377.144531 386.859375 361.203125 C 389.929688 354.875 394.558594 351.171875 400.25 350.496094 C 407.230469 349.660156 415.003906 353.554688 421.03125 360.894531 C 425.882812 366.800781 429.148438 374.21875 430.734375 382.9375 C 431.875 389.191406 432.160156 396.132812 431.578125 403.570312 Z M 141.585938 295.671875 C 135.214844 294.53125 133.117188 298.976562 131.085938 303.269531 C 130.832031 303.804688 130.574219 304.351562 130.308594 304.886719 C 123.160156 319.28125 124.957031 333.800781 127.652344 346.113281 L 127.777344 346.679688 C 129.351562 353.898438 132.285156 367.335938 139.597656 370.710938 C 140.71875 371.226562 141.890625 371.484375 143.113281 371.484375 C 144.839844 371.484375 146.664062 370.972656 148.574219 369.949219 C 150.324219 369.011719 151.523438 367.40625 152.558594 365.8125 C 154.570312 362.714844 156.277344 359.261719 157.632812 355.554688 C 163.175781 340.359375 162.328125 322.722656 155.421875 309.53125 C 151.050781 301.1875 146.394531 296.523438 141.585938 295.671875 Z M 141.585938 295.671875 " fill-opacity="1" fill-rule="nonzero"/><path fill="#f1e4b2" d="M 433.574219 400.578125 L 433.488281 400.964844 L 433.117188 401.109375 C 431.144531 401.894531 429.078125 401.128906 427.253906 400.453125 C 426.96875 400.347656 426.6875 400.242188 426.40625 400.144531 C 424.539062 399.492188 422.289062 399.453125 421.484375 400.839844 C 421.125 401.460938 421.109375 402.300781 421.148438 403.121094 C 421.378906 407.945312 422.933594 412.644531 424.441406 417.191406 C 424.925781 418.660156 425.542969 420.132812 426.199219 421.691406 C 428.222656 426.527344 430.316406 431.527344 428.3125 436.335938 C 426.285156 441.199219 420.507812 445.113281 415.867188 448.261719 C 415.253906 448.675781 414.667969 449.074219 414.121094 449.457031 L 413.09375 450.171875 L 410.304688 424.71875 C 410.019531 422.128906 409.480469 419.363281 407.710938 418.039062 C 402.882812 426.722656 398.621094 435.820312 395.042969 445.089844 L 394.730469 445.90625 L 393.972656 445.464844 C 388.925781 442.535156 385.460938 436.902344 384.707031 430.402344 C 383.953125 423.902344 386.03125 417.625 390.273438 413.613281 C 391.328125 412.617188 392.488281 411.738281 393.609375 410.886719 C 394.945312 409.878906 396.203125 408.925781 397.316406 407.785156 C 399.125 405.921875 400.757812 402.960938 399.902344 400.234375 C 399.019531 397.421875 395.867188 395.847656 392.984375 394.585938 L 381.53125 389.59375 C 380.304688 389.0625 378.449219 388.253906 377.652344 386.574219 C 377.03125 385.261719 377.21875 383.800781 377.457031 382.417969 C 378.3125 377.570312 379.476562 372.726562 380.917969 368.023438 C 381.1875 367.152344 381.683594 365.527344 383.085938 364.902344 C 385.539062 363.792969 387.664062 366.5625 388.570312 367.742188 C 392.03125 372.25 397.144531 375.363281 402.71875 376.394531 C 402.441406 374.835938 401.859375 372.515625 401.203125 369.910156 C 398.464844 359.035156 396.429688 349.800781 399.320312 347.003906 C 401.042969 345.339844 403.140625 344.929688 405.382812 345.816406 C 410.894531 347.996094 416.027344 357.511719 416.21875 361.261719 C 416.355469 364.058594 416.058594 366.882812 415.769531 369.613281 C 415.359375 373.472656 414.972656 377.117188 415.699219 380.738281 C 415.875 381.597656 416.121094 382.199219 416.460938 382.554688 L 429.144531 370.519531 L 430.171875 371.601562 C 430.269531 371.511719 430.292969 371.421875 430.292969 371.421875 C 430.054688 372.359375 431.75 378.109375 432.386719 380.273438 C 432.65625 381.191406 432.859375 381.882812 432.917969 382.148438 C 434.464844 389.050781 435.023438 394.035156 433.574219 400.578125 Z M 162.375 331.917969 C 162.671875 333.472656 162.886719 335.101562 161.984375 336.445312 C 161.28125 337.492188 160.121094 337.976562 159.097656 338.40625 L 158.601562 338.617188 C 155.988281 339.761719 153.585938 342.40625 154.269531 345.054688 C 154.535156 346.066406 155.203125 346.941406 155.914062 347.867188 C 156.308594 348.378906 156.699219 348.890625 157.035156 349.433594 C 158.988281 352.605469 159.011719 357.121094 157.089844 361.222656 C 155.390625 364.855469 152.613281 367.734375 149.925781 370.519531 L 148.960938 371.519531 L 144.6875 352.136719 C 141.421875 357.875 138.675781 363.933594 136.511719 370.164062 L 136.074219 371.429688 L 135.230469 370.394531 C 130.777344 364.9375 127.945312 358.074219 127.25 351.066406 C 127.175781 350.316406 127.128906 349.523438 127.414062 348.742188 C 127.835938 347.605469 128.859375 346.890625 129.609375 346.367188 L 137.535156 340.8125 C 139.316406 339.5625 140.96875 338.167969 141.007812 336.414062 C 141.039062 335.035156 140.054688 333.640625 138 332.148438 C 134.90625 329.898438 131.503906 328.136719 127.882812 326.914062 C 126.867188 326.570312 125.617188 326.148438 124.976562 325.042969 C 124.511719 324.246094 124.511719 323.347656 124.550781 322.492188 C 124.777344 317.339844 125.671875 312.222656 127.203125 307.292969 L 127.515625 306.285156 L 139.707031 315.394531 C 137.488281 309.636719 135.859375 298.695312 137.398438 296.175781 C 140.070312 291.800781 142.699219 291.460938 144.433594 291.953125 C 148.261719 293.03125 150.832031 299.074219 150.832031 304.042969 C 150.832031 305.957031 151.089844 314.273438 151.519531 315.914062 C 151.96875 317.625 154.179688 317.375 154.847656 317.253906 C 156.207031 317.015625 157.683594 316.328125 157.9375 315.933594 C 158.359375 315.285156 159.09375 314.824219 159.804688 314.761719 C 160.335938 314.714844 160.816406 314.894531 161.160156 315.261719 C 161.535156 315.664062 161.636719 316.179688 161.699219 316.523438 C 162.222656 319.25 162.136719 321.859375 162.050781 324.386719 C 161.964844 326.945312 161.886719 329.355469 162.375 331.917969 Z M 142.113281 318.125 Z M 341.074219 158.65625 C 335.601562 146.449219 328.425781 132.429688 316.695312 121 C 308.265625 112.785156 296.304688 110.234375 284.773438 108.324219 C 275.640625 106.8125 266.265625 106.886719 257.195312 106.953125 C 249.671875 107.011719 241.886719 106.875 234.355469 106.742188 C 213.730469 106.375 192.402344 105.996094 172.25 109.449219 C 161.613281 111.273438 161.828125 129.25 161.929688 137.890625 L 161.945312 139.542969 C 161.953125 140.769531 161.933594 142.125 161.914062 143.574219 C 161.75 155.351562 161.5 173.144531 173.726562 177.335938 C 176.929688 178.429688 180.664062 178.875 184.277344 179.304688 C 187.070312 179.636719 189.960938 179.980469 192.507812 180.621094 C 209.613281 184.925781 227.304688 187.917969 244.414062 190.8125 C 260.421875 193.519531 276.976562 196.320312 292.976562 200.183594 C 311.324219 204.613281 329.3125 208.625 347.699219 209.070312 C 347.882812 209.074219 348.066406 209.078125 348.253906 209.078125 C 349.53125 209.078125 350.894531 208.933594 351.9375 208.070312 C 353.285156 206.957031 353.554688 205.179688 353.644531 203.425781 C 354.414062 188.261719 348.203125 174.484375 342.203125 161.160156 Z M 341.074219 158.65625 " fill-opacity="1" fill-rule="nonzero"/><path fill="#93a496" d="M 415.332031 396.355469 C 414.878906 399.492188 412.890625 402.988281 409.582031 403.253906 C 409.472656 403.265625 409.359375 403.269531 409.253906 403.269531 C 406.847656 403.269531 404.894531 401.148438 404.351562 398.984375 C 403.570312 395.867188 404.007812 391.429688 406.355469 389.347656 C 407.347656 388.472656 409.109375 387.648438 411.886719 388.714844 C 414.5 389.722656 415.855469 392.722656 415.332031 396.355469 Z M 148.550781 323.554688 L 148.015625 323.730469 C 146.132812 324.347656 144.8125 325.863281 144.394531 327.886719 C 143.859375 330.46875 144.835938 333.378906 146.824219 335.132812 C 147.039062 335.320312 147.628906 335.84375 148.378906 335.84375 C 148.492188 335.84375 148.609375 335.832031 148.730469 335.804688 C 149.433594 335.652344 149.839844 335.078125 150.082031 334.660156 C 152.125 331.171875 150.792969 326.878906 148.863281 324.023438 Z M 148.550781 323.554688 " fill-opacity="1" fill-rule="nonzero"/><path fill="#1c3550" d="M 805.273438 396.667969 C 805.226562 401.960938 802.386719 402.714844 798.789062 403.664062 C 798.183594 403.824219 797.535156 403.996094 796.851562 404.199219 C 776.242188 410.335938 754.226562 411.40625 732.933594 412.4375 C 730.039062 412.578125 727.144531 412.71875 724.265625 412.871094 C 705.476562 413.867188 686.367188 414.496094 667.882812 415.109375 C 661.660156 415.316406 655.4375 415.519531 649.214844 415.742188 C 648.398438 415.769531 646.1875 415.804688 643.003906 415.855469 C 598.855469 416.582031 575.550781 417.828125 573.742188 419.558594 C 573.765625 419.535156 573.824219 419.457031 573.835938 419.324219 L 572.347656 419.210938 C 572.847656 412.382812 577.433594 407.769531 581.871094 403.308594 C 582.476562 402.703125 583.082031 402.09375 583.675781 401.476562 C 585.136719 399.972656 586.75 398.410156 588.660156 397.15625 C 593.242188 394.140625 598.386719 393.496094 603.261719 393.246094 C 604.480469 393.183594 605.707031 393.148438 606.929688 393.109375 C 609.257812 393.039062 611.664062 392.96875 613.945312 392.710938 C 623.476562 391.628906 633.730469 390.574219 644.148438 390.1875 L 783.335938 385.027344 C 788.226562 384.847656 794.320312 384.621094 799.253906 387.433594 C 802.195312 389.113281 805.308594 392.917969 805.273438 396.667969 Z M 349.6875 175.238281 C 348.746094 175.203125 348.011719 175.828125 347.660156 176.136719 C 344.15625 179.164062 341.59375 182.996094 339.117188 186.707031 C 335.945312 191.453125 332.949219 195.9375 328.121094 198.957031 C 324.398438 201.289062 321.355469 205.34375 322.957031 209.152344 C 323.824219 211.21875 325.804688 212.453125 327.628906 213.390625 C 333.902344 216.605469 340.910156 218.296875 347.953125 218.296875 C 348.238281 218.296875 348.527344 218.292969 348.8125 218.289062 C 350.0625 218.265625 351.355469 218.125 352.3125 217.285156 C 353.027344 216.660156 353.386719 215.765625 353.648438 215.113281 C 356.667969 207.554688 358.101562 201.300781 358.15625 195.433594 C 358.230469 187.9375 355.917969 181.179688 351.640625 176.398438 C 351.148438 175.847656 350.53125 175.28125 349.6875 175.238281 Z M 349.6875 175.238281 " fill-opacity="1" fill-rule="nonzero"/><path fill="#93a496" d="M 340.082031 206.871094 C 338.601562 207.582031 336.957031 207.753906 335.40625 207.753906 C 334.609375 207.753906 333.839844 207.710938 333.125 207.667969 C 326.746094 207.289062 320.355469 206.542969 314.175781 205.820312 C 310.742188 205.421875 307.300781 205.019531 303.847656 204.675781 C 302.90625 204.582031 301.890625 204.539062 300.84375 204.492188 C 296.480469 204.304688 291.53125 204.089844 288.703125 200.339844 C 285.757812 196.433594 285.75 184.035156 287.515625 179.769531 C 290.75 171.964844 300.765625 170.089844 308.019531 169.359375 C 309.050781 169.257812 310.28125 169.109375 311.640625 168.945312 C 318.402344 168.140625 327.671875 167.03125 332.230469 168.636719 C 341.878906 172.027344 344.199219 185.109375 344.679688 189.039062 C 344.980469 191.503906 346.164062 203.941406 340.082031 206.871094 Z M 340.082031 206.871094 " fill-opacity="1" fill-rule="nonzero"/><path fill="#1c3550" d="M 643.609375 275.609375 C 657.289062 275.984375 671.433594 276.375 685.308594 275.441406 L 693.960938 274.867188 C 720.039062 273.152344 744.675781 271.535156 770.347656 266.578125 C 770.746094 266.5 771.144531 266.761719 771.222656 267.167969 C 771.300781 267.574219 771.039062 267.964844 770.632812 268.042969 C 744.867188 273.015625 720.1875 274.636719 694.058594 276.355469 L 685.410156 276.925781 C 678.992188 277.359375 672.519531 277.511719 666.070312 277.511719 C 658.503906 277.511719 650.96875 277.304688 643.566406 277.101562 L 640.714844 277.023438 C 634.960938 276.867188 629.019531 276.96875 623.28125 277.070312 C 614.210938 277.226562 604.832031 277.386719 595.808594 276.542969 C 595.402344 276.503906 595.097656 276.140625 595.136719 275.730469 C 595.175781 275.320312 595.554688 275.035156 595.949219 275.054688 C 604.886719 275.894531 614.226562 275.734375 623.253906 275.578125 C 629.011719 275.476562 634.960938 275.371094 640.757812 275.53125 Z M 816.933594 375.722656 L 816.503906 375.128906 C 815.027344 373.070312 813.226562 370.558594 811.230469 368.210938 C 811.34375 368.113281 811.4375 367.984375 811.472656 367.824219 C 813.285156 359.488281 806.136719 351.878906 798.46875 349.613281 C 791.0625 347.425781 783.261719 348.8125 775.714844 350.15625 L 774.855469 350.3125 C 747.378906 355.1875 717.398438 357.78125 680.496094 358.484375 C 663.488281 358.808594 646.914062 358.695312 632.945312 358.542969 C 630.875 358.519531 628.785156 358.472656 626.6875 358.425781 C 614.894531 358.167969 602.6875 357.894531 591.339844 361.734375 C 583.664062 364.332031 577.4375 369.753906 571.414062 375 C 566.128906 379.605469 560.664062 384.363281 554.269531 387.144531 C 546.882812 390.355469 538.6875 390.824219 530.761719 391.277344 L 470.222656 394.746094 C 469.808594 394.769531 469.496094 395.121094 469.519531 395.53125 C 469.539062 395.929688 469.871094 396.238281 470.261719 396.238281 C 470.277344 396.238281 470.292969 396.238281 470.304688 396.234375 L 530.84375 392.765625 C 538.523438 392.328125 547.230469 391.832031 554.863281 388.511719 C 561.46875 385.640625 567.023438 380.800781 572.394531 376.125 C 578.304688 370.976562 584.417969 365.648438 591.820312 363.148438 C 602.914062 359.390625 614.984375 359.660156 626.65625 359.917969 C 628.757812 359.964844 630.851562 360.011719 632.929688 360.035156 C 646.914062 360.1875 663.5 360.300781 680.527344 359.976562 C 717.503906 359.273438 747.5625 356.667969 775.117188 351.78125 L 775.976562 351.628906 C 783.351562 350.316406 790.980469 348.957031 798.046875 351.046875 C 804.914062 353.078125 811.226562 359.871094 810.101562 366.929688 C 807.769531 364.375 805.222656 362.171875 802.640625 361.230469 C 798.449219 359.695312 791.914062 360.417969 786.144531 361.0625 C 783.730469 361.332031 781.445312 361.589844 779.609375 361.640625 C 755.597656 362.3125 731.238281 363.699219 707.679688 365.039062 C 687.511719 366.1875 666.660156 367.371094 646.125 368.105469 C 627.574219 368.769531 600.351562 371.226562 578.179688 384.863281 C 576.285156 386.027344 574.410156 387.285156 572.597656 388.503906 C 568.894531 390.988281 565.0625 393.5625 560.953125 395.398438 C 551.984375 399.402344 541.554688 399.921875 532.355469 400.382812 L 477.75 403.121094 C 477.335938 403.140625 477.019531 403.492188 477.042969 403.902344 C 477.058594 404.300781 477.390625 404.613281 477.785156 404.613281 C 477.796875 404.613281 477.8125 404.613281 477.824219 404.609375 L 532.429688 401.875 C 541.761719 401.40625 552.335938 400.878906 561.558594 396.761719 C 565.785156 394.875 569.671875 392.265625 573.425781 389.742188 C 575.226562 388.53125 577.089844 387.28125 578.957031 386.132812 C 600.832031 372.679688 627.792969 370.253906 646.175781 369.597656 C 666.730469 368.863281 687.589844 367.675781 707.761719 366.527344 C 731.308594 365.1875 755.65625 363.800781 779.644531 363.132812 C 781.542969 363.078125 783.859375 362.820312 786.308594 362.546875 C 791.910156 361.921875 798.261719 361.214844 802.125 362.632812 C 806.980469 364.40625 812.183594 371.664062 815.289062 375.996094 L 815.71875 376.597656 C 815.957031 376.929688 816.421875 377.003906 816.757812 376.765625 C 817.097656 376.527344 817.171875 376.058594 816.933594 375.722656 Z M 492.996094 260.089844 C 493.25 260.089844 493.496094 259.960938 493.636719 259.726562 C 493.847656 259.371094 493.734375 258.914062 493.378906 258.703125 C 460.503906 239 422.542969 231.488281 385.832031 224.222656 C 385.425781 224.144531 385.035156 224.40625 384.953125 224.8125 C 384.875 225.214844 385.136719 225.609375 385.539062 225.6875 C 422.125 232.929688 459.960938 240.417969 492.613281 259.984375 C 492.730469 260.054688 492.863281 260.089844 492.996094 260.089844 Z M 249.972656 179.199219 C 250.019531 179.210938 250.070312 179.214844 250.121094 179.214844 C 250.46875 179.214844 250.777344 178.96875 250.851562 178.617188 C 254.875 158.769531 259.816406 138.851562 265.539062 119.417969 C 265.65625 119.023438 265.429688 118.609375 265.035156 118.492188 C 264.640625 118.375 264.226562 118.601562 264.109375 118.996094 C 258.371094 138.46875 253.417969 158.429688 249.386719 178.320312 C 249.308594 178.722656 249.566406 179.117188 249.972656 179.199219 Z M 181.75 166.558594 C 181.796875 166.570312 181.847656 166.574219 181.898438 166.574219 C 182.246094 166.574219 182.554688 166.328125 182.628906 165.976562 C 186.222656 148.097656 192.65625 131.023438 201.746094 115.222656 C 201.949219 114.867188 201.828125 114.410156 201.46875 114.203125 C 201.113281 114 200.65625 114.121094 200.453125 114.476562 C 191.28125 130.421875 184.792969 147.648438 181.164062 165.679688 C 181.082031 166.082031 181.34375 166.476562 181.75 166.558594 Z M 337.078125 109.785156 C 345.316406 118.714844 351.386719 129.738281 356.429688 139.371094 C 367.691406 160.875 377.800781 183.273438 386.472656 205.945312 C 386.890625 207.046875 387.371094 208.292969 388.363281 209.199219 C 389.171875 209.9375 390.148438 210.316406 391.203125 210.316406 C 391.71875 210.316406 392.253906 210.222656 392.792969 210.042969 C 395.367188 209.171875 397.703125 206.382812 398.222656 203.542969 C 399.234375 198.039062 397.011719 192.65625 394.445312 187.160156 C 385.28125 167.566406 375.464844 147.9375 365.273438 128.816406 C 359.367188 117.734375 353.398438 107.03125 345.398438 97.882812 C 339.449219 91.082031 333.605469 86.886719 327.523438 85.0625 C 322.886719 83.671875 314.304688 82.78125 309.6875 86.03125 C 307.761719 87.390625 306.722656 89.3125 306.59375 91.75 L 306.558594 92.421875 L 307.226562 92.523438 C 320.644531 94.589844 330.863281 103.050781 337.078125 109.785156 Z M 508.949219 94.214844 C 524.875 98.820312 539.917969 103.171875 552.367188 113.371094 L 639.828125 195.054688 L 639.878906 195.097656 C 640.664062 195.714844 641.609375 195.8125 642.445312 195.902344 C 642.816406 195.941406 643.183594 195.976562 643.539062 196.066406 C 645.234375 196.484375 646.648438 196.660156 647.917969 196.660156 C 649.367188 196.660156 650.621094 196.433594 651.894531 196.09375 C 653.226562 195.738281 654.28125 194.75 654.722656 193.449219 C 655.160156 192.15625 654.921875 190.742188 654.085938 189.660156 C 652.347656 187.402344 650.132812 185.117188 649.070312 184.125 L 630.738281 167.105469 C 605.515625 143.675781 588.476562 129.003906 563.222656 108.960938 C 553 100.847656 539 89.734375 523.730469 87.265625 C 518.945312 86.492188 514.046875 86.226562 509.304688 85.96875 C 506.367188 85.8125 503.332031 85.644531 500.367188 85.363281 C 497.347656 85.074219 492.785156 84.640625 490.191406 87.519531 L 489.402344 88.390625 L 501.09375 91.914062 C 503.710938 92.699219 506.332031 93.457031 508.949219 94.214844 Z M 358.472656 367.355469 C 358.039062 364.824219 357.898438 364.476562 355.5625 363.925781 C 354.757812 363.738281 353.652344 363.476562 352.046875 362.9375 C 347.15625 361.296875 342.21875 359.515625 337.445312 357.789062 C 327.386719 354.152344 316.992188 350.390625 306.394531 347.769531 C 298.585938 345.839844 290.667969 343.792969 283.011719 341.8125 C 271.722656 338.894531 260.050781 335.875 248.515625 333.171875 C 227.242188 328.191406 209.753906 325.097656 193.480469 323.4375 C 192.03125 323.289062 190.671875 323.085938 189.367188 322.890625 C 185.335938 322.292969 181.535156 321.726562 176.929688 323.101562 L 176.246094 323.304688 L 176.421875 324 C 178.121094 330.660156 182.726562 343.566406 189.21875 349.699219 C 196.257812 356.351562 206.722656 357.191406 215.957031 357.933594 L 217.867188 358.089844 C 222.367188 358.464844 226.820312 359.664062 231.128906 360.820312 C 237.464844 362.519531 243.859375 364.414062 250.046875 366.246094 C 263.410156 370.203125 277.226562 374.292969 291.203125 376.660156 C 303.058594 378.664062 314.023438 382.3125 325.632812 386.171875 L 326.101562 386.324219 C 330.210938 387.691406 333.503906 389.125 336.6875 390.507812 C 341.914062 392.777344 346.851562 394.925781 354.207031 396.148438 C 354.488281 396.195312 354.894531 396.265625 355.34375 396.265625 C 355.964844 396.265625 356.660156 396.136719 357.21875 395.648438 C 357.980469 394.984375 358.121094 393.964844 358.210938 393.292969 C 359.371094 384.871094 360.265625 376.222656 358.96875 370.03125 C 358.734375 368.898438 358.585938 368.03125 358.472656 367.355469 Z M 306.097656 206.332031 C 313.597656 207.582031 321.421875 208.21875 330.136719 208.863281 C 330.15625 208.867188 330.175781 208.867188 330.195312 208.867188 C 330.582031 208.867188 330.910156 208.566406 330.9375 208.175781 C 330.96875 207.765625 330.660156 207.40625 330.25 207.375 C 321.570312 206.730469 313.78125 206.097656 306.34375 204.859375 C 297.453125 203.375 291.019531 201.269531 289.132812 199.21875 C 288.851562 198.914062 288.378906 198.894531 288.078125 199.175781 C 287.773438 199.453125 287.753906 199.925781 288.035156 200.230469 C 290.953125 203.40625 300.605469 205.414062 306.097656 206.332031 Z M 306.097656 206.332031 " fill-opacity="1" fill-rule="nonzero"/><path fill="#f1e4b2" d="M 742.578125 424.621094 C 742.914062 424.863281 742.988281 425.328125 742.746094 425.660156 C 735.949219 435.042969 726.179688 442.296875 715.234375 446.085938 C 715.15625 446.113281 715.074219 446.125 714.992188 446.125 C 714.683594 446.125 714.394531 445.929688 714.285156 445.621094 C 714.152344 445.230469 714.359375 444.808594 714.75 444.671875 C 725.40625 440.984375 734.921875 433.925781 741.539062 424.785156 C 741.78125 424.453125 742.25 424.382812 742.578125 424.621094 Z M 687.714844 221.859375 C 691.660156 223.695312 695.738281 225.589844 699.523438 227.800781 C 708.78125 233.203125 716.71875 240.695312 724.398438 247.945312 C 724.542969 248.082031 724.726562 248.148438 724.910156 248.148438 C 725.109375 248.148438 725.308594 248.070312 725.453125 247.914062 C 725.734375 247.613281 725.722656 247.140625 725.421875 246.859375 C 717.683594 239.550781 709.675781 231.996094 700.277344 226.511719 C 696.429688 224.265625 692.320312 222.351562 688.34375 220.503906 C 682.015625 217.5625 675.46875 214.519531 670 210.105469 C 669.679688 209.847656 669.210938 209.894531 668.953125 210.214844 C 668.691406 210.535156 668.742188 211.007812 669.0625 211.265625 C 674.675781 215.796875 681.304688 218.878906 687.714844 221.859375 Z M 578.988281 255.382812 C 554.519531 246.875 530.695312 236.070312 508.179688 223.261719 C 507.820312 223.054688 507.363281 223.179688 507.160156 223.539062 C 506.957031 223.898438 507.082031 224.355469 507.441406 224.558594 C 530.035156 237.414062 553.941406 248.257812 578.496094 256.792969 C 578.578125 256.820312 578.660156 256.835938 578.742188 256.835938 C 579.050781 256.835938 579.339844 256.640625 579.445312 256.332031 C 579.578125 255.941406 579.375 255.515625 578.988281 255.382812 Z M 569.15625 353.539062 C 570.757812 358.410156 566.140625 364.761719 562.425781 369.863281 C 561.761719 370.78125 561.128906 371.648438 560.582031 372.449219 C 559.292969 374.316406 557.886719 376.269531 556.070312 377.820312 C 552.40625 380.933594 547.777344 381.972656 542.785156 381.972656 C 539.210938 381.972656 535.453125 381.441406 531.726562 380.761719 C 529.414062 380.335938 526.242188 379.757812 524.164062 377.632812 C 522.933594 376.378906 522.234375 374.742188 521.621094 373.300781 L 515.234375 358.390625 C 514.433594 356.515625 513.523438 354.390625 513.363281 352.148438 C 513.183594 349.566406 514.144531 347.164062 515.871094 345.882812 C 517.28125 344.835938 519.042969 344.566406 520.726562 344.382812 C 534.847656 342.820312 549.484375 344.253906 563.042969 348.53125 C 566.347656 349.574219 568.402344 351.257812 569.15625 353.539062 Z M 567.738281 354.007812 C 567.136719 352.179688 565.453125 350.855469 562.59375 349.953125 C 552.742188 346.847656 542.308594 345.261719 531.925781 345.261719 C 528.230469 345.261719 524.539062 345.460938 520.886719 345.867188 C 519.34375 346.035156 517.871094 346.257812 516.757812 347.078125 C 515.175781 348.25 514.738281 350.410156 514.851562 352.042969 C 514.992188 354.03125 515.8125 355.949219 516.605469 357.796875 L 522.992188 372.714844 C 523.582031 374.097656 524.195312 375.53125 525.230469 376.585938 C 526.847656 378.238281 529.25 378.789062 531.996094 379.289062 C 540.5625 380.859375 549.292969 381.625 555.101562 376.679688 C 556.78125 375.25 558.121094 373.386719 559.351562 371.601562 C 559.90625 370.792969 560.546875 369.914062 561.222656 368.984375 C 564.546875 364.414062 569.101562 358.148438 567.738281 354.007812 Z M 815.925781 357.117188 C 815.335938 358.863281 814.507812 359.742188 813.464844 359.742188 C 813.347656 359.742188 813.230469 359.734375 813.105469 359.710938 L 812.699219 359.640625 L 812.546875 359.253906 C 810.242188 353.4375 807.753906 344.648438 808.976562 335.785156 C 809.355469 333.035156 810.234375 330.40625 811.589844 327.964844 C 811.925781 327.359375 812.476562 327.011719 813.105469 327.011719 C 813.105469 327.011719 813.109375 327.011719 813.109375 327.011719 C 813.863281 327.015625 814.605469 327.515625 815.042969 328.316406 C 818.230469 334.160156 818.6875 348.964844 815.925781 357.117188 Z M 813.734375 329.035156 C 813.546875 328.691406 813.269531 328.507812 813.105469 328.507812 C 813.074219 328.507812 812.996094 328.507812 812.894531 328.691406 C 811.628906 330.96875 810.808594 333.425781 810.453125 335.992188 C 809.316406 344.25 811.539062 352.488281 813.707031 358.128906 C 813.976562 357.914062 814.257812 357.398438 814.511719 356.640625 C 817.121094 348.9375 816.710938 334.488281 813.734375 329.035156 Z M 629.058594 328.105469 C 625.671875 327.832031 622.300781 325.789062 619.820312 322.507812 C 617.652344 319.640625 616.382812 316.316406 615.171875 312.875 C 614.964844 312.285156 614.605469 311.386719 614.15625 310.273438 C 611.554688 303.792969 606.140625 290.308594 609.429688 284.667969 C 610.28125 283.207031 611.640625 282.339844 613.464844 282.09375 C 619.023438 281.359375 624.648438 281.191406 628.09375 284.972656 C 630.503906 287.617188 630.921875 291.328125 631.292969 294.601562 C 632.285156 303.367188 633.625 312.214844 635.273438 320.894531 C 635.503906 322.101562 635.761719 323.46875 635.3125 324.792969 C 634.515625 327.132812 631.945312 328.128906 629.675781 328.128906 C 629.46875 328.132812 629.261719 328.125 629.058594 328.105469 Z M 629.179688 326.621094 C 631.078125 326.773438 633.3125 326.03125 633.898438 324.3125 C 634.222656 323.359375 634.011719 322.246094 633.804688 321.175781 C 632.148438 312.453125 630.800781 303.570312 629.808594 294.769531 C 629.464844 291.71875 629.074219 288.265625 626.992188 285.976562 C 625.027344 283.820312 622.105469 283.164062 618.863281 283.164062 C 617.1875 283.164062 615.421875 283.339844 613.660156 283.574219 C 612.296875 283.753906 611.332031 284.359375 610.714844 285.417969 C 607.792969 290.425781 613.222656 303.945312 615.539062 309.714844 C 615.996094 310.855469 616.363281 311.769531 616.578125 312.378906 C 617.746094 315.703125 618.96875 318.910156 621.003906 321.605469 C 623.234375 324.550781 626.214844 326.378906 629.179688 326.621094 Z M 641.363281 303.742188 C 640.210938 299.515625 637.160156 288.289062 641.109375 283.382812 C 642.492188 281.664062 644.566406 280.863281 647.277344 281 L 651.519531 281.214844 C 652.234375 281.25 653.042969 281.292969 653.8125 281.640625 C 654.980469 282.171875 655.6875 283.25 656.253906 284.121094 C 660.445312 290.53125 661.597656 297.257812 662.816406 304.378906 C 663.339844 307.441406 663.882812 310.609375 664.691406 313.769531 C 666.339844 320.242188 665.503906 324.769531 662.261719 326.859375 C 660.953125 327.707031 659.441406 327.988281 658.269531 328.136719 C 657.558594 328.230469 656.882812 328.273438 656.238281 328.273438 C 646.339844 328.273438 644.289062 317.90625 642.625 309.476562 C 642.214844 307.421875 641.832031 305.476562 641.363281 303.742188 Z M 642.800781 303.351562 C 643.285156 305.132812 643.675781 307.105469 644.085938 309.1875 C 645.914062 318.421875 647.8125 327.960938 658.082031 326.660156 C 659.589844 326.464844 660.628906 326.140625 661.453125 325.609375 C 664.800781 323.445312 664.277344 318.179688 663.246094 314.140625 C 662.421875 310.921875 661.875 307.722656 661.347656 304.628906 C 660.152344 297.664062 659.027344 291.089844 655.007812 284.9375 C 654.417969 284.035156 653.914062 283.324219 653.195312 283 C 652.6875 282.769531 652.054688 282.734375 651.445312 282.703125 L 647.199219 282.488281 C 647.023438 282.480469 646.847656 282.472656 646.679688 282.472656 C 644.710938 282.472656 643.265625 283.078125 642.269531 284.316406 C 638.800781 288.632812 641.707031 299.328125 642.800781 303.351562 Z M 684.933594 325.6875 L 678.253906 325.671875 C 677.449219 325.671875 676.347656 325.667969 675.457031 325.039062 C 674.515625 324.375 674.167969 323.289062 673.886719 322.234375 C 670.804688 310.609375 669.617188 300.976562 668.777344 290.089844 C 668.359375 284.691406 672.042969 282.195312 675.328125 281.695312 C 679.640625 281.035156 684.9375 283.464844 686.257812 289.246094 C 688.816406 300.429688 689.8125 311.289062 689.214844 321.523438 C 689.164062 322.394531 689.070312 324.015625 687.921875 324.945312 C 687.054688 325.644531 685.90625 325.683594 685.089844 325.683594 C 685.035156 325.6875 684.984375 325.6875 684.933594 325.6875 Z M 678.257812 324.179688 L 684.9375 324.195312 C 685.78125 324.183594 686.515625 324.164062 686.984375 323.785156 C 687.574219 323.3125 687.675781 322.324219 687.726562 321.441406 C 688.316406 311.34375 687.332031 300.625 684.808594 289.582031 C 683.804688 285.191406 680.113281 283.082031 676.730469 283.082031 C 676.332031 283.082031 675.9375 283.113281 675.554688 283.171875 C 672.777344 283.59375 669.925781 285.605469 670.261719 289.980469 C 671.097656 300.785156 672.277344 310.339844 675.328125 321.855469 C 675.546875 322.679688 675.785156 323.449219 676.316406 323.824219 C 676.78125 324.152344 677.472656 324.179688 678.257812 324.179688 Z M 714.359375 306.445312 C 714.394531 309.769531 714.429688 312.90625 714.746094 315.855469 C 714.855469 316.863281 714.980469 318.007812 714.765625 319.136719 C 714.457031 320.726562 713.535156 322.070312 712.089844 323.019531 C 710.820312 323.855469 709.273438 324.296875 707.738281 324.296875 C 707.179688 324.296875 706.625 324.238281 706.082031 324.117188 C 701.535156 323.117188 700.941406 320.265625 700.257812 316.964844 C 700.152344 316.464844 700.042969 315.941406 699.914062 315.394531 C 699.300781 312.753906 698.710938 309.953125 698.15625 307.066406 C 696.921875 300.617188 695.953125 294.238281 695.09375 288.308594 C 694.785156 286.175781 695.5 284.21875 697.105469 282.789062 C 699.230469 280.898438 702.734375 280.125 705.625 280.894531 C 709.660156 281.976562 711.5 286.320312 712.765625 290.429688 C 714.242188 295.226562 714.300781 300.929688 714.359375 306.445312 Z M 713.261719 316.015625 C 712.9375 312.996094 712.902344 309.675781 712.867188 306.460938 C 712.808594 301.054688 712.75 295.460938 711.339844 290.871094 C 710.191406 287.152344 708.570312 283.234375 705.238281 282.339844 C 704.621094 282.175781 703.964844 282.097656 703.300781 282.097656 C 701.378906 282.097656 699.390625 282.753906 698.097656 283.90625 C 697.234375 284.675781 696.265625 286.023438 696.570312 288.097656 C 697.429688 294.011719 698.390625 300.371094 699.621094 306.789062 C 700.167969 309.65625 700.757812 312.4375 701.367188 315.058594 C 701.496094 315.617188 701.609375 316.152344 701.714844 316.667969 C 702.390625 319.910156 702.796875 321.867188 706.402344 322.664062 C 708.027344 323.027344 709.890625 322.683594 711.269531 321.777344 C 712.039062 321.273438 713.011719 320.355469 713.300781 318.855469 C 713.472656 317.945312 713.367188 316.964844 713.261719 316.015625 Z M 722.457031 281.589844 C 724.832031 280.886719 728.082031 279.917969 731.007812 280.964844 C 739.261719 283.910156 739.371094 299.394531 738.738281 310.785156 C 738.625 312.871094 738.269531 319.222656 733.742188 320.671875 C 733.207031 320.84375 732.664062 320.925781 732.128906 320.925781 C 729.707031 320.925781 727.40625 319.300781 726.160156 317.363281 C 724.617188 314.957031 724.226562 312.058594 723.882812 309.5 L 723.882812 309.496094 C 723.640625 307.726562 723.21875 305.59375 722.773438 303.332031 C 721.375 296.265625 719.640625 287.464844 721.988281 282.011719 L 722.125 281.6875 Z M 723.226562 282.921875 C 721.265625 287.988281 722.910156 296.324219 724.238281 303.046875 C 724.691406 305.328125 725.113281 307.484375 725.359375 309.300781 C 725.683594 311.703125 726.054688 314.429688 727.417969 316.554688 C 728.601562 318.394531 731.054688 319.980469 733.292969 319.25 C 735.679688 318.484375 736.972656 315.6875 737.25 310.703125 C 737.601562 304.414062 738.664062 285.277344 730.507812 282.367188 C 728.320312 281.589844 725.910156 282.136719 723.226562 282.921875 Z M 743.308594 297.894531 C 742.429688 293.863281 741.523438 289.691406 742.261719 285.789062 C 742.847656 282.703125 745.332031 280.070312 748.449219 279.238281 C 751.386719 278.460938 754.285156 279.4375 756.40625 281.921875 C 757.4375 283.132812 757.75 284.675781 758.003906 286.28125 C 759.425781 295.324219 760.066406 304.542969 759.898438 313.691406 C 759.875 314.972656 759.792969 316.214844 759.082031 317.261719 C 758.523438 318.09375 757.574219 318.726562 756.414062 319.046875 C 755.820312 319.210938 755.226562 319.289062 754.640625 319.289062 C 751.460938 319.289062 748.496094 317.050781 746.964844 314.445312 C 745.101562 311.273438 744.746094 307.507812 744.433594 304.179688 C 744.242188 302.179688 743.789062 300.097656 743.308594 297.894531 Z M 744.765625 297.578125 C 745.234375 299.726562 745.71875 301.949219 745.917969 304.039062 C 746.214844 307.210938 746.554688 310.804688 748.25 313.691406 C 749.773438 316.28125 752.9375 318.460938 756.011719 317.609375 C 756.832031 317.382812 757.480469 316.964844 757.847656 316.425781 C 758.328125 315.714844 758.382812 314.753906 758.402344 313.660156 C 758.570312 304.601562 757.9375 295.46875 756.527344 286.511719 C 756.308594 285.125 756.050781 283.804688 755.269531 282.890625 C 753.628906 280.964844 751.839844 280.46875 750.433594 280.46875 C 749.804688 280.46875 749.257812 280.566406 748.832031 280.683594 C 746.296875 281.355469 744.199219 283.570312 743.726562 286.066406 C 743.042969 289.671875 743.921875 293.691406 744.765625 297.578125 Z M 777.511719 305.636719 C 777.691406 306.628906 777.894531 307.753906 777.726562 308.886719 C 777.320312 311.628906 775.792969 313.640625 773.640625 314.277344 C 773.171875 314.414062 772.691406 314.480469 772.21875 314.480469 C 770.746094 314.480469 769.308594 313.828125 768.257812 312.628906 C 767.945312 312.273438 767.667969 311.820312 767.40625 311.246094 C 766.46875 309.183594 766 306 765.621094 303.4375 C 765.472656 302.429688 765.34375 301.53125 765.203125 300.867188 L 764.910156 299.515625 C 763.5 293.078125 760.871094 281.09375 767.632812 277.734375 C 769.171875 276.972656 771.371094 277.128906 772.390625 278.707031 C 772.78125 279.320312 772.90625 280 773.015625 280.601562 Z M 776.042969 305.902344 L 771.542969 280.867188 C 771.453125 280.382812 771.363281 279.878906 771.132812 279.515625 C 770.808594 279.011719 770.1875 278.785156 769.542969 278.785156 C 769.109375 278.785156 768.667969 278.886719 768.292969 279.070312 C 762.578125 281.914062 765.132812 293.589844 766.363281 299.199219 L 766.65625 300.5625 C 766.800781 301.25 766.941406 302.179688 767.09375 303.222656 C 767.457031 305.6875 767.914062 308.757812 768.761719 310.628906 C 768.957031 311.0625 769.164062 311.402344 769.375 311.644531 C 770.378906 312.785156 771.851562 313.246094 773.214844 312.84375 C 774.820312 312.375 775.925781 310.851562 776.25 308.667969 C 776.382812 307.777344 776.210938 306.824219 776.042969 305.902344 Z M 486.636719 297.390625 L 463.839844 295.003906 C 461.523438 294.761719 459.125 294.515625 456.738281 294.605469 C 452.433594 294.773438 448.21875 296.050781 444.542969 298.300781 C 444.191406 298.519531 444.082031 298.976562 444.296875 299.328125 C 444.4375 299.558594 444.679688 299.683594 444.933594 299.683594 C 445.066406 299.683594 445.199219 299.648438 445.320312 299.574219 C 448.777344 297.460938 452.746094 296.257812 456.796875 296.097656 C 459.078125 296.011719 461.421875 296.253906 463.695312 296.492188 L 486.484375 298.878906 C 486.878906 298.921875 487.261719 298.621094 487.300781 298.214844 C 487.34375 297.800781 487.046875 297.433594 486.636719 297.390625 Z M 673.261719 389.757812 C 672.855469 389.832031 672.585938 390.21875 672.660156 390.625 C 673.214844 393.761719 673.46875 396.96875 673.410156 400.160156 C 673.347656 403.398438 670.980469 406.199219 667.773438 406.824219 C 664.238281 407.511719 660.808594 407.539062 657.179688 407.570312 L 637.917969 407.738281 C 635.535156 407.761719 632.832031 407.78125 630.632812 406.636719 C 626.230469 404.347656 625.246094 398.421875 624.867188 392.929688 C 624.835938 392.519531 624.46875 392.203125 624.070312 392.238281 C 623.660156 392.269531 623.351562 392.621094 623.375 393.03125 C 623.789062 398.9375 624.886719 405.328125 629.941406 407.960938 C 632.140625 409.105469 634.714844 409.234375 636.945312 409.234375 C 637.285156 409.234375 637.613281 409.230469 637.929688 409.230469 L 657.191406 409.0625 C 660.890625 409.03125 664.382812 409 668.058594 408.285156 C 671.949219 407.53125 674.824219 404.125 674.898438 400.1875 C 674.960938 396.898438 674.699219 393.589844 674.125 390.359375 C 674.054688 389.957031 673.671875 389.6875 673.261719 389.757812 Z M 723.398438 404.804688 C 724.089844 403.777344 723.492188 391.292969 722.355469 388.523438 C 722.199219 388.144531 721.765625 387.960938 721.382812 388.121094 C 721 388.277344 720.820312 388.714844 720.976562 389.09375 C 722.132812 391.910156 722.324219 402.746094 722.105469 404.054688 C 721.847656 404.398438 721.511719 404.644531 721.1875 404.707031 C 711.417969 406.714844 704.6875 406.84375 696.988281 406.40625 C 696.304688 406.367188 695.570312 406.34375 694.828125 406.320312 C 692.632812 406.25 689.316406 406.148438 688.742188 405.382812 C 686.34375 402.199219 686.082031 397.554688 685.847656 393.457031 C 685.785156 392.34375 685.722656 391.269531 685.625 390.273438 C 685.582031 389.863281 685.203125 389.558594 684.808594 389.605469 C 684.398438 389.648438 684.097656 390.011719 684.140625 390.421875 C 684.238281 391.398438 684.296875 392.449219 684.359375 393.542969 C 684.605469 397.851562 684.882812 402.738281 687.554688 406.28125 C 688.558594 407.617188 691.582031 407.710938 694.78125 407.8125 C 695.511719 407.835938 696.234375 407.855469 696.90625 407.894531 C 699.167969 408.027344 701.34375 408.105469 703.539062 408.105469 C 708.933594 408.105469 714.433594 407.621094 721.488281 406.171875 C 722.21875 406.019531 722.917969 405.519531 723.398438 404.804688 Z M 766.023438 386.558594 C 765.664062 386.757812 765.535156 387.214844 765.738281 387.574219 C 767.496094 390.730469 768.277344 394.453125 767.945312 398.050781 C 767.808594 399.535156 767.414062 400.46875 766.730469 400.910156 C 766.34375 401.164062 765.816406 401.273438 765.304688 401.378906 C 761.476562 402.183594 758.03125 402.632812 754.042969 403.15625 L 752.675781 403.332031 C 748.648438 403.867188 737.769531 403.765625 736.882812 402.554688 C 735.011719 398.816406 734.660156 390.800781 734.59375 388.429688 C 734.582031 388.027344 734.253906 387.707031 733.847656 387.707031 C 733.84375 387.707031 733.835938 387.707031 733.828125 387.707031 C 733.414062 387.71875 733.09375 388.058594 733.101562 388.472656 C 733.1875 391.609375 733.597656 399.320312 735.546875 403.222656 C 736.3125 404.75 741.035156 405.117188 745.359375 405.117188 C 749.238281 405.117188 752.796875 404.824219 752.871094 404.816406 L 754.234375 404.636719 C 758.253906 404.109375 761.726562 403.65625 765.609375 402.839844 C 766.222656 402.710938 766.921875 402.566406 767.542969 402.164062 C 768.632812 401.457031 769.25 400.15625 769.429688 398.1875 C 769.792969 394.296875 768.941406 390.269531 767.039062 386.847656 C 766.839844 386.488281 766.382812 386.359375 766.023438 386.558594 Z M 408.660156 323.226562 C 408.261719 323.125 407.855469 323.367188 407.753906 323.761719 C 407.652344 324.164062 407.894531 324.566406 408.292969 324.667969 C 415.714844 326.574219 433.984375 334.34375 443.269531 365.292969 C 453.070312 397.945312 447.90625 434.558594 429.464844 463.226562 C 429.242188 463.574219 429.339844 464.035156 429.6875 464.257812 C 429.808594 464.339844 429.949219 464.375 430.089844 464.375 C 430.335938 464.375 430.574219 464.253906 430.71875 464.035156 C 449.394531 435.003906 454.621094 397.929688 444.699219 364.863281 C 435.195312 333.1875 416.332031 325.191406 408.660156 323.226562 Z M 131.910156 207.589844 C 131.742188 214.457031 127.394531 218.933594 123.421875 220.1875 C 122.582031 220.453125 121.742188 220.585938 120.933594 220.585938 C 119.386719 220.585938 117.945312 220.105469 116.789062 219.164062 C 115.113281 217.800781 113.242188 214.882812 113.859375 208.710938 C 114.203125 205.253906 115 200.945312 118.128906 198.320312 C 120.429688 196.390625 123.136719 196.019531 125.753906 197.277344 C 129.304688 198.988281 132.007812 203.515625 131.910156 207.589844 Z M 130.417969 207.550781 C 130.503906 204.019531 128.171875 200.097656 125.105469 198.621094 C 124.4375 198.300781 123.609375 198.035156 122.679688 198.035156 C 121.585938 198.035156 120.351562 198.398438 119.085938 199.460938 C 116.371094 201.738281 115.660156 205.679688 115.34375 208.855469 C 114.914062 213.15625 115.761719 216.40625 117.730469 218.003906 C 119.109375 219.125 120.972656 219.398438 122.972656 218.765625 C 126.457031 217.664062 130.269531 213.6875 130.417969 207.550781 Z M 363.824219 213.066406 C 363.429688 212.941406 363.011719 213.171875 362.894531 213.566406 C 360.84375 220.371094 357.121094 226.648438 352.132812 231.710938 C 351.773438 232.070312 351.414062 232.429688 351.046875 232.785156 C 349.605469 234.199219 348.113281 235.664062 347.046875 237.457031 C 345.621094 239.855469 345.085938 242.546875 344.578125 245.558594 C 340.683594 268.699219 340 292.03125 339.839844 309.773438 C 339.722656 322.683594 340.644531 330.335938 342.035156 341.917969 C 342.34375 344.460938 342.671875 347.1875 343.015625 350.199219 C 343.058594 350.578125 343.378906 350.859375 343.753906 350.859375 C 343.78125 350.859375 343.8125 350.855469 343.839844 350.855469 C 344.25 350.808594 344.542969 350.4375 344.496094 350.027344 C 344.152344 347.015625 343.824219 344.285156 343.515625 341.738281 C 342.132812 330.214844 341.214844 322.601562 341.332031 309.785156 C 341.492188 292.097656 342.171875 268.84375 346.050781 245.804688 C 346.535156 242.941406 347.039062 240.394531 348.328125 238.21875 C 349.300781 236.589844 350.65625 235.257812 352.09375 233.847656 C 352.464844 233.488281 352.832031 233.125 353.195312 232.757812 C 358.355469 227.523438 362.203125 221.035156 364.324219 213.992188 C 364.441406 213.601562 364.21875 213.1875 363.824219 213.066406 Z M 321.285156 335.292969 C 321.339844 335.304688 321.398438 335.3125 321.453125 335.3125 C 321.792969 335.3125 322.101562 335.078125 322.179688 334.734375 C 322.273438 334.332031 322.023438 333.933594 321.621094 333.835938 C 296.609375 327.988281 271.367188 321.351562 246.953125 314.929688 C 225.9375 309.40625 204.207031 303.691406 182.738281 298.511719 C 181.421875 298.195312 179.933594 297.835938 178.816406 297.007812 C 177.257812 295.855469 176.46875 293.894531 175.851562 291.949219 C 174.320312 287.125 173.515625 282.007812 172.738281 277.058594 C 172.109375 273.066406 171.460938 268.9375 170.429688 264.949219 C 168.785156 258.566406 164.503906 247.222656 154.308594 242.949219 C 154 242.820312 153.683594 242.695312 153.367188 242.570312 C 151.929688 242.003906 150.570312 241.472656 149.730469 240.398438 C 148.875 239.304688 148.679688 237.738281 148.566406 236.351562 C 146.933594 216.722656 155.34375 196.730469 170.507812 184.171875 C 170.828125 183.910156 170.871094 183.441406 170.609375 183.121094 C 170.34375 182.804688 169.875 182.757812 169.558594 183.023438 C 154.019531 195.890625 145.40625 216.371094 147.078125 236.476562 C 147.210938 238.078125 147.449219 239.902344 148.554688 241.320312 C 149.644531 242.714844 151.257812 243.347656 152.820312 243.964844 C 153.125 244.085938 153.429688 244.203125 153.730469 244.328125 C 163.332031 248.351562 167.40625 259.210938 168.984375 265.324219 C 169.996094 269.246094 170.640625 273.335938 171.261719 277.292969 C 172.050781 282.296875 172.863281 287.472656 174.429688 292.402344 C 175.089844 294.484375 176.019531 296.800781 177.929688 298.210938 C 179.289062 299.21875 180.933594 299.613281 182.386719 299.964844 C 203.84375 305.144531 225.566406 310.855469 246.574219 316.378906 C 270.996094 322.796875 296.25 329.4375 321.285156 335.292969 Z M 242.671875 201 C 242.289062 200.847656 241.855469 201.035156 241.703125 201.417969 C 228.933594 233.515625 231.804688 270.015625 235.5 301.707031 C 235.546875 302.085938 235.867188 302.363281 236.242188 302.363281 C 236.269531 302.363281 236.300781 302.363281 236.328125 302.359375 C 236.738281 302.3125 237.03125 301.941406 236.984375 301.53125 C 233.308594 270.019531 230.449219 233.742188 243.089844 201.96875 C 243.242188 201.585938 243.054688 201.152344 242.671875 201 Z M 256.898438 254.785156 C 256.867188 255.195312 257.171875 255.554688 257.582031 255.589844 C 277.613281 257.210938 297.535156 260.9375 316.796875 266.667969 C 316.871094 266.6875 316.941406 266.699219 317.011719 266.699219 C 317.335938 266.699219 317.632812 266.488281 317.726562 266.167969 C 317.84375 265.773438 317.617188 265.355469 317.222656 265.238281 C 297.863281 259.480469 277.835938 255.730469 257.703125 254.101562 C 257.304688 254.070312 256.933594 254.375 256.898438 254.785156 Z M 161.5625 231.777344 C 161.480469 232.183594 161.742188 232.578125 162.144531 232.660156 C 176.238281 235.558594 190.445312 238.914062 204.371094 242.632812 C 204.433594 242.648438 204.5 242.65625 204.5625 242.65625 C 204.890625 242.65625 205.195312 242.4375 205.28125 242.105469 C 205.386719 241.707031 205.152344 241.296875 204.753906 241.191406 C 190.800781 237.464844 176.566406 234.101562 162.441406 231.199219 C 162.042969 231.117188 161.648438 231.375 161.5625 231.777344 Z M 148.464844 274.746094 C 148.136719 274.992188 148.074219 275.460938 148.320312 275.789062 C 170.167969 304.640625 174.347656 345.953125 158.71875 378.59375 C 158.542969 378.96875 158.699219 379.414062 159.070312 379.589844 C 159.171875 379.640625 159.28125 379.664062 159.390625 379.664062 C 159.667969 379.664062 159.9375 379.507812 160.066406 379.238281 C 175.925781 346.109375 171.683594 304.171875 149.511719 274.890625 C 149.261719 274.5625 148.796875 274.496094 148.464844 274.746094 Z M 337.296875 373.902344 C 290.125 364.433594 242.644531 353.238281 196.171875 340.621094 C 195.777344 340.515625 195.367188 340.75 195.257812 341.148438 C 195.152344 341.546875 195.386719 341.953125 195.785156 342.0625 C 242.285156 354.6875 289.800781 365.894531 337.003906 375.367188 C 337.054688 375.375 337.101562 375.382812 337.152344 375.382812 C 337.5 375.382812 337.8125 375.136719 337.882812 374.78125 C 337.960938 374.378906 337.699219 373.984375 337.296875 373.902344 Z M 343.847656 115.734375 C 339.90625 109.246094 334.183594 103.59375 327.304688 99.394531 C 322.589844 96.511719 317.953125 94.539062 313.515625 93.53125 C 290.859375 88.371094 268.375 85.621094 248.5 85.574219 C 245.210938 85.566406 241.976562 85.515625 238.78125 85.46875 C 221.976562 85.214844 206.101562 84.976562 189.359375 90.933594 C 188.972656 91.074219 188.769531 91.5 188.90625 91.886719 C 189.046875 92.277344 189.472656 92.476562 189.859375 92.34375 C 206.347656 86.472656 222.09375 86.707031 238.757812 86.960938 C 241.957031 87.007812 245.199219 87.058594 248.496094 87.066406 C 268.261719 87.113281 290.632812 89.851562 313.183594 94.984375 C 317.460938 95.960938 321.949219 97.871094 326.527344 100.667969 C 333.207031 104.746094 338.753906 110.226562 342.574219 116.507812 C 361.152344 147.066406 374.808594 174.695312 386.859375 206.097656 C 386.972656 206.394531 387.257812 206.574219 387.554688 206.574219 C 387.644531 206.574219 387.734375 206.558594 387.824219 206.527344 C 388.207031 206.378906 388.398438 205.945312 388.253906 205.5625 C 376.167969 174.074219 362.472656 146.371094 343.847656 115.734375 Z M 343.847656 115.734375 " fill-opacity="1" fill-rule="nonzero"/><path fill="#1c3550" d="M 179.492188 208.601562 C 179.457031 209.992188 178.9375 211.039062 177.941406 211.722656 C 177.042969 212.339844 175.835938 212.582031 174.472656 212.582031 C 170.976562 212.582031 166.484375 210.976562 163.710938 209.984375 C 163.253906 209.820312 162.871094 209.683594 162.578125 209.585938 C 160.96875 209.050781 158.835938 207.824219 158.109375 206.125 C 157.757812 205.304688 157.769531 204.453125 158.144531 203.660156 C 158.679688 202.519531 160.101562 201.277344 163.800781 201.820312 C 164.328125 201.898438 165.03125 201.96875 165.847656 202.054688 C 171 202.574219 179.625 203.445312 179.492188 208.601562 Z M 263.097656 220.378906 C 259.808594 217.984375 254.976562 217.410156 251.097656 216.945312 L 249.855469 216.796875 C 248.289062 216.597656 246.640625 216.507812 245.164062 217.191406 C 243.605469 217.914062 242.308594 219.816406 242.929688 221.632812 C 243.453125 223.167969 245.09375 223.925781 245.972656 224.332031 C 250.003906 226.195312 254.1875 227.824219 258.410156 229.171875 C 259.730469 229.59375 260.976562 229.800781 262.085938 229.800781 C 264.195312 229.800781 265.8125 229.054688 266.527344 227.640625 C 267.378906 225.953125 266.925781 223.164062 263.097656 220.378906 Z M 263.097656 220.378906 " fill-opacity="1" fill-rule="nonzero"/></svg>