<?xml version="1.0" encoding="UTF-8"?>
<svg xmlns="http://www.w3.org/2000/svg" xmlns:xlink="http://www.w3.org/1999/xlink" width="588pt" height="371pt" viewBox="0 0 588 371" version="1.1">
<defs>
<clipPath id="clip1">
  <path d="M 0 0.5 L 587.25 0.5 L 587.25 314 L 0 314 Z M 0 0.5 "/>
</clipPath>
<clipPath id="clip2">
  <path d="M 98 224 L 246 224 L 246 370.25 L 98 370.25 Z M 98 224 "/>
</clipPath>
</defs>
<g id="surface1">
<rect x="0" y="0" width="588" height="371" style="fill:rgb(100%,100%,100%);fill-opacity:1;stroke:none;"/>
<rect x="0" y="0" width="588" height="371" style="fill:rgb(100%,100%,100%);fill-opacity:1;stroke:none;"/>
<g clip-path="url(#clip1)" clip-rule="nonzero">
<path style=" stroke:none;fill-rule:nonzero;fill:rgb(17.649841%,27.449036%,46.269226%);fill-opacity:1;" d="M 575.9375 219.671875 C 561.082031 169.644531 523.191406 129.277344 470.191406 125.5625 C 436.015625 44.335938 359.988281 -8.910156 269.347656 1.984375 C 205.703125 9.414062 121.253906 53.746094 117.042969 123.085938 C 69.496094 143.394531 25.660156 175.09375 8.078125 226.109375 C 0.894531 247.160156 -4.058594 276.878906 5.105469 298.175781 C 15.753906 322.445312 44.976562 310.558594 65.78125 307.832031 C 84.601562 305.355469 84.601562 275.640625 65.78125 278.117188 C 54.636719 279.601562 42.75 282.324219 31.355469 282.820312 C 21.699219 254.339844 42.75 214.71875 60.332031 195.152344 C 78.164062 175.339844 101.441406 161.71875 125.960938 151.320312 C 135.121094 153.796875 147.753906 146.117188 146.019531 133.242188 C 136.609375 64.144531 251.023438 27.988281 300.800781 29.96875 C 368.410156 32.695312 420.664062 79.003906 444.1875 139.925781 C 445.921875 144.632812 449.390625 147.605469 453.351562 148.84375 C 455.828125 152.0625 459.296875 154.539062 464.746094 154.785156 C 498.671875 155.777344 525.417969 177.570312 539.78125 207.289062 C 546.714844 221.402344 561.328125 263.007812 557.367188 283.5625 C 549.6875 283.070312 542.011719 281.582031 534.335938 280.59375 C 515.511719 278.363281 515.511719 308.082031 534.335938 310.308594 C 552.660156 312.539062 576.1875 320.214844 584.359375 298.421875 C 592.035156 278.363281 581.882812 239.234375 575.9375 219.671875 Z M 575.9375 219.671875 "/>
</g>
<g clip-path="url(#clip2)" clip-rule="nonzero">
<path style=" stroke:none;fill-rule:nonzero;fill:rgb(17.649841%,27.449036%,46.269226%);fill-opacity:1;" d="M 174.003906 226.355469 C 172.765625 226.109375 171.773438 226.355469 170.785156 226.605469 C 170.039062 226.355469 169.792969 226.109375 169.050781 225.863281 C 125.710938 217.195312 100.699219 256.074219 98.71875 294.957031 C 96.488281 339.039062 126.949219 367.023438 169.546875 369.992188 C 210.65625 372.71875 246.070312 351.421875 245.574219 306.84375 C 245.078125 266.722656 213.132812 231.804688 174.003906 226.355469 Z M 183.167969 340.277344 C 161.125 341.515625 134.625 336.066406 129.179688 311.054688 C 124.96875 291.242188 131.902344 248.644531 160.878906 254.339844 C 162.117188 254.589844 163.105469 254.339844 164.34375 254.339844 C 164.839844 254.589844 165.335938 254.835938 165.832031 254.835938 C 185.644531 257.5625 202.484375 268.210938 211.152344 286.785156 C 222.789062 311.796875 212.390625 338.789062 183.167969 340.277344 Z M 183.167969 340.277344 "/>
</g>
<path style=" stroke:none;fill-rule:nonzero;fill:rgb(17.649841%,27.449036%,46.269226%);fill-opacity:1;" d="M 323.582031 283.316406 C 306.25 284.308594 288.914062 285.296875 271.578125 286.289062 C 252.507812 287.527344 252.507812 317.246094 271.578125 316.007812 C 288.914062 315.015625 306.25 314.023438 323.582031 313.035156 C 342.40625 311.796875 342.652344 282.078125 323.582031 283.316406 Z M 323.582031 283.316406 "/>
<path style=" stroke:none;fill-rule:nonzero;fill:rgb(17.649841%,27.449036%,46.269226%);fill-opacity:1;" d="M 444.683594 215.957031 C 443.941406 215.957031 443.445312 216.203125 442.703125 216.203125 C 407.042969 208.773438 368.410156 228.585938 357.757812 264.742188 C 345.625 305.851562 369.894531 349.4375 410.507812 362.070312 C 449.140625 374.203125 498.175781 357.859375 503.378906 313.28125 C 507.835938 274.648438 490.746094 217.441406 444.683594 215.957031 Z M 473.90625 309.566406 C 470.191406 339.039062 431.558594 342.007812 409.765625 330.121094 C 362.464844 304.117188 389.457031 229.328125 442.703125 246.910156 C 445.675781 247.902344 448.152344 247.65625 450.628906 247.160156 C 470.441406 253.847656 475.886719 292.726562 473.90625 309.566406 Z M 473.90625 309.566406 "/>
<path style=" stroke:none;fill-rule:nonzero;fill:rgb(17.649841%,27.449036%,46.269226%);fill-opacity:1;" d="M 359.492188 91.386719 C 299.3125 28.730469 191.835938 78.261719 187.375 159.738281 C 187.128906 162.957031 188.863281 164.941406 190.84375 165.929688 C 191.835938 168.40625 194.0625 170.140625 197.28125 170.140625 C 232.695312 169.398438 268.359375 168.65625 303.773438 167.664062 C 319.871094 167.167969 363.703125 174.351562 376.332031 162.957031 C 395.402344 146.117188 372.371094 105.007812 359.492188 91.386719 Z M 353.550781 151.320312 C 346.367188 151.566406 339.433594 151.8125 332.25 152.0625 C 318.136719 152.558594 303.773438 153.050781 289.65625 153.300781 C 260.679688 154.042969 231.707031 154.785156 202.730469 155.28125 C 206.199219 121.351562 226.257812 95.101562 259.691406 84.453125 C 293.867188 73.558594 361.472656 82.472656 363.457031 130.019531 C 371.132812 141.414062 367.914062 148.347656 353.550781 151.320312 Z M 353.550781 151.320312 "/>
</g>
</svg>
