<svg xmlns="http://www.w3.org/2000/svg" xmlns:xlink="http://www.w3.org/1999/xlink" width="1000" zoomAndPan="magnify" viewBox="0 0 750 449.999984" height="600" preserveAspectRatio="xMidYMid meet" version="1.0"><defs><g/><clipPath id="35bb911773"><path d="M 293 36 L 629.914062 36 L 629.914062 263.261719 L 293 263.261719 Z M 293 36 " clip-rule="nonzero"/></clipPath><clipPath id="2d81fbf436"><path d="M 181 298 L 564 298 L 564 360 L 181 360 Z M 181 298 " clip-rule="nonzero"/></clipPath><clipPath id="b6045f2863"><path d="M 341.496094 132.988281 L 575.640625 325.304688 L 411.882812 524.671875 L 177.742188 332.355469 Z M 341.496094 132.988281 " clip-rule="nonzero"/></clipPath><clipPath id="2583059669"><path d="M 341.496094 132.988281 L 575.640625 325.304688 L 411.882812 524.671875 L 177.742188 332.355469 Z M 341.496094 132.988281 " clip-rule="nonzero"/></clipPath><clipPath id="e8afeecd52"><path d="M 270 321 L 460 321 L 460 330 L 270 330 Z M 270 321 " clip-rule="nonzero"/></clipPath><clipPath id="86e7ff01e8"><path d="M 341.496094 132.988281 L 575.640625 325.304688 L 411.882812 524.671875 L 177.742188 332.355469 Z M 341.496094 132.988281 " clip-rule="nonzero"/></clipPath><clipPath id="2ab8b91c78"><path d="M 341.496094 132.988281 L 575.640625 325.304688 L 411.882812 524.671875 L 177.742188 332.355469 Z M 341.496094 132.988281 " clip-rule="nonzero"/></clipPath><clipPath id="d428d3f8c6"><path d="M 264 304 L 460 304 L 460 354 L 264 354 Z M 264 304 " clip-rule="nonzero"/></clipPath><clipPath id="3dc13eb8b7"><path d="M 341.496094 132.988281 L 575.640625 325.304688 L 411.882812 524.671875 L 177.742188 332.355469 Z M 341.496094 132.988281 " clip-rule="nonzero"/></clipPath><clipPath id="9f726965bc"><path d="M 341.496094 132.988281 L 575.640625 325.304688 L 411.882812 524.671875 L 177.742188 332.355469 Z M 341.496094 132.988281 " clip-rule="nonzero"/></clipPath><clipPath id="70eb9e3009"><path d="M 201 301 L 560 301 L 560 357 L 201 357 Z M 201 301 " clip-rule="nonzero"/></clipPath><clipPath id="d7da7b84c3"><path d="M 341.496094 132.988281 L 575.640625 325.304688 L 411.882812 524.671875 L 177.742188 332.355469 Z M 341.496094 132.988281 " clip-rule="nonzero"/></clipPath><clipPath id="213c2d7c74"><path d="M 341.496094 132.988281 L 575.640625 325.304688 L 411.882812 524.671875 L 177.742188 332.355469 Z M 341.496094 132.988281 " clip-rule="nonzero"/></clipPath><clipPath id="c2cde02a7b"><path d="M 185 326 L 200 326 L 200 336 L 185 336 Z M 185 326 " clip-rule="nonzero"/></clipPath><clipPath id="4a1def4c04"><path d="M 341.496094 132.988281 L 575.640625 325.304688 L 411.882812 524.671875 L 177.742188 332.355469 Z M 341.496094 132.988281 " clip-rule="nonzero"/></clipPath><clipPath id="04f7900d12"><path d="M 341.496094 132.988281 L 575.640625 325.304688 L 411.882812 524.671875 L 177.742188 332.355469 Z M 341.496094 132.988281 " clip-rule="nonzero"/></clipPath><clipPath id="c019e4dca3"><path d="M 97 36 L 433.515625 36 L 433.515625 263.261719 L 97 263.261719 Z M 97 36 " clip-rule="nonzero"/></clipPath></defs><rect x="-75" width="900" fill="#ffffff" y="-44.999998" height="539.99998" fill-opacity="1"/><rect x="-75" width="900" fill="#ffffff" y="-44.999998" height="539.99998" fill-opacity="1"/><rect x="-75" width="900" fill="#ffffff" y="-44.999998" height="539.99998" fill-opacity="1"/><rect x="-75" width="900" fill="#f1e4b2" y="-44.999998" height="539.99998" fill-opacity="1"/><g clip-path="url(#35bb911773)"><path fill="#ffc629" d="M 453.019531 56.085938 C 456.980469 56.625 460.472656 54.8125 464.097656 53.738281 C 471.148438 51.722656 478.265625 49.707031 485.316406 47.625 C 488.136719 46.75 490.757812 46.683594 492.972656 48.765625 C 495.121094 50.78125 497.402344 50.445312 499.820312 49.636719 C 504.992188 47.960938 510.160156 46.078125 515.332031 44.464844 C 523.390625 41.980469 531.449219 39.496094 539.570312 37.277344 C 546.824219 35.261719 552.867188 37.34375 557.703125 43.863281 C 560.386719 43.59375 563.410156 43.457031 566.296875 42.855469 C 576.234375 40.839844 581.671875 48.496094 579.660156 57.699219 C 579.324219 59.246094 578.515625 60.65625 577.914062 62.132812 C 580.664062 63.613281 582.816406 62.269531 585.097656 61.460938 C 593.289062 58.574219 601.546875 55.683594 609.808594 52.863281 C 611.890625 52.125 613.972656 51.386719 616.121094 51.183594 C 619.074219 50.914062 622.09375 51.117188 625.25 51.117188 C 626.796875 53.265625 628.207031 55.214844 629.480469 56.894531 C 629.414062 63.277344 626.527344 67.507812 621.691406 70.730469 C 617.664062 73.417969 613.769531 76.441406 609.671875 79.398438 C 611.417969 82.691406 613.097656 85.644531 614.640625 88.667969 C 616.386719 91.960938 614.976562 94.984375 613.636719 97.535156 C 615.785156 100.625 617.933594 103.113281 619.410156 105.933594 C 621.625 110.164062 620.953125 113.1875 616.925781 115.875 C 611.015625 119.773438 604.90625 123.332031 598.726562 126.824219 C 596.78125 127.898438 594.832031 128.773438 593.625 131.125 C 596.042969 133.476562 598.660156 135.691406 600.945312 138.246094 C 604.703125 142.410156 604.503906 146.238281 600.542969 150.40625 C 595.4375 155.710938 589.664062 160.28125 583.351562 164.109375 C 578.046875 167.332031 572.808594 170.828125 567.167969 174.386719 C 569.117188 176.132812 570.726562 177.410156 572.136719 178.820312 C 573.617188 180.367188 574.890625 182.179688 576.234375 183.792969 C 577.644531 185.472656 577.578125 187.417969 577.039062 189.234375 C 576.300781 191.515625 575.09375 193.667969 573.882812 196.285156 C 576.839844 196.757812 579.1875 194.941406 581.742188 194.539062 C 584.15625 194.136719 586.574219 193.867188 589.058594 193.53125 C 591.746094 196.554688 594.230469 199.378906 596.914062 202.46875 C 597.316406 207.574219 595.304688 211.671875 590.871094 214.695312 C 579.253906 222.753906 567.707031 231.015625 555.957031 239.011719 C 547.628906 244.722656 538.96875 249.894531 530.640625 255.605469 C 524.195312 259.972656 517.347656 262.925781 509.355469 263.261719 C 503.445312 258.492188 503.445312 258.492188 506.671875 250.835938 C 505.058594 251.238281 503.78125 251.304688 502.640625 251.84375 C 499.886719 253.050781 497.269531 254.53125 494.582031 255.875 C 493.105469 256.613281 491.628906 257.351562 490.085938 257.753906 C 478.738281 260.980469 474.640625 258.761719 470.746094 251.171875 C 471.550781 248.953125 472.359375 246.667969 473.230469 244.386719 C 473.96875 242.503906 474.910156 240.691406 476.253906 237.9375 C 470.949219 239.617188 467.121094 242.167969 462.957031 244.050781 C 459.667969 245.527344 456.378906 246.46875 452.75 246.535156 C 448.722656 246.601562 445.097656 246.066406 443.082031 241.96875 C 442.613281 241.027344 441.671875 240.355469 440.867188 239.480469 C 441.941406 236.792969 443.082031 234.109375 444.089844 231.488281 C 457.71875 222.890625 471.285156 214.222656 484.914062 205.757812 C 498.277344 197.429688 511.90625 189.433594 525.203125 180.769531 C 523.523438 178.820312 522.316406 179.894531 521.308594 180.433594 C 507.476562 187.554688 493.710938 194.675781 479.945312 201.863281 C 471.484375 206.296875 463.160156 210.929688 454.699219 215.363281 C 435.628906 225.441406 417.097656 236.457031 398.898438 247.945312 C 394.667969 250.632812 390.304688 252.714844 385.402344 253.589844 C 382.113281 254.195312 379.089844 253.925781 376.941406 250.363281 C 376.003906 248.753906 373.519531 248.082031 371.773438 246.9375 C 367.476562 249.425781 363.511719 251.84375 359.484375 254.058594 C 356.796875 255.539062 353.976562 256.074219 350.824219 255.539062 C 347.667969 255 345.988281 252.984375 345.046875 250.433594 C 344.039062 247.746094 344.511719 245.058594 346.859375 243.042969 C 349.144531 241.09375 351.359375 239.144531 353.84375 237.464844 C 364.722656 230.210938 375.867188 223.359375 387.214844 216.84375 C 403.265625 207.574219 418.84375 197.496094 434.621094 187.824219 C 443.957031 182.113281 453.289062 176.535156 462.6875 170.960938 C 480.75 160.28125 498.949219 149.800781 517.011719 139.117188 C 518.757812 138.109375 521.242188 137.574219 521.578125 134.886719 C 524.867188 134.347656 525.402344 133.8125 525.402344 130.921875 C 525.875 131.058594 526.34375 131.191406 526.8125 131.328125 C 526.34375 131.191406 525.941406 131.058594 525.472656 130.855469 L 521.710938 135.019531 C 520.234375 135.492188 518.554688 135.761719 517.210938 136.5 C 488.472656 152.6875 459.667969 168.8125 431.0625 185.269531 C 410.984375 196.824219 391.175781 208.917969 371.234375 220.671875 C 363.984375 224.972656 356.53125 229.003906 349.144531 233.167969 C 348.203125 233.703125 347.265625 234.242188 346.257812 234.644531 C 339.003906 237.464844 335.246094 237.800781 330.542969 229.472656 C 334.101562 226.382812 333.96875 220.402344 339.339844 218.65625 C 338.601562 215.433594 337.125 212.542969 337.460938 209.855469 C 337.796875 207.101562 339.945312 204.550781 341.421875 201.660156 C 340.683594 200.117188 338.804688 201.054688 337.460938 200.453125 C 335.984375 199.78125 334.171875 199.578125 333.027344 198.570312 C 331.886719 197.628906 331.28125 195.949219 330.410156 194.472656 C 331.617188 192.457031 332.625 190.507812 333.902344 188.832031 C 335.042969 187.351562 336.386719 185.875 337.929688 184.933594 C 360.558594 171.765625 383.253906 158.734375 405.949219 145.703125 C 425.085938 134.683594 444.222656 123.601562 463.425781 112.71875 C 476.453125 105.328125 489.613281 98.074219 502.640625 90.683594 C 506.671875 88.398438 510.566406 85.914062 514.390625 83.292969 C 515.871094 82.285156 516.945312 80.605469 518.21875 79.195312 C 518.488281 79.128906 518.757812 79.0625 518.957031 78.929688 C 519.09375 78.859375 519.226562 78.59375 519.292969 78.457031 C 518.957031 78.792969 518.6875 79.0625 518.355469 79.398438 C 516.742188 79.53125 514.996094 79.265625 513.585938 79.867188 C 507.273438 82.421875 500.960938 84.972656 494.785156 87.863281 C 478.804688 95.386719 462.757812 102.976562 446.910156 110.835938 C 437.644531 115.40625 428.644531 120.511719 419.511719 125.414062 C 398.898438 136.566406 378.285156 147.652344 357.671875 158.867188 C 348.605469 163.839844 339.609375 168.945312 330.542969 173.917969 C 327.925781 175.328125 325.238281 176.671875 322.417969 177.746094 C 315.570312 180.433594 314.496094 180.03125 309.460938 173.582031 C 309.394531 170.960938 310.667969 169.011719 312.816406 167.535156 C 315.773438 165.519531 318.523438 163.234375 321.613281 161.554688 C 337.394531 152.957031 353.238281 144.492188 369.019531 135.894531 C 373.316406 133.542969 377.414062 130.789062 381.777344 128.570312 C 402.054688 118.09375 422.535156 107.8125 442.746094 97.199219 C 457.453125 89.476562 471.957031 81.414062 486.59375 73.488281 C 487.734375 72.882812 489.078125 72.144531 488.472656 70.394531 C 489.078125 70.394531 489.683594 70.394531 490.285156 70.394531 C 490.152344 70.261719 490.019531 69.992188 489.949219 69.992188 C 489.480469 70.128906 489.078125 70.328125 488.609375 70.53125 C 478.871094 74.832031 469 78.726562 459.398438 83.160156 C 442.613281 90.953125 426.09375 99.214844 409.777344 108.015625 C 391.582031 117.824219 373.449219 127.632812 355.457031 137.773438 C 345.519531 143.351562 335.847656 149.53125 326.113281 155.375 C 320.539062 158.734375 315.167969 157.59375 311.339844 152.21875 C 309.929688 150.269531 310.066406 148.320312 312.078125 146.375 C 315.367188 143.148438 318.996094 140.328125 322.957031 137.976562 C 335.3125 130.519531 347.53125 122.996094 359.820312 115.339844 C 362.101562 113.925781 364.050781 112.113281 366.199219 110.433594 C 366.601562 110.234375 367.003906 110.097656 367.40625 109.964844 L 366.667969 109.425781 C 366.601562 109.828125 366.46875 110.234375 366.402344 110.636719 C 365.328125 110.636719 364.183594 110.367188 363.246094 110.703125 C 360.15625 111.84375 357.132812 113.054688 354.246094 114.53125 C 340.75 121.183594 327.386719 127.898438 313.957031 134.550781 C 311.273438 135.894531 308.519531 137.171875 305.632812 137.707031 C 301.335938 138.582031 297.574219 137.171875 294.820312 133.542969 C 293.546875 131.863281 293.34375 129.984375 294.554688 128.234375 C 296.367188 125.550781 298.3125 123.0625 301.535156 121.585938 C 323.695312 111.574219 344.109375 98.476562 365.257812 86.652344 C 383.054688 76.710938 400.847656 66.632812 418.640625 56.558594 C 423.339844 53.871094 428.042969 51.117188 432.808594 48.5625 C 438.652344 45.40625 445.03125 44.0625 451.542969 43.191406 C 453.757812 42.921875 455.839844 42.988281 457.71875 44.464844 C 461.347656 47.289062 461.480469 50.445312 457.921875 53.199219 C 456.445312 54.339844 454.765625 55.214844 453.222656 56.222656 C 452.953125 56.289062 452.75 56.355469 452.484375 56.492188 C 452.347656 56.558594 452.28125 56.757812 452.148438 56.960938 C 452.484375 56.691406 452.75 56.421875 453.019531 56.085938 " fill-opacity="1" fill-rule="nonzero"/></g><g clip-path="url(#2d81fbf436)"><g clip-path="url(#b6045f2863)"><g clip-path="url(#2583059669)"><path fill="#ffc629" d="M 556.546875 347.664062 C 553.613281 350.714844 550.234375 353.003906 545.367188 353.070312 C 528.839844 353.324219 512.328125 354.074219 495.8125 354.609375 C 494.410156 354.652344 493 354.375 491.300781 354.222656 C 491.441406 354.128906 491.183594 354.203125 491.140625 354.347656 C 490.144531 357.277344 487.960938 358.457031 485.03125 358.714844 C 476.066406 359.539062 467.089844 359.675781 458.101562 359.402344 C 455.804688 359.332031 454.042969 358.054688 452.300781 356.742188 C 451.695312 356.292969 450.898438 355.804688 450.191406 355.816406 C 440.378906 355.914062 430.582031 356.234375 420.777344 356.234375 C 380.5 356.203125 340.207031 356.191406 299.933594 357.09375 C 289.730469 357.320312 279.507812 356.476562 269.292969 356.046875 C 268.222656 356 267.136719 355.550781 266.101562 355.183594 C 264.929688 354.78125 264.027344 354.34375 263.1875 355.941406 C 262.792969 356.679688 261.300781 357.109375 260.277344 357.175781 C 256.054688 357.453125 251.816406 357.550781 247.582031 357.679688 C 243.660156 357.796875 239.730469 357.980469 235.808594 357.894531 C 233.050781 357.832031 230.253906 357.578125 227.570312 356.980469 C 226.164062 356.660156 224.753906 355.640625 223.707031 354.566406 C 220.03125 350.804688 216.433594 346.957031 212.972656 343.003906 C 211.769531 341.640625 210.636719 340.859375 208.769531 341.132812 C 207.242188 341.347656 205.683594 341.324219 204.125 341.316406 C 201.375 341.304688 201.117188 341.078125 200.199219 338.1875 C 198.320312 338.292969 196.367188 338.601562 194.433594 338.480469 C 191.773438 338.316406 189.050781 338.140625 186.535156 337.394531 C 183.058594 336.359375 181.332031 333.453125 181.929688 330.289062 C 182.65625 326.445312 184.707031 324.246094 188.527344 324.140625 C 190.902344 324.074219 193.269531 324.019531 195.652344 324.003906 C 196.707031 323.992188 197.617188 323.976562 198.273438 322.863281 C 199.351562 321.050781 201.117188 320.621094 203.117188 320.976562 C 207.753906 321.800781 211.238281 320.734375 214.007812 316.351562 C 216.679688 312.117188 220.417969 308.546875 223.648438 304.648438 C 224.742188 303.335938 225.84375 302.863281 227.269531 304.046875 C 228.195312 302.972656 229.386719 302.707031 230.792969 302.710938 C 239.578125 302.738281 248.355469 302.625 257.132812 302.695312 C 261.277344 302.730469 263.171875 303.046875 264.636719 304.960938 C 264.996094 304.96875 265.359375 304.949219 265.726562 304.929688 C 265.691406 304.859375 265.644531 304.789062 265.613281 304.714844 C 266.449219 303.234375 267.820312 303.617188 268.972656 303.5625 C 277.644531 303.226562 286.308594 302.824219 294.988281 302.644531 C 327.097656 301.953125 359.21875 301.105469 391.332031 300.785156 C 408.78125 300.605469 426.242188 301.34375 443.683594 301.769531 C 445.320312 301.808594 446.480469 301.503906 447.328125 300.105469 C 448.285156 298.515625 449.769531 298.003906 451.542969 298.023438 C 462.484375 298.121094 473.441406 297.976562 484.316406 299.542969 C 486.089844 299.800781 487.800781 300.25 489.003906 301.648438 C 489.15625 301.835938 489.238281 302.085938 489.289062 302.355469 C 490.046875 302.429688 490.804688 302.507812 491.59375 302.546875 C 491.570312 302.515625 491.546875 302.492188 491.523438 302.460938 C 491.949219 302.097656 492.347656 301.683594 492.820312 301.386719 C 493.046875 301.238281 493.429688 301.328125 493.734375 301.304688 C 509.425781 300.425781 525.117188 300.414062 540.816406 300.964844 C 544.5625 301.097656 547.648438 302.832031 550.238281 305.183594 C 557.074219 311.40625 561.589844 319.03125 562.910156 328.328125 C 563.941406 335.832031 561.660156 342.34375 556.546875 347.664062 Z M 556.546875 347.664062 " fill-opacity="1" fill-rule="nonzero"/></g></g></g><g clip-path="url(#e8afeecd52)"><g clip-path="url(#86e7ff01e8)"><g clip-path="url(#2ab8b91c78)"><path fill="#ffc629" d="M 458.414062 324.089844 C 458.574219 324.871094 458.890625 325.617188 459.039062 326.117188 C 458.320312 326.496094 458.234375 326.578125 458.144531 326.578125 C 398.550781 326.984375 338.945312 326.695312 279.363281 328.578125 C 279.054688 328.585938 278.746094 328.589844 278.433594 328.605469 C 278.226562 328.617188 278.015625 328.628906 277.820312 328.664062 C 277.625 328.699219 277.414062 328.753906 277.21875 328.820312 C 277.132812 328.855469 277.058594 328.945312 277.007812 329.027344 C 276.96875 329.070312 276.960938 329.136719 276.902344 329.300781 L 271.558594 329.339844 C 271.417969 327.347656 271.164062 325.363281 270.8125 323.390625 L 277.953125 323.238281 C 277.882812 323.300781 277.816406 323.367188 277.738281 323.441406 C 278.953125 323.679688 279.617188 323.90625 280.304688 323.941406 C 283.289062 324.074219 286.292969 324.265625 289.277344 324.230469 C 305.695312 324.054688 322.113281 323.878906 338.53125 323.613281 C 370.75 323.085938 402.972656 322.945312 435.191406 323.601562 C 438.289062 323.660156 441.382812 323.515625 444.476562 323.40625 C 445.492188 323.375 446.546875 323.289062 447.171875 322.070312 L 457.816406 321.730469 C 458.050781 322.5 458.242188 323.28125 458.414062 324.089844 Z M 458.414062 324.089844 " fill-opacity="1" fill-rule="nonzero"/></g></g></g><g clip-path="url(#d428d3f8c6)"><g clip-path="url(#3dc13eb8b7)"><g clip-path="url(#9f726965bc)"><path fill="#ffc629" d="M 277.960938 323.226562 L 270.820312 323.382812 C 269.964844 318.601562 268.539062 313.867188 266.730469 309.195312 C 265.980469 307.277344 265.355469 305.933594 264.621094 304.980469 C 264.980469 304.984375 265.34375 304.96875 265.710938 304.949219 C 266.472656 306.332031 267.886719 305.992188 269.0625 305.988281 C 284.761719 305.796875 300.457031 305.484375 316.152344 305.335938 C 344.140625 305.050781 372.128906 304.796875 400.117188 304.632812 C 416.019531 304.550781 431.910156 305.941406 447.820312 305.089844 C 448.878906 305.035156 449.542969 305.414062 450.148438 306.246094 C 453.589844 311 456.285156 316.089844 457.824219 321.722656 L 447.175781 322.058594 C 447.21875 321.972656 447.269531 321.910156 447.304688 321.816406 C 446.578125 321.570312 446.019531 321.230469 445.460938 321.226562 C 389.910156 319.796875 334.375 321.667969 278.820312 322.417969 C 278.636719 322.421875 278.464844 322.703125 277.960938 323.226562 Z M 455.015625 349.847656 C 459.238281 343.414062 459.429688 336.308594 459.121094 328.867188 C 454.410156 328.925781 449.914062 329.039062 445.402344 329.046875 C 414.925781 329.09375 384.453125 329.007812 353.984375 329.195312 C 331.78125 329.335938 309.574219 329.832031 287.371094 330.140625 C 284.585938 330.1875 281.800781 330.140625 279 330.074219 C 278.265625 330.058594 277.53125 329.789062 276.785156 329.628906 C 276.828125 329.484375 276.867188 329.378906 276.890625 329.296875 L 271.546875 329.332031 C 271.902344 334.371094 271.558594 339.484375 270.253906 344.660156 C 269.488281 347.699219 268.039062 350.574219 266.789062 353.792969 C 267.707031 353.820312 268.800781 353.898438 269.894531 353.871094 C 290.550781 353.566406 311.207031 353.144531 331.855469 352.957031 C 360.667969 352.695312 389.492188 352.609375 418.3125 352.449219 C 429.054688 352.386719 439.796875 352.296875 450.539062 352.339844 C 452.667969 352.359375 453.859375 351.625 455.015625 349.847656 Z M 455.015625 349.847656 " fill-opacity="1" fill-rule="nonzero"/></g></g></g><g clip-path="url(#70eb9e3009)"><g clip-path="url(#d7da7b84c3)"><g clip-path="url(#213c2d7c74)"><path fill="#000000" d="M 487.609375 303.460938 C 486.460938 301.941406 484.972656 302.234375 483.410156 302.195312 C 474.636719 301.992188 465.867188 301.691406 457.101562 301.417969 C 454.664062 301.339844 452.222656 301.246094 449.179688 301.140625 C 453.863281 304.957031 456.390625 309.476562 458.546875 314.207031 C 462.894531 323.75 463.734375 333.6875 461.375 343.863281 C 460.53125 347.496094 459.410156 351.0625 455.925781 353.234375 C 455.398438 353.558594 455.171875 354.371094 454.539062 355.382812 C 456.121094 355.695312 457.382812 356.1875 458.632812 356.167969 C 467.519531 355.992188 476.398438 355.71875 485.265625 355.453125 C 485.957031 355.429688 486.777344 355.390625 487.308594 355.023438 C 492.476562 351.535156 492.453125 351.472656 498.503906 351.164062 C 514.289062 350.375 530.074219 349.621094 545.859375 348.847656 C 550.890625 348.597656 550.886719 348.582031 554.085938 344.691406 C 558.734375 339.03125 560.332031 332.6875 558.335938 325.558594 C 556.421875 318.742188 552.863281 312.890625 547.535156 308.199219 C 545.136719 306.089844 542.375 304.945312 539.082031 304.921875 C 526.6875 304.824219 514.296875 304.640625 501.910156 304.457031 C 499.539062 304.421875 497.160156 304.285156 494.800781 304.152344 C 494.085938 304.113281 493.320312 304.027344 492.683594 303.730469 C 492.222656 303.519531 491.925781 302.972656 491.566406 302.558594 C 490.78125 302.519531 490.023438 302.441406 489.265625 302.367188 C 489.335938 302.742188 489.355469 303.164062 489.4375 303.523438 C 488.816406 303.527344 487.839844 303.769531 487.609375 303.460938 Z M 545.859375 339.585938 C 544.746094 339.792969 543.605469 339.964844 542.480469 339.949219 C 530.511719 339.808594 518.53125 339.625 506.566406 339.425781 C 505.777344 339.410156 505 339.230469 503.640625 339.054688 C 505.121094 337.492188 506.417969 337.816406 507.570312 337.777344 C 533.65625 337.070312 543.9375 337.308594 547.128906 338.761719 C 546.613281 339.113281 546.269531 339.511719 545.859375 339.585938 Z M 550.257812 325.582031 C 549.550781 327.089844 548.519531 327.035156 547.710938 327.097656 C 543.394531 327.417969 539.074219 327.796875 534.753906 327.902344 C 525.683594 328.109375 516.613281 328.175781 507.550781 328.285156 C 506.769531 328.296875 505.980469 328.148438 504.792969 328.023438 C 505.761719 326.195312 507.050781 326.496094 508.0625 326.445312 C 514.140625 326.195312 520.214844 326.027344 526.296875 325.851562 C 532.574219 325.671875 538.863281 325.484375 545.148438 325.355469 C 546.726562 325.335938 548.308594 325.496094 550.257812 325.582031 Z M 502.421875 315.367188 C 516.027344 315.234375 529.640625 315.089844 543.25 314.988281 C 544.164062 314.980469 545.097656 315.15625 546.003906 315.292969 C 546.140625 315.3125 546.234375 315.585938 546.550781 316.03125 C 545.929688 316.324219 545.382812 316.769531 544.796875 316.820312 C 543.152344 316.96875 541.492188 317.015625 539.851562 317 C 528.390625 316.867188 516.941406 316.726562 505.476562 316.5625 C 504.394531 316.550781 503.308594 316.355469 502.347656 316.25 C 502.246094 315.785156 502.199219 315.671875 502.226562 315.585938 C 502.25 315.484375 502.363281 315.367188 502.421875 315.367188 Z M 493.589844 309.039062 C 496.332031 314.554688 498 320.378906 498.308594 326.5625 C 498.6875 334.03125 497.183594 341.132812 494.085938 347.914062 C 493.03125 350.230469 492.800781 350.421875 490.683594 351.078125 C 490.191406 349.386719 491.203125 348.078125 491.804688 346.738281 C 494.285156 341.222656 495.816406 335.492188 496.035156 329.410156 C 496.277344 322.664062 494.832031 316.292969 492.09375 310.160156 C 491.664062 309.203125 491.300781 308.207031 490.804688 306.980469 C 492.863281 306.820312 493.144531 308.144531 493.589844 309.039062 Z M 227.226562 304.101562 C 228.277344 305.222656 229.550781 305.574219 231.089844 305.605469 C 239.4375 305.792969 247.789062 306.085938 256.144531 306.261719 C 257.980469 306.300781 259.828125 306.046875 261.855469 305.90625 C 265.789062 313.425781 267.226562 321.601562 268.085938 329.945312 C 268.957031 338.546875 266.734375 346.46875 262.796875 354.273438 C 254.308594 354.277344 245.472656 354.28125 236.617188 354.285156 C 235.582031 354.285156 234.488281 354.066406 233.53125 354.34375 C 230.402344 355.230469 228.085938 353.691406 226.050781 351.792969 C 222.214844 348.199219 218.496094 344.464844 214.839844 340.691406 C 213.21875 339.007812 211.800781 337.644531 209.058594 338.15625 C 206.785156 338.578125 204.359375 338.113281 202.027344 338.050781 C 202.1875 335.691406 202.535156 333.492188 202.414062 331.316406 C 202.300781 329.085938 201.734375 326.875 201.316406 324.425781 C 203.523438 324.269531 205.640625 324.019531 207.773438 323.996094 C 210.332031 323.964844 212.402344 322.902344 213.976562 321.042969 C 218.246094 316.011719 222.414062 310.898438 226.582031 305.789062 C 226.957031 305.335938 227.0625 304.667969 227.300781 304.101562 C 227.308594 304.09375 227.226562 304.101562 227.226562 304.101562 Z M 228.90625 350.347656 C 229.160156 350.464844 229.421875 350.589844 229.683594 350.695312 C 231.546875 349.773438 232.085938 347.894531 232.617188 346.070312 C 236.476562 332.757812 233.269531 320.195312 228.433594 307.824219 C 228.300781 307.503906 227.738281 307.359375 227.367188 307.128906 C 227.097656 308.378906 227.339844 309.320312 227.589844 310.253906 C 228.6875 314.445312 229.996094 318.582031 230.828125 322.816406 C 232.5 331.222656 232.617188 339.597656 229.5 347.773438 C 229.191406 348.59375 229.097656 349.488281 228.90625 350.347656 Z M 228.90625 350.347656 " fill-opacity="1" fill-rule="nonzero"/></g></g></g><g clip-path="url(#c2cde02a7b)"><g clip-path="url(#4a1def4c04)"><g clip-path="url(#04f7900d12)"><path fill="#ffc629" d="M 198.765625 326.699219 C 199.347656 329.78125 199.867188 332.605469 198.90625 335.863281 C 195.050781 335.304688 191.25 335.035156 187.597656 334.125 C 184.710938 333.40625 184.292969 329.867188 186.722656 328.128906 C 187.414062 327.636719 188.4375 327.464844 189.320312 327.386719 C 192.410156 327.101562 195.480469 326.925781 198.765625 326.699219 Z M 198.765625 326.699219 " fill-opacity="1" fill-rule="nonzero"/></g></g></g><g clip-path="url(#c019e4dca3)"><path fill="#ffc629" d="M 256.621094 56.085938 C 260.582031 56.625 264.074219 54.8125 267.699219 53.738281 C 274.75 51.722656 281.867188 49.707031 288.917969 47.625 C 291.738281 46.75 294.359375 46.683594 296.574219 48.765625 C 298.722656 50.78125 301.003906 50.445312 303.421875 49.636719 C 308.59375 47.960938 313.761719 46.078125 318.933594 44.464844 C 326.992188 41.980469 335.046875 39.496094 343.171875 37.277344 C 350.425781 35.261719 356.46875 37.34375 361.304688 43.863281 C 363.988281 43.59375 367.011719 43.457031 369.898438 42.855469 C 379.835938 40.839844 385.273438 48.496094 383.261719 57.699219 C 382.925781 59.246094 382.117188 60.65625 381.515625 62.132812 C 384.265625 63.613281 386.417969 62.269531 388.699219 61.460938 C 396.890625 58.574219 405.148438 55.683594 413.410156 52.863281 C 415.492188 52.125 417.570312 51.386719 419.722656 51.183594 C 422.675781 50.914062 425.695312 51.117188 428.851562 51.117188 C 430.398438 53.265625 431.808594 55.214844 433.082031 56.894531 C 433.015625 63.277344 430.128906 67.507812 425.292969 70.730469 C 421.265625 73.417969 417.371094 76.441406 413.273438 79.398438 C 415.019531 82.691406 416.699219 85.644531 418.242188 88.667969 C 419.988281 91.960938 418.578125 94.984375 417.238281 97.535156 C 419.386719 100.625 421.535156 103.113281 423.011719 105.933594 C 425.226562 110.164062 424.554688 113.1875 420.527344 115.875 C 414.617188 119.773438 408.507812 123.332031 402.328125 126.824219 C 400.382812 127.898438 398.433594 128.773438 397.226562 131.125 C 399.644531 133.476562 402.261719 135.691406 404.546875 138.246094 C 408.304688 142.410156 408.105469 146.238281 404.144531 150.40625 C 399.039062 155.710938 393.265625 160.28125 386.953125 164.109375 C 381.648438 167.332031 376.410156 170.828125 370.769531 174.386719 C 372.71875 176.132812 374.328125 177.410156 375.738281 178.820312 C 377.21875 180.367188 378.492188 182.179688 379.835938 183.792969 C 381.246094 185.472656 381.179688 187.417969 380.640625 189.234375 C 379.902344 191.515625 378.695312 193.667969 377.484375 196.285156 C 380.441406 196.757812 382.789062 194.941406 385.339844 194.539062 C 387.757812 194.136719 390.175781 193.867188 392.660156 193.53125 C 395.347656 196.554688 397.832031 199.378906 400.515625 202.46875 C 400.917969 207.574219 398.90625 211.671875 394.472656 214.695312 C 382.855469 222.753906 371.308594 231.015625 359.558594 239.011719 C 351.230469 244.722656 342.570312 249.894531 334.242188 255.605469 C 327.796875 259.972656 320.949219 262.925781 312.957031 263.261719 C 307.046875 258.492188 307.046875 258.492188 310.273438 250.835938 C 308.660156 251.238281 307.382812 251.304688 306.242188 251.84375 C 303.488281 253.050781 300.871094 254.53125 298.183594 255.875 C 296.707031 256.613281 295.230469 257.351562 293.6875 257.753906 C 282.339844 260.980469 278.242188 258.761719 274.347656 251.171875 C 275.152344 248.953125 275.960938 246.667969 276.832031 244.386719 C 277.570312 242.503906 278.511719 240.691406 279.855469 237.9375 C 274.550781 239.617188 270.722656 242.167969 266.558594 244.050781 C 263.269531 245.527344 259.980469 246.46875 256.351562 246.535156 C 252.324219 246.601562 248.699219 246.066406 246.683594 241.96875 C 246.214844 241.027344 245.273438 240.355469 244.46875 239.480469 C 245.542969 236.792969 246.683594 234.109375 247.691406 231.488281 C 261.320312 222.890625 274.886719 214.222656 288.515625 205.757812 C 301.878906 197.429688 315.507812 189.433594 328.804688 180.769531 C 327.125 178.820312 325.917969 179.894531 324.910156 180.433594 C 311.078125 187.554688 297.3125 194.675781 283.546875 201.863281 C 275.085938 206.296875 266.761719 210.929688 258.300781 215.363281 C 239.230469 225.441406 220.699219 236.457031 202.5 247.945312 C 198.269531 250.632812 193.90625 252.714844 189.003906 253.589844 C 185.714844 254.195312 182.691406 253.925781 180.542969 250.363281 C 179.605469 248.753906 177.121094 248.082031 175.375 246.9375 C 171.078125 249.425781 167.113281 251.84375 163.085938 254.058594 C 160.398438 255.539062 157.578125 256.074219 154.425781 255.539062 C 151.269531 255 149.589844 252.984375 148.648438 250.433594 C 147.640625 247.746094 148.113281 245.058594 150.460938 243.042969 C 152.746094 241.09375 154.960938 239.144531 157.445312 237.464844 C 168.324219 230.210938 179.46875 223.359375 190.816406 216.84375 C 206.867188 207.574219 222.445312 197.496094 238.222656 187.824219 C 247.554688 182.113281 256.890625 176.535156 266.289062 170.960938 C 284.351562 160.28125 302.550781 149.800781 320.613281 139.117188 C 322.359375 138.109375 324.84375 137.574219 325.179688 134.886719 C 328.46875 134.347656 329.003906 133.8125 329.003906 130.921875 C 329.476562 131.058594 329.945312 131.191406 330.414062 131.328125 C 329.945312 131.191406 329.542969 131.058594 329.074219 130.855469 L 325.3125 135.019531 C 323.835938 135.492188 322.15625 135.761719 320.8125 136.5 C 292.074219 152.6875 263.269531 168.8125 234.664062 185.269531 C 214.585938 196.824219 194.777344 208.917969 174.835938 220.671875 C 167.585938 224.972656 160.132812 229.003906 152.746094 233.167969 C 151.804688 233.703125 150.863281 234.242188 149.859375 234.644531 C 142.605469 237.464844 138.847656 237.800781 134.144531 229.472656 C 137.703125 226.382812 137.570312 220.402344 142.941406 218.65625 C 142.203125 215.433594 140.726562 212.542969 141.0625 209.855469 C 141.398438 207.101562 143.546875 204.550781 145.023438 201.660156 C 144.285156 200.117188 142.40625 201.054688 141.0625 200.453125 C 139.585938 199.78125 137.773438 199.578125 136.628906 198.570312 C 135.488281 197.628906 134.882812 195.949219 134.011719 194.472656 C 135.21875 192.457031 136.226562 190.507812 137.503906 188.832031 C 138.644531 187.351562 139.988281 185.875 141.53125 184.933594 C 164.160156 171.765625 186.855469 158.734375 209.550781 145.703125 C 228.6875 134.683594 247.824219 123.601562 267.027344 112.71875 C 280.054688 105.328125 293.214844 98.074219 306.242188 90.683594 C 310.273438 88.398438 314.167969 85.914062 317.992188 83.292969 C 319.46875 82.285156 320.546875 80.605469 321.820312 79.195312 C 322.089844 79.128906 322.359375 79.0625 322.558594 78.929688 C 322.695312 78.859375 322.828125 78.59375 322.894531 78.457031 C 322.558594 78.792969 322.289062 79.0625 321.957031 79.398438 C 320.34375 79.53125 318.597656 79.265625 317.1875 79.867188 C 310.875 82.421875 304.5625 84.972656 298.386719 87.863281 C 282.40625 95.386719 266.359375 102.976562 250.511719 110.835938 C 241.246094 115.40625 232.246094 120.511719 223.113281 125.414062 C 202.5 136.566406 181.886719 147.652344 161.273438 158.867188 C 152.207031 163.839844 143.210938 168.945312 134.144531 173.917969 C 131.527344 175.328125 128.839844 176.671875 126.019531 177.746094 C 119.171875 180.433594 118.097656 180.03125 113.0625 173.582031 C 112.996094 170.960938 114.269531 169.011719 116.417969 167.535156 C 119.375 165.519531 122.125 163.234375 125.214844 161.554688 C 140.996094 152.957031 156.839844 144.492188 172.621094 135.894531 C 176.917969 133.542969 181.015625 130.789062 185.378906 128.570312 C 205.65625 118.09375 226.136719 107.8125 246.347656 97.199219 C 261.054688 89.476562 275.558594 81.414062 290.195312 73.488281 C 291.335938 72.882812 292.679688 72.144531 292.074219 70.394531 C 292.679688 70.394531 293.285156 70.394531 293.886719 70.394531 C 293.753906 70.261719 293.621094 69.992188 293.550781 69.992188 C 293.082031 70.128906 292.679688 70.328125 292.210938 70.53125 C 282.472656 74.832031 272.601562 78.726562 263 83.160156 C 246.214844 90.953125 229.695312 99.214844 213.378906 108.015625 C 195.183594 117.824219 177.050781 127.632812 159.058594 137.773438 C 149.121094 143.351562 139.449219 149.53125 129.714844 155.375 C 124.140625 158.734375 118.769531 157.59375 114.941406 152.21875 C 113.53125 150.269531 113.664062 148.320312 115.679688 146.375 C 118.96875 143.148438 122.597656 140.328125 126.558594 137.976562 C 138.914062 130.519531 151.132812 122.996094 163.421875 115.339844 C 165.703125 113.925781 167.652344 112.113281 169.800781 110.433594 C 170.203125 110.234375 170.605469 110.097656 171.007812 109.964844 L 170.269531 109.425781 C 170.203125 109.828125 170.070312 110.234375 170.003906 110.636719 C 168.925781 110.636719 167.785156 110.367188 166.847656 110.703125 C 163.757812 111.84375 160.734375 113.054688 157.847656 114.53125 C 144.351562 121.183594 130.988281 127.898438 117.558594 134.550781 C 114.875 135.894531 112.121094 137.171875 109.234375 137.707031 C 104.9375 138.582031 101.175781 137.171875 98.421875 133.542969 C 97.148438 131.863281 96.945312 129.984375 98.15625 128.234375 C 99.96875 125.550781 101.914062 123.0625 105.136719 121.585938 C 127.296875 111.574219 147.710938 98.476562 168.859375 86.652344 C 186.65625 76.710938 204.449219 66.632812 222.242188 56.558594 C 226.941406 53.871094 231.644531 51.117188 236.410156 48.5625 C 242.25 45.40625 248.632812 44.0625 255.144531 43.191406 C 257.359375 42.921875 259.441406 42.988281 261.320312 44.464844 C 264.949219 47.289062 265.082031 50.445312 261.523438 53.199219 C 260.046875 54.339844 258.367188 55.214844 256.824219 56.222656 C 256.554688 56.289062 256.351562 56.355469 256.085938 56.492188 C 255.949219 56.558594 255.882812 56.757812 255.75 56.960938 C 256.085938 56.691406 256.351562 56.421875 256.621094 56.085938 " fill-opacity="1" fill-rule="nonzero"/></g><g fill="#000000" fill-opacity="1"><g transform="translate(146.842575, 154.334178)"><g><path d="M 6.234375 -24.1875 L 6.234375 0 L 3.109375 0 L 3.109375 -24.1875 Z M 6.234375 -24.1875 "/></g></g></g><g fill="#000000" fill-opacity="1"><g transform="translate(156.152969, 154.334178)"><g><path d="M 13.09375 -12.65625 L 13.09375 -12.328125 L 10.28125 -12.328125 L 10.28125 -12.5625 C 10.28125 -13.34375 10.039062 -13.953125 9.5625 -14.390625 C 9.082031 -14.828125 8.375 -15.046875 7.4375 -15.046875 C 6.582031 -15.046875 5.921875 -14.851562 5.453125 -14.46875 C 4.984375 -14.09375 4.75 -13.554688 4.75 -12.859375 C 4.75 -12.234375 5 -11.738281 5.5 -11.375 C 6.007812 -11.007812 6.8125 -10.566406 7.90625 -10.046875 L 10.15625 -8.9375 C 10.914062 -8.65625 11.628906 -8.148438 12.296875 -7.421875 C 12.960938 -6.691406 13.296875 -5.722656 13.296875 -4.515625 C 13.296875 -2.953125 12.773438 -1.757812 11.734375 -0.9375 C 10.703125 -0.113281 9.25 0.296875 7.375 0.296875 C 5.46875 0.296875 4.023438 -0.132812 3.046875 -1 C 2.066406 -1.875 1.578125 -3.160156 1.578125 -4.859375 L 1.578125 -5.125 L 4.515625 -5.125 L 4.515625 -4.890625 C 4.515625 -2.898438 5.46875 -1.90625 7.375 -1.90625 C 8.351562 -1.90625 9.109375 -2.117188 9.640625 -2.546875 C 10.179688 -2.972656 10.453125 -3.566406 10.453125 -4.328125 C 10.453125 -5.234375 10.054688 -5.894531 9.265625 -6.3125 C 8.472656 -6.726562 7.972656 -6.992188 7.765625 -7.109375 L 5.15625 -8.4375 C 3.789062 -9.113281 2.914062 -9.785156 2.53125 -10.453125 C 2.15625 -11.117188 1.96875 -11.820312 1.96875 -12.5625 C 1.96875 -14.007812 2.488281 -15.132812 3.53125 -15.9375 C 4.570312 -16.75 5.960938 -17.15625 7.703125 -17.15625 C 9.441406 -17.15625 10.773438 -16.773438 11.703125 -16.015625 C 12.628906 -15.253906 13.09375 -14.132812 13.09375 -12.65625 Z M 13.09375 -12.65625 "/></g></g></g><g fill="#000000" fill-opacity="1"><g transform="translate(171.022812, 154.334178)"><g/></g></g><g fill="#000000" fill-opacity="1"><g transform="translate(178.457724, 154.334178)"><g><path d="M 5.6875 -16.921875 L 9.28125 -16.921875 L 9.28125 -14.734375 L 5.6875 -14.734375 L 5.6875 -4.453125 C 5.6875 -3.628906 5.84375 -3.019531 6.15625 -2.625 C 6.476562 -2.238281 7.128906 -2.046875 8.109375 -2.046875 C 8.578125 -2.046875 8.988281 -2.085938 9.34375 -2.171875 L 9.34375 -0.0625 C 8.894531 0.0195312 8.425781 0.078125 7.9375 0.109375 C 7.445312 0.148438 6.976562 0.171875 6.53125 0.171875 C 5.082031 0.171875 4.101562 -0.0976562 3.59375 -0.640625 C 3.09375 -1.191406 2.84375 -2.039062 2.84375 -3.1875 L 2.84375 -14.734375 L 0 -14.734375 L 0 -16.921875 L 2.84375 -16.921875 L 2.84375 -20.171875 L 5.6875 -21.40625 Z M 5.6875 -16.921875 "/></g></g></g><g fill="#000000" fill-opacity="1"><g transform="translate(187.768118, 154.334178)"><g><path d="M 5.21875 -24.1875 L 5.21875 -14.734375 C 5.738281 -15.648438 6.34375 -16.296875 7.03125 -16.671875 C 7.726562 -17.054688 8.632812 -17.25 9.75 -17.25 C 12.832031 -17.25 14.375 -15.539062 14.375 -12.125 L 14.375 0 L 11.484375 0 L 11.484375 -11.359375 C 11.484375 -12.671875 11.253906 -13.613281 10.796875 -14.1875 C 10.335938 -14.757812 9.640625 -15.046875 8.703125 -15.046875 C 7.640625 -15.046875 6.800781 -14.675781 6.1875 -13.9375 C 5.570312 -13.195312 5.265625 -12.203125 5.265625 -10.953125 L 5.265625 0 L 2.375 0 L 2.375 -24.1875 Z M 5.21875 -24.1875 "/></g></g></g><g fill="#000000" fill-opacity="1"><g transform="translate(204.513424, 154.334178)"><g><path d="M 5.265625 -24.1875 L 5.265625 -21.234375 L 2.171875 -21.234375 L 2.171875 -24.1875 Z M 5.15625 -16.921875 L 5.15625 0 L 2.28125 0 L 2.28125 -16.921875 Z M 5.15625 -16.921875 "/></g></g></g><g fill="#000000" fill-opacity="1"><g transform="translate(211.948337, 154.334178)"><g><path d="M 13.09375 -12.65625 L 13.09375 -12.328125 L 10.28125 -12.328125 L 10.28125 -12.5625 C 10.28125 -13.34375 10.039062 -13.953125 9.5625 -14.390625 C 9.082031 -14.828125 8.375 -15.046875 7.4375 -15.046875 C 6.582031 -15.046875 5.921875 -14.851562 5.453125 -14.46875 C 4.984375 -14.09375 4.75 -13.554688 4.75 -12.859375 C 4.75 -12.234375 5 -11.738281 5.5 -11.375 C 6.007812 -11.007812 6.8125 -10.566406 7.90625 -10.046875 L 10.15625 -8.9375 C 10.914062 -8.65625 11.628906 -8.148438 12.296875 -7.421875 C 12.960938 -6.691406 13.296875 -5.722656 13.296875 -4.515625 C 13.296875 -2.953125 12.773438 -1.757812 11.734375 -0.9375 C 10.703125 -0.113281 9.25 0.296875 7.375 0.296875 C 5.46875 0.296875 4.023438 -0.132812 3.046875 -1 C 2.066406 -1.875 1.578125 -3.160156 1.578125 -4.859375 L 1.578125 -5.125 L 4.515625 -5.125 L 4.515625 -4.890625 C 4.515625 -2.898438 5.46875 -1.90625 7.375 -1.90625 C 8.351562 -1.90625 9.109375 -2.117188 9.640625 -2.546875 C 10.179688 -2.972656 10.453125 -3.566406 10.453125 -4.328125 C 10.453125 -5.234375 10.054688 -5.894531 9.265625 -6.3125 C 8.472656 -6.726562 7.972656 -6.992188 7.765625 -7.109375 L 5.15625 -8.4375 C 3.789062 -9.113281 2.914062 -9.785156 2.53125 -10.453125 C 2.15625 -11.117188 1.96875 -11.820312 1.96875 -12.5625 C 1.96875 -14.007812 2.488281 -15.132812 3.53125 -15.9375 C 4.570312 -16.75 5.960938 -17.15625 7.703125 -17.15625 C 9.441406 -17.15625 10.773438 -16.773438 11.703125 -16.015625 C 12.628906 -15.253906 13.09375 -14.132812 13.09375 -12.65625 Z M 13.09375 -12.65625 "/></g></g></g><g fill="#000000" fill-opacity="1"><g transform="translate(226.818179, 154.334178)"><g/></g></g><g fill="#000000" fill-opacity="1"><g transform="translate(234.253091, 154.334178)"><g><path d="M 5.15625 -24.1875 L 5.15625 0 L 2.28125 0 L 2.28125 -24.1875 Z M 5.15625 -24.1875 "/></g></g></g><g fill="#000000" fill-opacity="1"><g transform="translate(241.688004, 154.334178)"><g><path d="M 5.265625 -24.1875 L 5.265625 -21.234375 L 2.171875 -21.234375 L 2.171875 -24.1875 Z M 5.15625 -16.921875 L 5.15625 0 L 2.28125 0 L 2.28125 -16.921875 Z M 5.15625 -16.921875 "/></g></g></g><g fill="#000000" fill-opacity="1"><g transform="translate(249.122916, 154.334178)"><g><path d="M 14.40625 -11.828125 L 14.40625 0 L 11.53125 0 L 11.53125 -11.421875 C 11.53125 -12.691406 11.300781 -13.613281 10.84375 -14.1875 C 10.382812 -14.757812 9.6875 -15.046875 8.75 -15.046875 C 7.582031 -15.046875 6.710938 -14.660156 6.140625 -13.890625 C 5.578125 -13.117188 5.296875 -12.082031 5.296875 -10.78125 L 5.296875 0 L 2.40625 0 L 2.40625 -15.71875 L 2.34375 -16.921875 L 5.265625 -16.921875 L 5.265625 -14.734375 C 5.753906 -15.585938 6.335938 -16.21875 7.015625 -16.625 C 7.703125 -17.039062 8.625 -17.25 9.78125 -17.25 C 11.382812 -17.25 12.554688 -16.816406 13.296875 -15.953125 C 14.035156 -15.097656 14.40625 -13.722656 14.40625 -11.828125 Z M 14.40625 -11.828125 "/></g></g></g><g fill="#000000" fill-opacity="1"><g transform="translate(265.868223, 154.334178)"><g><path d="M 14.640625 -8.984375 L 14.640625 -7.578125 L 5.09375 -7.578125 L 5.09375 -7.171875 C 5.09375 -5.203125 5.363281 -3.820312 5.90625 -3.03125 C 6.457031 -2.238281 7.269531 -1.84375 8.34375 -1.84375 C 10.15625 -1.84375 11.191406 -2.9375 11.453125 -5.125 L 14.46875 -5.125 C 14.351562 -1.4375 12.332031 0.40625 8.40625 0.40625 C 6.257812 0.40625 4.671875 -0.164062 3.640625 -1.3125 C 2.617188 -2.46875 2.109375 -4.910156 2.109375 -8.640625 C 2.109375 -11.742188 2.578125 -13.972656 3.515625 -15.328125 C 4.453125 -16.679688 6.070312 -17.359375 8.375 -17.359375 C 10.445312 -17.359375 12.007812 -16.796875 13.0625 -15.671875 C 14.113281 -14.554688 14.640625 -12.328125 14.640625 -8.984375 Z M 11.6875 -9.640625 L 11.6875 -10.15625 C 11.6875 -11.957031 11.40625 -13.242188 10.84375 -14.015625 C 10.289062 -14.785156 9.457031 -15.171875 8.34375 -15.171875 C 7.269531 -15.171875 6.457031 -14.742188 5.90625 -13.890625 C 5.363281 -13.046875 5.09375 -11.6875 5.09375 -9.8125 L 5.09375 -9.640625 Z M 11.6875 -9.640625 "/></g></g></g><g fill="#000000" fill-opacity="1"><g transform="translate(282.613529, 154.334178)"><g/></g></g><g fill="#000000" fill-opacity="1"><g transform="translate(290.048441, 154.334178)"><g><path d="M 14.8125 -8.34375 C 14.8125 -4.882812 14.269531 -2.550781 13.1875 -1.34375 C 12.101562 -0.132812 10.441406 0.46875 8.203125 0.46875 C 6.109375 0.46875 4.535156 -0.109375 3.484375 -1.265625 C 2.429688 -2.429688 1.90625 -4.847656 1.90625 -8.515625 C 1.90625 -11.972656 2.425781 -14.316406 3.46875 -15.546875 C 4.507812 -16.773438 6.144531 -17.390625 8.375 -17.390625 C 10.519531 -17.390625 12.128906 -16.804688 13.203125 -15.640625 C 14.273438 -14.484375 14.8125 -12.050781 14.8125 -8.34375 Z M 8.40625 -15.109375 C 7.226562 -15.109375 6.347656 -14.679688 5.765625 -13.828125 C 5.179688 -12.984375 4.890625 -11.164062 4.890625 -8.375 C 4.890625 -5.601562 5.164062 -3.820312 5.71875 -3.03125 C 6.28125 -2.238281 7.15625 -1.84375 8.34375 -1.84375 C 9.414062 -1.84375 10.269531 -2.226562 10.90625 -3 C 11.539062 -3.769531 11.859375 -5.796875 11.859375 -9.078125 C 11.859375 -11.515625 11.5625 -13.128906 10.96875 -13.921875 C 10.375 -14.710938 9.519531 -15.109375 8.40625 -15.109375 Z M 8.40625 -15.109375 "/></g></g></g><g fill="#000000" fill-opacity="1"><g transform="translate(306.793748, 154.334178)"><g><path d="M 9.015625 -24.1875 L 9.015625 -22.171875 C 8.859375 -22.191406 8.597656 -22.203125 8.234375 -22.203125 C 7.234375 -22.160156 6.566406 -21.9375 6.234375 -21.53125 C 5.898438 -21.132812 5.71875 -20.359375 5.6875 -19.203125 L 5.6875 -16.921875 L 9.015625 -16.921875 L 9.015625 -14.734375 L 5.6875 -14.734375 L 5.6875 0 L 2.84375 0 L 2.84375 -14.734375 L 0.265625 -14.734375 L 0.265625 -16.921875 L 2.84375 -16.921875 L 2.84375 -19.46875 C 2.84375 -21.207031 3.207031 -22.453125 3.9375 -23.203125 C 4.664062 -23.953125 5.898438 -24.328125 7.640625 -24.328125 C 8.128906 -24.328125 8.585938 -24.28125 9.015625 -24.1875 Z M 9.015625 -24.1875 "/></g></g></g><g fill="#000000" fill-opacity="1"><g transform="translate(316.104142, 154.334178)"><g/></g></g><g fill="#000000" fill-opacity="1"><g transform="translate(323.539054, 154.334178)"><g><path d="M 5.6875 -16.921875 L 9.28125 -16.921875 L 9.28125 -14.734375 L 5.6875 -14.734375 L 5.6875 -4.453125 C 5.6875 -3.628906 5.84375 -3.019531 6.15625 -2.625 C 6.476562 -2.238281 7.128906 -2.046875 8.109375 -2.046875 C 8.578125 -2.046875 8.988281 -2.085938 9.34375 -2.171875 L 9.34375 -0.0625 C 8.894531 0.0195312 8.425781 0.078125 7.9375 0.109375 C 7.445312 0.148438 6.976562 0.171875 6.53125 0.171875 C 5.082031 0.171875 4.101562 -0.0976562 3.59375 -0.640625 C 3.09375 -1.191406 2.84375 -2.039062 2.84375 -3.1875 L 2.84375 -14.734375 L 0 -14.734375 L 0 -16.921875 L 2.84375 -16.921875 L 2.84375 -20.171875 L 5.6875 -21.40625 Z M 5.6875 -16.921875 "/></g></g></g><g fill="#000000" fill-opacity="1"><g transform="translate(332.849449, 154.334178)"><g><path d="M 14.640625 -8.984375 L 14.640625 -7.578125 L 5.09375 -7.578125 L 5.09375 -7.171875 C 5.09375 -5.203125 5.363281 -3.820312 5.90625 -3.03125 C 6.457031 -2.238281 7.269531 -1.84375 8.34375 -1.84375 C 10.15625 -1.84375 11.191406 -2.9375 11.453125 -5.125 L 14.46875 -5.125 C 14.351562 -1.4375 12.332031 0.40625 8.40625 0.40625 C 6.257812 0.40625 4.671875 -0.164062 3.640625 -1.3125 C 2.617188 -2.46875 2.109375 -4.910156 2.109375 -8.640625 C 2.109375 -11.742188 2.578125 -13.972656 3.515625 -15.328125 C 4.453125 -16.679688 6.070312 -17.359375 8.375 -17.359375 C 10.445312 -17.359375 12.007812 -16.796875 13.0625 -15.671875 C 14.113281 -14.554688 14.640625 -12.328125 14.640625 -8.984375 Z M 11.6875 -9.640625 L 11.6875 -10.15625 C 11.6875 -11.957031 11.40625 -13.242188 10.84375 -14.015625 C 10.289062 -14.785156 9.457031 -15.171875 8.34375 -15.171875 C 7.269531 -15.171875 6.457031 -14.742188 5.90625 -13.890625 C 5.363281 -13.046875 5.09375 -11.6875 5.09375 -9.8125 L 5.09375 -9.640625 Z M 11.6875 -9.640625 "/></g></g></g><g fill="#000000" fill-opacity="1"><g transform="translate(349.594755, 154.334178)"><g><path d="M 4.125 -16.921875 L 7.4375 -10.75 L 10.984375 -16.921875 L 14.0625 -16.921875 L 9.046875 -8.8125 L 14.53125 0 L 11.15625 0 L 7.171875 -6.9375 L 3.421875 0 L 0.296875 0 L 5.53125 -8.8125 L 0.765625 -16.921875 Z M 4.125 -16.921875 "/></g></g></g><g fill="#000000" fill-opacity="1"><g transform="translate(364.464597, 154.334178)"><g><path d="M 5.6875 -16.921875 L 9.28125 -16.921875 L 9.28125 -14.734375 L 5.6875 -14.734375 L 5.6875 -4.453125 C 5.6875 -3.628906 5.84375 -3.019531 6.15625 -2.625 C 6.476562 -2.238281 7.128906 -2.046875 8.109375 -2.046875 C 8.578125 -2.046875 8.988281 -2.085938 9.34375 -2.171875 L 9.34375 -0.0625 C 8.894531 0.0195312 8.425781 0.078125 7.9375 0.109375 C 7.445312 0.148438 6.976562 0.171875 6.53125 0.171875 C 5.082031 0.171875 4.101562 -0.0976562 3.59375 -0.640625 C 3.09375 -1.191406 2.84375 -2.039062 2.84375 -3.1875 L 2.84375 -14.734375 L 0 -14.734375 L 0 -16.921875 L 2.84375 -16.921875 L 2.84375 -20.171875 L 5.6875 -21.40625 Z M 5.6875 -16.921875 "/></g></g></g><g fill="#000000" fill-opacity="1"><g transform="translate(373.774991, 154.334178)"><g/></g></g><g fill="#000000" fill-opacity="1"><g transform="translate(381.209904, 154.334178)"><g><path d="M 16.28125 -24.1875 L 16.28125 -21.5 L 9.921875 -21.5 L 9.921875 0 L 6.796875 0 L 6.796875 -21.5 L 0.46875 -21.5 L 0.46875 -24.1875 Z M 16.28125 -24.1875 "/></g></g></g><g fill="#000000" fill-opacity="1"><g transform="translate(397.95521, 154.334178)"><g><path d="M 6 -24.1875 L 6 -13.828125 L 14.46875 -13.828125 L 14.46875 -24.1875 L 17.546875 -24.1875 L 17.546875 0 L 14.46875 0 L 14.46875 -11.15625 L 6 -11.15625 L 6 0 L 2.921875 0 L 2.921875 -24.1875 Z M 6 -24.1875 "/></g></g></g><g fill="#000000" fill-opacity="1"><g transform="translate(418.41799, 154.334178)"><g><path d="M 12.09375 -24.1875 L 19.96875 0 L 16.515625 0 L 14.78125 -5.765625 L 5.421875 -5.765625 L 3.65625 0 L 0.5 0 L 8.171875 -24.1875 Z M 10.046875 -21.34375 L 6.15625 -8.375 L 14 -8.375 Z M 10.046875 -21.34375 "/></g></g></g><g fill="#000000" fill-opacity="1"><g transform="translate(438.88077, 154.334178)"><g><path d="M 16.28125 -24.1875 L 16.28125 -21.5 L 9.921875 -21.5 L 9.921875 0 L 6.796875 0 L 6.796875 -21.5 L 0.46875 -21.5 L 0.46875 -24.1875 Z M 16.28125 -24.1875 "/></g></g></g><g fill="#000000" fill-opacity="1"><g transform="translate(455.626094, 154.334178)"><g/></g></g><g fill="#000000" fill-opacity="1"><g transform="translate(463.061006, 154.334178)"><g><path d="M 5.265625 -24.1875 L 5.265625 -21.234375 L 2.171875 -21.234375 L 2.171875 -24.1875 Z M 5.15625 -16.921875 L 5.15625 0 L 2.28125 0 L 2.28125 -16.921875 Z M 5.15625 -16.921875 "/></g></g></g><g fill="#000000" fill-opacity="1"><g transform="translate(470.495918, 154.334178)"><g><path d="M 13.203125 -15.078125 C 13.691406 -15.921875 14.296875 -16.5 15.015625 -16.8125 C 15.742188 -17.125 16.585938 -17.28125 17.546875 -17.28125 C 18.929688 -17.28125 20.015625 -16.882812 20.796875 -16.09375 C 21.578125 -15.300781 21.96875 -14.203125 21.96875 -12.796875 L 21.96875 0 L 19.09375 0 L 19.09375 -12.359375 C 19.09375 -13.140625 18.875 -13.785156 18.4375 -14.296875 C 18 -14.816406 17.300781 -15.078125 16.34375 -15.078125 C 15.34375 -15.078125 14.625 -14.78125 14.1875 -14.1875 C 13.75 -13.59375 13.53125 -12.679688 13.53125 -11.453125 L 13.53125 0 L 10.6875 0 L 10.6875 -11.71875 C 10.6875 -12.882812 10.472656 -13.726562 10.046875 -14.25 C 9.617188 -14.78125 8.992188 -15.046875 8.171875 -15.046875 C 7.097656 -15.046875 6.320312 -14.75 5.84375 -14.15625 C 5.363281 -13.5625 5.125 -12.648438 5.125 -11.421875 L 5.125 0 L 2.25 0 L 2.25 -15.046875 L 2.171875 -16.921875 L 5.03125 -16.921875 L 5.03125 -14.8125 C 5.382812 -15.59375 5.910156 -16.195312 6.609375 -16.625 C 7.316406 -17.0625 8.171875 -17.28125 9.171875 -17.28125 C 10.179688 -17.28125 11.023438 -17.101562 11.703125 -16.75 C 12.390625 -16.394531 12.890625 -15.835938 13.203125 -15.078125 Z M 13.203125 -15.078125 "/></g></g></g><g fill="#000000" fill-opacity="1"><g transform="translate(494.676155, 154.334178)"><g><path d="M 14.8125 -8.9375 C 14.8125 -6.394531 14.660156 -4.550781 14.359375 -3.40625 C 14.054688 -2.269531 13.488281 -1.351562 12.65625 -0.65625 C 11.832031 0.03125 10.71875 0.375 9.3125 0.375 C 7.65625 0.375 6.40625 -0.316406 5.5625 -1.703125 L 5.5625 6.4375 L 2.640625 6.4375 L 2.640625 -16.921875 L 5.53125 -16.921875 L 5.53125 -14.875 C 5.976562 -15.695312 6.5 -16.289062 7.09375 -16.65625 C 7.695312 -17.03125 8.425781 -17.21875 9.28125 -17.21875 C 11.132812 -17.21875 12.519531 -16.582031 13.4375 -15.3125 C 14.351562 -14.039062 14.8125 -11.914062 14.8125 -8.9375 Z M 5.640625 -4.671875 C 5.828125 -3.785156 6.175781 -3.09375 6.6875 -2.59375 C 7.207031 -2.09375 7.878906 -1.84375 8.703125 -1.84375 C 9.796875 -1.84375 10.609375 -2.316406 11.140625 -3.265625 C 11.679688 -4.210938 11.953125 -5.679688 11.953125 -7.671875 L 11.953125 -9.6875 C 11.953125 -11.351562 11.679688 -12.644531 11.140625 -13.5625 C 10.609375 -14.476562 9.734375 -14.9375 8.515625 -14.9375 C 7.523438 -14.9375 6.75 -14.5 6.1875 -13.625 C 5.632812 -12.757812 5.359375 -11.097656 5.359375 -8.640625 C 5.359375 -6.878906 5.453125 -5.554688 5.640625 -4.671875 Z M 5.640625 -4.671875 "/></g></g></g><g fill="#000000" fill-opacity="1"><g transform="translate(511.421444, 154.334178)"><g><path d="M 14.8125 -8.34375 C 14.8125 -4.882812 14.269531 -2.550781 13.1875 -1.34375 C 12.101562 -0.132812 10.441406 0.46875 8.203125 0.46875 C 6.109375 0.46875 4.535156 -0.109375 3.484375 -1.265625 C 2.429688 -2.429688 1.90625 -4.847656 1.90625 -8.515625 C 1.90625 -11.972656 2.425781 -14.316406 3.46875 -15.546875 C 4.507812 -16.773438 6.144531 -17.390625 8.375 -17.390625 C 10.519531 -17.390625 12.128906 -16.804688 13.203125 -15.640625 C 14.273438 -14.484375 14.8125 -12.050781 14.8125 -8.34375 Z M 8.40625 -15.109375 C 7.226562 -15.109375 6.347656 -14.679688 5.765625 -13.828125 C 5.179688 -12.984375 4.890625 -11.164062 4.890625 -8.375 C 4.890625 -5.601562 5.164062 -3.820312 5.71875 -3.03125 C 6.28125 -2.238281 7.15625 -1.84375 8.34375 -1.84375 C 9.414062 -1.84375 10.269531 -2.226562 10.90625 -3 C 11.539062 -3.769531 11.859375 -5.796875 11.859375 -9.078125 C 11.859375 -11.515625 11.5625 -13.128906 10.96875 -13.921875 C 10.375 -14.710938 9.519531 -15.109375 8.40625 -15.109375 Z M 8.40625 -15.109375 "/></g></g></g><g fill="#000000" fill-opacity="1"><g transform="translate(528.166768, 154.334178)"><g><path d="M 9.75 -17.125 C 10.21875 -17.125 10.507812 -17.097656 10.625 -17.046875 L 10.625 -14.203125 C 10.414062 -14.242188 9.957031 -14.273438 9.25 -14.296875 C 8.019531 -14.296875 7.078125 -13.96875 6.421875 -13.3125 C 5.773438 -12.65625 5.453125 -11.757812 5.453125 -10.625 L 5.453125 0 L 2.578125 0 L 2.578125 -14.734375 C 2.578125 -14.984375 2.554688 -15.710938 2.515625 -16.921875 L 5.390625 -16.921875 L 5.390625 -14.296875 C 5.878906 -15.441406 6.4375 -16.195312 7.0625 -16.5625 C 7.6875 -16.9375 8.582031 -17.125 9.75 -17.125 Z M 9.75 -17.125 "/></g></g></g><g fill="#000000" fill-opacity="1"><g transform="translate(539.319154, 154.334178)"><g><path d="M 5.6875 -16.921875 L 9.28125 -16.921875 L 9.28125 -14.734375 L 5.6875 -14.734375 L 5.6875 -4.453125 C 5.6875 -3.628906 5.84375 -3.019531 6.15625 -2.625 C 6.476562 -2.238281 7.128906 -2.046875 8.109375 -2.046875 C 8.578125 -2.046875 8.988281 -2.085938 9.34375 -2.171875 L 9.34375 -0.0625 C 8.894531 0.0195312 8.425781 0.078125 7.9375 0.109375 C 7.445312 0.148438 6.976562 0.171875 6.53125 0.171875 C 5.082031 0.171875 4.101562 -0.0976562 3.59375 -0.640625 C 3.09375 -1.191406 2.84375 -2.039062 2.84375 -3.1875 L 2.84375 -14.734375 L 0 -14.734375 L 0 -16.921875 L 2.84375 -16.921875 L 2.84375 -20.171875 L 5.6875 -21.40625 Z M 5.6875 -16.921875 "/></g></g></g><g fill="#000000" fill-opacity="1"><g transform="translate(548.629565, 154.334178)"><g><path d="M 13.828125 -12.265625 L 13.828125 -3.28125 C 13.828125 -2.90625 13.851562 -2.410156 13.90625 -1.796875 C 13.96875 -1.179688 14.054688 -0.582031 14.171875 0 L 11.328125 0 L 11.1875 -2.453125 L 11.125 -2.453125 C 10.695312 -1.460938 10.140625 -0.742188 9.453125 -0.296875 C 8.773438 0.148438 7.890625 0.375 6.796875 0.375 C 5.328125 0.375 4.195312 -0.0703125 3.40625 -0.96875 C 2.613281 -1.863281 2.21875 -3.160156 2.21875 -4.859375 C 2.21875 -6.867188 2.804688 -8.304688 3.984375 -9.171875 C 5.171875 -10.046875 7.148438 -10.484375 9.921875 -10.484375 L 11.09375 -10.484375 L 11.09375 -11.921875 C 11.09375 -12.929688 10.890625 -13.726562 10.484375 -14.3125 C 10.078125 -14.90625 9.351562 -15.203125 8.3125 -15.203125 C 7.4375 -15.203125 6.757812 -14.960938 6.28125 -14.484375 C 5.800781 -14.003906 5.5625 -13.421875 5.5625 -12.734375 C 5.5625 -12.441406 5.570312 -12.25 5.59375 -12.15625 L 2.609375 -12.15625 C 2.660156 -13.90625 3.144531 -15.195312 4.0625 -16.03125 C 4.988281 -16.863281 6.414062 -17.28125 8.34375 -17.28125 C 10.28125 -17.28125 11.675781 -16.84375 12.53125 -15.96875 C 13.394531 -15.101562 13.828125 -13.867188 13.828125 -12.265625 Z M 7.703125 -1.90625 C 8.835938 -1.90625 9.691406 -2.390625 10.265625 -3.359375 C 10.835938 -4.335938 11.125 -5.640625 11.125 -7.265625 L 11.125 -8.078125 C 11.125 -8.140625 11.113281 -8.25 11.09375 -8.40625 L 10.3125 -8.4375 C 8.4375 -8.4375 7.078125 -8.1875 6.234375 -7.6875 C 5.398438 -7.1875 4.984375 -6.285156 4.984375 -4.984375 C 4.984375 -3.984375 5.222656 -3.21875 5.703125 -2.6875 C 6.191406 -2.164062 6.859375 -1.90625 7.703125 -1.90625 Z M 7.703125 -1.90625 "/></g></g></g><g fill="#000000" fill-opacity="1"><g transform="translate(565.374889, 154.334178)"><g><path d="M 14.40625 -11.828125 L 14.40625 0 L 11.53125 0 L 11.53125 -11.421875 C 11.53125 -12.691406 11.300781 -13.613281 10.84375 -14.1875 C 10.382812 -14.757812 9.6875 -15.046875 8.75 -15.046875 C 7.582031 -15.046875 6.710938 -14.660156 6.140625 -13.890625 C 5.578125 -13.117188 5.296875 -12.082031 5.296875 -10.78125 L 5.296875 0 L 2.40625 0 L 2.40625 -15.71875 L 2.34375 -16.921875 L 5.265625 -16.921875 L 5.265625 -14.734375 C 5.753906 -15.585938 6.335938 -16.21875 7.015625 -16.625 C 7.703125 -17.039062 8.625 -17.25 9.78125 -17.25 C 11.382812 -17.25 12.554688 -16.816406 13.296875 -15.953125 C 14.035156 -15.097656 14.40625 -13.722656 14.40625 -11.828125 Z M 14.40625 -11.828125 "/></g></g></g><g fill="#000000" fill-opacity="1"><g transform="translate(582.120213, 154.334178)"><g><path d="M 5.6875 -16.921875 L 9.28125 -16.921875 L 9.28125 -14.734375 L 5.6875 -14.734375 L 5.6875 -4.453125 C 5.6875 -3.628906 5.84375 -3.019531 6.15625 -2.625 C 6.476562 -2.238281 7.128906 -2.046875 8.109375 -2.046875 C 8.578125 -2.046875 8.988281 -2.085938 9.34375 -2.171875 L 9.34375 -0.0625 C 8.894531 0.0195312 8.425781 0.078125 7.9375 0.109375 C 7.445312 0.148438 6.976562 0.171875 6.53125 0.171875 C 5.082031 0.171875 4.101562 -0.0976562 3.59375 -0.640625 C 3.09375 -1.191406 2.84375 -2.039062 2.84375 -3.1875 L 2.84375 -14.734375 L 0 -14.734375 L 0 -16.921875 L 2.84375 -16.921875 L 2.84375 -20.171875 L 5.6875 -21.40625 Z M 5.6875 -16.921875 "/></g></g></g><g fill="#000000" fill-opacity="1"><g transform="translate(591.43059, 154.334178)"><g><path d="M 13.203125 -18.921875 C 13.203125 -17.691406 12.992188 -16.628906 12.578125 -15.734375 C 12.160156 -14.847656 11.582031 -13.910156 10.84375 -12.921875 C 10.113281 -11.941406 9.566406 -11.226562 9.203125 -10.78125 C 8.847656 -10.332031 8.671875 -9.640625 8.671875 -8.703125 L 8.671875 -6.125 L 6 -6.125 L 6 -9.375 C 6 -10.832031 6.3125 -11.890625 6.9375 -12.546875 C 7.5625 -13.203125 8.210938 -14.132812 8.890625 -15.34375 C 9.578125 -16.550781 9.921875 -17.789062 9.921875 -19.0625 C 9.921875 -20.0625 9.707031 -20.851562 9.28125 -21.4375 C 8.851562 -22.019531 8.257812 -22.3125 7.5 -22.3125 C 6.675781 -22.3125 6.054688 -21.972656 5.640625 -21.296875 C 5.234375 -20.628906 5.03125 -19.691406 5.03125 -18.484375 L 5.03125 -17.75 L 1.875 -17.75 L 1.875 -18.625 C 1.875 -20.519531 2.347656 -21.992188 3.296875 -23.046875 C 4.242188 -24.097656 5.691406 -24.625 7.640625 -24.625 C 9.378906 -24.625 10.738281 -24.140625 11.71875 -23.171875 C 12.707031 -22.210938 13.203125 -20.796875 13.203125 -18.921875 Z M 8.84375 -3.28125 L 8.84375 0 L 5.734375 0 L 5.734375 -3.28125 Z M 8.84375 -3.28125 "/></g></g></g></svg>