<?xml version="1.0" encoding="UTF-8"?>
<svg xmlns="http://www.w3.org/2000/svg" xmlns:xlink="http://www.w3.org/1999/xlink" width="347pt" height="377pt" viewBox="0 0 347 377" version="1.1">
<defs>
<clipPath id="clip1">
  <path d="M 82 107 L 280 107 L 280 376.5 L 82 376.5 Z M 82 107 "/>
</clipPath>
<clipPath id="clip2">
  <path d="M 0.75 72 L 77 72 L 77 145 L 0.75 145 Z M 0.75 72 "/>
</clipPath>
<clipPath id="clip3">
  <path d="M 233 0.75 L 290 0.75 L 290 99 L 233 99 Z M 233 0.75 "/>
</clipPath>
<clipPath id="clip4">
  <path d="M 291 213 L 346.5 213 L 346.5 252 L 291 252 Z M 291 213 "/>
</clipPath>
</defs>
<g id="surface1">
<rect x="0" y="0" width="347" height="377" style="fill:rgb(100%,100%,100%);fill-opacity:1;stroke:none;"/>
<rect x="0" y="0" width="347" height="377" style="fill:rgb(100%,100%,100%);fill-opacity:1;stroke:none;"/>
<g clip-path="url(#clip1)" clip-rule="nonzero">
<path style=" stroke:none;fill-rule:nonzero;fill:rgb(48.629761%,30.198669%,14.509583%);fill-opacity:1;" d="M 279.976562 213.601562 C 250.367188 239.082031 219.6875 248.402344 205.136719 251.589844 C 199.097656 203.21875 203.433594 152.847656 235.917969 107.175781 C 220.269531 121.226562 197.203125 151.628906 185.09375 203.824219 C 168.824219 200.664062 123.859375 188.75 82.671875 148.691406 C 90.945312 178.722656 126 211.949219 180.6875 227.167969 C 175.222656 264.019531 175.144531 309.835938 185.066406 366.007812 C 187.105469 377.558594 236.394531 382.242188 231.992188 366.007812 C 223.949219 336.332031 213.382812 302.476562 207.429688 267.144531 C 248.539062 255.9375 274.535156 237.332031 279.976562 213.601562 Z M 279.976562 213.601562 "/>
</g>
<g clip-path="url(#clip2)" clip-rule="nonzero">
<path style=" stroke:none;fill-rule:nonzero;fill:rgb(37.249756%,100%,31.369019%);fill-opacity:1;" d="M 0.777344 72.941406 C 0.777344 72.941406 1.125 146.535156 76.445312 144.367188 C 75.792969 143.519531 82.300781 94.394531 61.542969 85.851562 C 40.792969 77.320312 18.433594 89.84375 0.777344 72.941406 Z M 0.777344 72.941406 "/>
</g>
<path style=" stroke:none;fill-rule:nonzero;fill:rgb(37.249756%,100%,31.369019%);fill-opacity:1;" d="M 339.144531 169.316406 C 339.144531 169.316406 338.628906 212.902344 294.066406 210.804688 C 294.453125 210.3125 290.8125 181.148438 303.128906 176.308594 C 315.445312 171.480469 328.625 179.140625 339.144531 169.316406 Z M 339.144531 169.316406 "/>
<g clip-path="url(#clip3)" clip-rule="nonzero">
<path style=" stroke:none;fill-rule:nonzero;fill:rgb(37.249756%,100%,31.369019%);fill-opacity:1;" d="M 277.414062 0.75 C 277.414062 0.75 210.140625 30.597656 242.359375 98.722656 C 242.871094 97.785156 290.476562 84.03125 289.964844 61.59375 C 289.460938 39.15625 269.011719 23.707031 277.414062 0.75 Z M 277.414062 0.75 "/>
</g>
<path style=" stroke:none;fill-rule:nonzero;fill:rgb(27.059937%,48.22998%,18.429565%);fill-opacity:1;" d="M 3.660156 192.488281 C 3.660156 192.488281 53.488281 208.460938 68.605469 157.070312 C 67.890625 157.324219 36.117188 142.109375 25.773438 154.261719 C 15.433594 166.40625 18.980469 184.273438 3.660156 192.488281 Z M 3.660156 192.488281 "/>
<path style=" stroke:none;fill-rule:nonzero;fill:rgb(27.059937%,48.22998%,18.429565%);fill-opacity:1;" d="M 283.546875 144.324219 C 283.546875 144.324219 312.410156 176.988281 277.960938 205.332031 C 277.914062 204.707031 255.640625 185.527344 261.53125 173.675781 C 267.425781 161.832031 282.339844 158.667969 283.546875 144.324219 Z M 283.546875 144.324219 "/>
<path style=" stroke:none;fill-rule:nonzero;fill:rgb(27.059937%,48.22998%,18.429565%);fill-opacity:1;" d="M 169.066406 51.367188 C 169.066406 51.367188 174.429688 103.410156 227.570312 96.632812 C 227.054688 96.085938 228.242188 60.875 212.960938 56.277344 C 197.6875 51.679688 182.738281 62.101562 169.066406 51.367188 Z M 169.066406 51.367188 "/>
<path style=" stroke:none;fill-rule:nonzero;fill:rgb(78.819275%,83.139038%,22.349548%);fill-opacity:1;" d="M 139.445312 84.996094 C 139.445312 84.996094 144.144531 141.015625 86.671875 143.796875 C 87.113281 143.113281 78.84375 106.113281 94.0625 98.394531 C 109.289062 90.679688 127.148438 98.898438 139.445312 84.996094 Z M 139.445312 84.996094 "/>
<path style=" stroke:none;fill-rule:nonzero;fill:rgb(78.819275%,83.139038%,22.349548%);fill-opacity:1;" d="M 322.015625 132.597656 C 322.015625 132.597656 272.589844 159.386719 246.976562 107.859375 C 247.78125 107.988281 278.351562 85.566406 291.527344 96.414062 C 304.707031 107.265625 304.34375 126.914062 322.015625 132.597656 Z M 322.015625 132.597656 "/>
<g clip-path="url(#clip4)" clip-rule="nonzero">
<path style=" stroke:none;fill-rule:nonzero;fill:rgb(78.819275%,83.139038%,22.349548%);fill-opacity:1;" d="M 346.472656 248.726562 C 346.472656 248.726562 305.425781 263.402344 291.898438 220.886719 C 292.496094 221.082031 318.574219 207.519531 327.390625 217.390625 C 336.199219 227.253906 333.601562 242.277344 346.472656 248.726562 Z M 346.472656 248.726562 "/>
</g>
</g>
</svg>
