<svg xmlns="http://www.w3.org/2000/svg" xmlns:xlink="http://www.w3.org/1999/xlink" width="800" zoomAndPan="magnify" viewBox="0 0 600 599.999999" height="800" preserveAspectRatio="xMidYMid meet" version="1.0"><defs><clipPath id="01a4b449e6"><path d="M 110.789062 60 L 489.539062 60 L 489.539062 438.75 L 110.789062 438.75 Z M 110.789062 60 " clip-rule="nonzero"/></clipPath><clipPath id="c7f25d7217"><path d="M 175.097656 343 L 401 343 L 401 358 L 175.097656 358 Z M 175.097656 343 " clip-rule="nonzero"/></clipPath><clipPath id="ae6a5c50c9"><path d="M 175.097656 357 L 235 357 L 235 463 L 175.097656 463 Z M 175.097656 357 " clip-rule="nonzero"/></clipPath><clipPath id="1f37b3c58c"><path d="M 175.097656 357 L 401 357 L 401 366 L 175.097656 366 Z M 175.097656 357 " clip-rule="nonzero"/></clipPath><clipPath id="d65a038a7d"><path d="M 224 258.355469 L 242 258.355469 L 242 319 L 224 319 Z M 224 258.355469 " clip-rule="nonzero"/></clipPath><clipPath id="154c0a4f6f"><path d="M 330 440 L 352 440 L 352 507.355469 L 330 507.355469 Z M 330 440 " clip-rule="nonzero"/></clipPath><clipPath id="c5ef7abf8e"><path d="M 406 288 L 443.597656 288 L 443.597656 333 L 406 333 Z M 406 288 " clip-rule="nonzero"/></clipPath></defs><rect x="-60" width="720" fill="#ffffff" y="-60" height="719.999999" fill-opacity="1"/><rect x="-60" width="720" fill="#ffffff" y="-60" height="719.999999" fill-opacity="1"/><rect x="-60" width="720" fill="#ffffff" y="-60" height="719.999999" fill-opacity="1"/><rect x="-60" width="720" fill="#a3bbc3" y="-60" height="719.999999" fill-opacity="1"/><g clip-path="url(#01a4b449e6)"><path fill="#a3bbc3" d="M 489.539062 249.378906 C 489.539062 353.964844 404.757812 438.753906 300.164062 438.753906 C 195.570312 438.753906 110.792969 353.964844 110.792969 249.378906 C 110.792969 144.789062 195.570312 60 300.164062 60 C 404.757812 60 489.539062 144.789062 489.539062 249.378906 " fill-opacity="1" fill-rule="nonzero"/></g><path fill="#ececea" d="M 423.152344 147.066406 C 393.664062 112.050781 349.527344 89.789062 300.164062 89.789062 C 211.394531 89.789062 139.429688 161.738281 139.429688 250.503906 C 139.429688 314.058594 176.332031 368.976562 229.859375 395.058594 C 251.101562 405.414062 274.945312 411.230469 300.164062 411.230469 C 388.929688 411.230469 460.886719 339.265625 460.886719 250.503906 C 460.886719 211.097656 446.679688 175.03125 423.152344 147.066406 " fill-opacity="1" fill-rule="nonzero"/><path fill="#a3bbc3" d="M 303.410156 153.078125 C 303.410156 153.964844 301.964844 154.679688 300.164062 154.679688 C 298.375 154.679688 296.914062 153.964844 296.914062 153.078125 L 296.914062 108.066406 C 296.914062 107.1875 298.375 106.472656 300.164062 106.472656 C 301.964844 106.472656 303.410156 107.1875 303.410156 108.066406 L 303.410156 153.078125 " fill-opacity="1" fill-rule="nonzero"/><path fill="#a3bbc3" d="M 303.410156 396.015625 C 303.410156 396.890625 301.960938 397.609375 300.164062 397.609375 C 298.375 397.609375 296.914062 396.890625 296.914062 396.015625 L 296.914062 350.996094 C 296.914062 350.117188 298.375 349.398438 300.164062 349.398438 C 301.960938 349.398438 303.410156 350.117188 303.410156 350.996094 L 303.410156 396.015625 " fill-opacity="1" fill-rule="nonzero"/><path fill="#a3bbc3" d="M 400.613281 255.28125 C 399.730469 255.28125 399.019531 253.835938 399.019531 252.039062 C 399.019531 250.246094 399.730469 248.789062 400.613281 248.789062 L 445.625 248.789062 C 446.519531 248.789062 447.222656 250.246094 447.222656 252.039062 C 447.222656 253.835938 446.519531 255.28125 445.625 255.28125 L 400.613281 255.28125 " fill-opacity="1" fill-rule="nonzero"/><path fill="#ececea" d="M 291.867188 250.867188 L 296.089844 258.535156 L 199.011719 312.144531 L 188.941406 312.917969 L 194.769531 304.480469 L 291.867188 250.867188 " fill-opacity="1" fill-rule="nonzero"/><path fill="#a3bbc3" d="M 155.351562 255.28125 C 154.476562 255.28125 153.761719 253.832031 153.761719 252.039062 C 153.761719 250.246094 154.476562 248.789062 155.351562 248.789062 L 200.367188 248.789062 C 201.246094 248.789062 201.964844 250.246094 201.964844 252.039062 C 201.964844 253.832031 201.246094 255.28125 200.367188 255.28125 L 155.351562 255.28125 " fill-opacity="1" fill-rule="nonzero"/><path fill="#4a4f54" d="M 295.648438 243.140625 C 304.222656 243.140625 311.167969 250.09375 311.167969 258.667969 C 311.167969 267.238281 304.222656 274.1875 295.648438 274.1875 C 287.070312 274.1875 280.117188 267.238281 280.117188 258.667969 C 280.117188 250.09375 287.070312 243.140625 295.648438 243.140625 " fill-opacity="1" fill-rule="nonzero"/><path fill="#4a4f54" d="M 296.757812 247.113281 L 283.695312 258.667969 L 244.308594 213.503906 L 244.308594 199.390625 L 257.375 201.945312 L 296.757812 247.113281 " fill-opacity="1" fill-rule="nonzero"/><path fill="#4a4f54" d="M 303.015625 259.390625 L 295.640625 248.195312 L 401.4375 178.445312 L 413.71875 178.023438 L 408.824219 189.632812 L 303.015625 259.390625 " fill-opacity="1" fill-rule="nonzero"/><g clip-path="url(#c7f25d7217)"><path fill="#22186f" d="M 175.355469 357.503906 L 208.652344 343.859375 L 371.855469 344.902344 L 400.882812 357.0625 L 175.355469 357.503906 " fill-opacity="1" fill-rule="nonzero"/></g><path fill="#22186f" d="M 392.226562 462.359375 L 392.226562 365.714844 L 373.710938 365.714844 L 373.710938 446.691406 L 392.226562 462.359375 " fill-opacity="1" fill-rule="nonzero"/><path fill="#6886dc" d="M 400.882812 462.359375 L 392.226562 462.359375 L 392.226562 357.0625 L 400.882812 357.0625 L 400.882812 462.359375 " fill-opacity="1" fill-rule="nonzero"/><g clip-path="url(#ae6a5c50c9)"><path fill="#6886dc" d="M 176.070312 462.359375 L 175.25 357.0625 L 233.867188 358.085938 L 234.242188 462.359375 L 176.070312 462.359375 " fill-opacity="1" fill-rule="nonzero"/></g><path fill="#22186f" d="M 234.242188 462.359375 L 233.894531 365.714844 L 257.441406 365.714844 L 258.023438 446.382812 L 234.242188 462.359375 " fill-opacity="1" fill-rule="nonzero"/><path fill="#22186f" d="M 227.679688 366.863281 L 227.804688 457.160156 L 227.679688 366.863281 " fill-opacity="1" fill-rule="nonzero"/><path fill="#22186f" d="M 227.804688 458.019531 C 227.332031 458.019531 226.949219 457.636719 226.945312 457.164062 L 226.820312 366.863281 C 226.820312 366.386719 227.203125 366.003906 227.679688 366.003906 C 228.152344 366.007812 228.535156 366.386719 228.535156 366.859375 L 228.664062 457.160156 C 228.667969 457.632812 228.28125 458.019531 227.808594 458.019531 C 227.808594 458.019531 227.808594 458.019531 227.804688 458.019531 " fill-opacity="1" fill-rule="nonzero"/><path fill="#22186f" d="M 180.648438 366.863281 L 180.777344 457.160156 L 180.648438 366.863281 " fill-opacity="1" fill-rule="nonzero"/><path fill="#22186f" d="M 180.777344 458.019531 C 180.304688 458.019531 179.921875 457.636719 179.917969 457.164062 L 179.789062 366.863281 C 179.789062 366.386719 180.175781 366.003906 180.648438 366.003906 C 181.121094 366.003906 181.507812 366.386719 181.507812 366.859375 L 181.636719 457.160156 C 181.636719 457.632812 181.253906 458.019531 180.78125 458.019531 C 180.78125 458.019531 180.78125 458.019531 180.777344 458.019531 " fill-opacity="1" fill-rule="nonzero"/><path fill="#22186f" d="M 201.703125 387.023438 C 201.703125 385.628906 202.832031 384.5 204.226562 384.5 C 205.621094 384.5 206.753906 385.628906 206.753906 387.023438 C 206.753906 388.421875 205.621094 389.550781 204.226562 389.550781 C 202.832031 389.550781 201.703125 388.421875 201.703125 387.023438 " fill-opacity="1" fill-rule="nonzero"/><path fill="#22186f" d="M 201.703125 435.203125 C 201.703125 433.808594 202.832031 432.679688 204.226562 432.679688 C 205.621094 432.679688 206.753906 433.808594 206.753906 435.203125 C 206.753906 436.601562 205.621094 437.730469 204.226562 437.730469 C 202.832031 437.730469 201.703125 436.601562 201.703125 435.203125 " fill-opacity="1" fill-rule="nonzero"/><path fill="#22186f" d="M 227.804688 412.871094 L 180.777344 412.871094 C 180.304688 412.871094 179.917969 412.484375 179.917969 412.011719 C 179.917969 411.535156 180.304688 411.152344 180.777344 411.152344 L 227.804688 411.152344 C 228.28125 411.152344 228.664062 411.535156 228.664062 412.011719 C 228.664062 412.484375 228.28125 412.871094 227.804688 412.871094 " fill-opacity="1" fill-rule="nonzero"/><g clip-path="url(#1f37b3c58c)"><path fill="#6886dc" d="M 400.882812 365.714844 L 175.25 365.714844 L 175.25 357.0625 L 400.882812 357.0625 L 400.882812 365.714844 " fill-opacity="1" fill-rule="nonzero"/></g><path fill="#6886dc" d="M 342.953125 285.636719 C 342.933594 283.996094 341.75 282.675781 340.292969 282.675781 L 269.53125 282.675781 C 268.042969 282.675781 266.847656 284.046875 266.871094 285.726562 L 267.535156 332.257812 C 267.558594 333.898438 268.746094 335.210938 270.199219 335.207031 L 298.738281 335.15625 C 299.496094 336.074219 300.234375 337.324219 300.535156 338.910156 C 301.261719 342.726562 301.074219 342.550781 298.230469 344.140625 C 295.390625 345.730469 289.957031 347.207031 289.015625 349.707031 C 288.070312 352.210938 292.535156 354.023438 301.796875 354.710938 C 311.054688 355.402344 321.878906 352.746094 321.476562 350.03125 C 321.078125 347.308594 311.589844 345.171875 310.039062 343.285156 C 308.488281 341.394531 308.886719 340.109375 309.472656 337.902344 C 309.671875 337.152344 309.957031 336.144531 310.253906 335.136719 L 340.851562 335.078125 C 342.332031 335.074219 343.53125 333.707031 343.507812 332.039062 L 342.953125 285.636719 " fill-opacity="1" fill-rule="nonzero"/><path fill="#ffffff" d="M 270.566406 329.433594 L 269.878906 286.535156 L 339.925781 286.535156 L 340.5 329.316406 L 270.566406 329.433594 " fill-opacity="1" fill-rule="nonzero"/><path fill="#6886dc" d="M 214.03125 349.394531 L 212.515625 330.144531 C 212.515625 330.144531 217.558594 332.554688 224.359375 332.554688 C 231.15625 332.554688 236.660156 330.074219 236.660156 330.074219 L 235.46875 349.539062 C 235.46875 349.539062 232.976562 352.207031 225.277344 352.207031 C 216.773438 352.207031 214.03125 349.394531 214.03125 349.394531 " fill-opacity="1" fill-rule="nonzero"/><path fill="#f57c52" d="M 201.898438 264.027344 C 201.898438 264.027344 202.984375 292.570312 206.824219 301.832031 C 210.664062 311.097656 223.101562 317.859375 223.101562 317.859375 C 223.101562 317.859375 234.195312 312.109375 226.941406 295.492188 C 219.683594 278.875 201.898438 264.027344 201.898438 264.027344 " fill-opacity="1" fill-rule="nonzero"/><path fill="#f57c52" d="M 212.511719 330.074219 C 212.511719 328.390625 217.917969 327.027344 224.585938 327.027344 C 231.253906 327.027344 236.660156 328.390625 236.660156 330.074219 C 236.660156 331.757812 231.253906 333.125 224.585938 333.125 C 217.917969 333.125 212.511719 331.757812 212.511719 330.074219 " fill-opacity="1" fill-rule="nonzero"/><path fill="#f57c52" d="M 183.867188 279.71875 C 183.867188 279.71875 193.132812 305.921875 197.140625 313.015625 C 201.148438 320.109375 207.601562 324.246094 212.582031 321.445312 C 217.566406 318.644531 218.175781 312 212 303.503906 C 205.820312 295.007812 183.867188 279.71875 183.867188 279.71875 " fill-opacity="1" fill-rule="nonzero"/><g clip-path="url(#d65a038a7d)"><path fill="#f57c52" d="M 236.871094 258.351562 C 236.871094 258.351562 228.027344 282.472656 225.855469 293.070312 C 223.683594 303.667969 223.375 320.304688 229.445312 318.355469 C 235.511719 316.414062 240.714844 304.214844 241.132812 291.570312 C 241.546875 278.921875 236.871094 258.351562 236.871094 258.351562 " fill-opacity="1" fill-rule="nonzero"/></g><path fill="#22186f" d="M 219.957031 307.324219 C 219.757812 306.785156 219.542969 306.257812 219.328125 305.726562 C 219.34375 305.707031 219.359375 305.6875 219.367188 305.664062 C 220.738281 302.75 222.246094 299.894531 223.875 297.117188 C 224.15625 296.644531 223.417969 296.214844 223.144531 296.6875 C 221.617188 299.285156 220.199219 301.941406 218.882812 304.648438 C 217.847656 302.195312 216.699219 299.792969 215.546875 297.390625 C 216.359375 293.929688 217.289062 290.503906 218.382812 287.121094 C 218.5625 286.5625 217.683594 286.320312 217.503906 286.878906 C 216.527344 289.910156 215.652344 292.976562 214.914062 296.078125 C 213.367188 292.839844 211.835938 289.59375 210.589844 286.222656 C 210.589844 286.214844 210.585938 286.214844 210.585938 286.207031 C 210.910156 284.9375 211.648438 283.734375 212.222656 282.5625 C 212.835938 281.300781 213.449219 280.039062 214.066406 278.78125 C 214.300781 278.300781 213.582031 277.878906 213.347656 278.359375 C 212.683594 279.707031 212.019531 281.046875 211.355469 282.390625 C 210.953125 283.203125 210.46875 284.03125 210.109375 284.886719 C 208.855469 281.300781 207.863281 277.625 207.152344 273.890625 C 207.042969 273.332031 206.191406 273.570312 206.296875 274.128906 C 206.972656 277.699219 207.878906 281.226562 209.054688 284.667969 C 208.625 284.371094 208.179688 284.09375 207.742188 283.808594 C 206.742188 283.152344 205.742188 282.492188 204.742188 281.835938 C 204.277344 281.53125 203.84375 282.273438 204.304688 282.578125 C 205.226562 283.183594 206.148438 283.789062 207.066406 284.394531 C 207.9375 284.96875 208.867188 285.503906 209.613281 286.242188 C 210.765625 289.371094 212.132812 292.40625 213.574219 295.414062 C 213.769531 295.824219 213.96875 296.234375 214.164062 296.644531 C 211.945312 295.074219 209.71875 293.535156 207.40625 292.09375 C 206.941406 291.804688 206.519531 292.539062 206.980469 292.828125 C 209.609375 294.472656 212.21875 296.195312 214.667969 298.097656 C 214.742188 298.15625 214.828125 298.191406 214.921875 298.207031 C 215.9375 300.316406 216.941406 302.433594 217.859375 304.589844 C 215.574219 303.804688 213.273438 303.058594 210.949219 302.386719 C 210.402344 302.226562 210.171875 303.074219 210.714844 303.238281 C 213.261719 304.015625 215.796875 304.8125 218.316406 305.679688 C 218.367188 305.808594 218.421875 305.9375 218.476562 306.066406 C 219.84375 309.480469 220.984375 312.988281 221.882812 316.554688 C 222.929688 320.691406 223.640625 324.902344 224.03125 329.152344 C 224.082031 329.742188 225.015625 329.75 224.960938 329.152344 C 224.28125 321.6875 222.613281 314.332031 219.957031 307.324219 " fill-opacity="1" fill-rule="nonzero"/><path fill="#22186f" d="M 233.53125 295.460938 C 233.765625 294.867188 234.457031 294.601562 234.957031 294.273438 C 235.492188 293.917969 235.992188 293.507812 236.472656 293.082031 C 237.535156 292.140625 238.5625 291.15625 239.597656 290.191406 C 240.011719 289.804688 239.394531 289.183594 238.976562 289.570312 C 237.8125 290.652344 236.679688 291.785156 235.460938 292.804688 C 234.972656 293.210938 234.351562 293.539062 233.808594 293.929688 C 234.398438 290.695312 234.886719 287.441406 235.257812 284.15625 C 235.269531 284.148438 235.28125 284.140625 235.296875 284.128906 C 235.746094 283.78125 236.140625 283.328125 236.554688 282.9375 C 237.460938 282.070312 238.367188 281.207031 239.273438 280.34375 C 239.6875 279.945312 239.058594 279.3125 238.640625 279.710938 C 237.941406 280.375 237.246094 281.039062 236.550781 281.703125 C 236.234375 282.003906 235.921875 282.304688 235.609375 282.601562 C 235.539062 282.667969 235.472656 282.734375 235.40625 282.796875 C 235.859375 278.441406 236.15625 274.070312 236.375 269.695312 C 236.402344 269.144531 235.542969 269.148438 235.519531 269.695312 C 235.289062 274.082031 234.96875 278.472656 234.492188 282.839844 C 234.375 282.609375 234.273438 282.339844 234.1875 282.191406 C 233.964844 281.8125 233.742188 281.4375 233.503906 281.070312 C 233.039062 280.332031 232.539062 279.613281 232.03125 278.90625 C 231.710938 278.46875 230.972656 278.890625 231.292969 279.335938 C 231.933594 280.222656 232.535156 281.128906 233.101562 282.066406 C 233.394531 282.550781 233.675781 283.042969 233.949219 283.542969 C 234.054688 283.746094 234.164062 284.015625 234.339844 284.195312 C 233.960938 287.441406 233.5 290.671875 232.921875 293.886719 C 232.914062 293.941406 232.902344 294 232.890625 294.058594 C 231.742188 292.019531 230.523438 290.023438 229.199219 288.089844 C 228.890625 287.640625 228.148438 288.066406 228.460938 288.523438 C 229.972656 290.738281 231.386719 293.023438 232.640625 295.390625 C 232.039062 298.449219 231.300781 301.46875 230.539062 304.480469 C 229.46875 302.511719 228.367188 300.554688 227.214844 298.628906 C 226.933594 298.15625 226.191406 298.589844 226.476562 299.0625 C 227.785156 301.25 229.039062 303.46875 230.222656 305.726562 C 229.277344 309.429688 228.320312 313.125 227.558594 316.867188 C 226.699219 321.082031 226.136719 325.367188 226.222656 329.671875 C 226.234375 330.269531 227.167969 330.273438 227.15625 329.671875 C 227.003906 321.796875 229.046875 314.160156 231 306.597656 C 231.078125 306.304688 231.152344 306.007812 231.226562 305.714844 C 233.605469 304.628906 235.859375 303.289062 237.972656 301.742188 C 238.421875 301.410156 237.980469 300.644531 237.527344 300.980469 C 235.632812 302.386719 233.613281 303.59375 231.5 304.621094 C 232.25 301.589844 232.929688 298.546875 233.519531 295.488281 C 233.519531 295.476562 233.527344 295.472656 233.53125 295.460938 " fill-opacity="1" fill-rule="nonzero"/><path fill="#22186f" d="M 222.421875 330.15625 C 218.382812 324.773438 212.605469 321.046875 208.132812 316.054688 C 206.761719 314.527344 205.480469 312.925781 204.265625 311.273438 C 204.777344 308.085938 205.441406 304.933594 206.285156 301.820312 C 206.425781 301.289062 205.605469 301.0625 205.460938 301.589844 C 204.683594 304.460938 204.042969 307.363281 203.558594 310.292969 C 202.046875 308.160156 200.644531 305.949219 199.320312 303.695312 C 199.140625 300.84375 199.839844 298.03125 199.671875 295.175781 C 199.640625 294.640625 198.800781 294.632812 198.828125 295.175781 C 198.960938 297.507812 198.484375 299.808594 198.417969 302.128906 C 197.894531 301.203125 197.378906 300.273438 196.871094 299.339844 C 195.058594 295.972656 193.347656 292.554688 191.65625 289.128906 C 191.402344 288.621094 190.644531 289.066406 190.894531 289.574219 C 193.039062 293.929688 195.183594 298.289062 197.570312 302.511719 C 196.109375 301.667969 194.652344 300.8125 193.195312 299.960938 C 192.710938 299.679688 192.273438 300.433594 192.757812 300.714844 C 194.652344 301.816406 196.554688 302.914062 198.4375 304.03125 C 199.089844 305.144531 199.757812 306.242188 200.449219 307.332031 C 201.09375 308.339844 201.753906 309.335938 202.441406 310.3125 C 200.53125 309.65625 198.609375 309.042969 196.675781 308.464844 C 196.144531 308.304688 195.917969 309.132812 196.445312 309.292969 C 198.757812 309.984375 201.046875 310.746094 203.320312 311.550781 C 204.28125 312.875 205.285156 314.160156 206.339844 315.410156 C 208.492188 317.953125 210.871094 320.246094 213.375 322.4375 C 216.285156 324.992188 219.28125 327.511719 221.617188 330.625 C 221.972656 331.101562 222.78125 330.636719 222.421875 330.15625 " fill-opacity="1" fill-rule="nonzero"/><path fill="#c8d6fc" d="M 424.023438 432.890625 C 421.742188 434.628906 417.949219 435.535156 412.085938 436.570312 L 431.019531 491.0625 C 431.175781 491.503906 431.5 491.863281 431.925781 492.054688 C 432.621094 492.367188 433.753906 492.675781 434.941406 492.175781 C 436.210938 491.640625 436.722656 490.707031 436.925781 490.132812 C 437.019531 489.855469 437.035156 489.5625 436.972656 489.277344 L 424.023438 432.890625 " fill-opacity="1" fill-rule="nonzero"/><path fill="#c8d6fc" d="M 380.617188 468.089844 C 380.703125 468.660156 381.128906 469.117188 381.691406 469.242188 C 382.347656 469.382812 383.21875 469.523438 383.898438 469.464844 C 384.539062 469.40625 385.25 469.074219 385.789062 468.769531 C 386.320312 468.472656 386.636719 467.898438 386.613281 467.289062 L 385.605469 440.988281 C 382.628906 441.371094 379.609375 441.703125 376.667969 441.996094 L 380.617188 468.089844 " fill-opacity="1" fill-rule="nonzero"/><path fill="#6886dc" d="M 425.109375 431.863281 C 428.429688 427.929688 430.929688 425.695312 432.613281 417.980469 C 434.296875 410.265625 414.070312 406.855469 393.976562 406.855469 C 373.878906 406.855469 351.972656 416.339844 350.851562 423.757812 C 349.726562 431.175781 353.179688 443.675781 353.179688 443.675781 C 353.179688 443.675781 364.199219 443.234375 376.667969 441.996094 C 379.609375 441.703125 382.628906 441.371094 385.605469 440.988281 C 389.226562 440.519531 392.78125 439.984375 396.042969 439.367188 C 402.59375 438.125 407.871094 437.3125 412.085938 436.570312 C 417.949219 435.535156 421.742188 434.628906 424.023438 432.890625 C 424.433594 432.578125 424.792969 432.238281 425.109375 431.863281 " fill-opacity="1" fill-rule="nonzero"/><path fill="#f57c52" d="M 361.171875 387.738281 C 361.171875 387.738281 350.898438 378.90625 342.921875 377.042969 C 334.941406 375.1875 330.683594 377.269531 328.269531 380.53125 C 325.859375 383.792969 327.226562 390.527344 327.226562 390.527344 C 327.226562 390.527344 334.898438 392.273438 337.222656 392.851562 C 339.546875 393.433594 350.707031 393.667969 350.707031 393.667969 L 357.453125 392.386719 L 361.171875 387.738281 " fill-opacity="1" fill-rule="nonzero"/><path fill="#fecda4" d="M 348.351562 274.386719 C 348.351562 274.386719 347.75 279.757812 348.628906 286.648438 C 349.507812 293.539062 351.230469 295.546875 353.144531 297.460938 C 355.058594 299.375 356.878906 299.078125 356.878906 299.078125 L 357.996094 309.386719 L 363.066406 307.4375 C 363.066406 307.4375 367.867188 288.441406 363.84375 282.191406 C 359.824219 275.9375 348.351562 274.386719 348.351562 274.386719 " fill-opacity="1" fill-rule="nonzero"/><path fill="#fecda4" d="M 334.132812 341.945312 C 334.132812 341.945312 330 349.351562 328.253906 352.183594 C 326.507812 355.011719 327.035156 354.5625 323.355469 353.074219 C 319.679688 351.585938 305.457031 344.253906 299.730469 340.371094 C 297.730469 339.007812 293.785156 335.433594 291.921875 333.21875 C 290.058594 331.003906 289.027344 329.398438 287.648438 329.570312 C 286.269531 329.738281 291.261719 336.550781 289.605469 336.421875 C 288.359375 336.328125 285.519531 333.988281 282.960938 332.351562 C 282.128906 331.820312 281.296875 331.421875 280.613281 331.082031 C 277.863281 329.710938 278.53125 331.027344 279.726562 331.847656 C 280.921875 332.667969 285.304688 336.328125 284.519531 336.222656 C 283.738281 336.121094 276.410156 330.953125 275.558594 331.152344 C 274.707031 331.351562 277.699219 334.359375 279.066406 335.425781 C 280.433594 336.492188 283.191406 337.976562 282.402344 338.066406 C 281.613281 338.152344 275.285156 333.617188 274.589844 334.132812 C 273.886719 334.644531 279.398438 338.703125 280.496094 339.640625 C 281.601562 340.570312 274.917969 336.515625 274.515625 337.140625 C 274.109375 337.757812 277.371094 340.03125 280.074219 342.335938 C 282.777344 344.644531 286.3125 346.171875 291.007812 349.925781 C 295.699219 353.683594 311.589844 369.46875 323.136719 373.847656 C 331.757812 377.113281 336.066406 375.347656 341.117188 367.199219 C 346.167969 359.042969 349.539062 354.882812 349.539062 354.882812 L 334.132812 341.945312 " fill-opacity="1" fill-rule="nonzero"/><path fill="#f57c52" d="M 343.316406 385.652344 C 343.316406 385.652344 313.914062 369.453125 298.773438 375.617188 C 283.632812 381.785156 282.019531 399.636719 285.285156 420.46875 C 288.550781 441.304688 299.085938 465.632812 299.085938 465.632812 C 299.085938 465.632812 301.023438 468.101562 305.210938 468.101562 C 309.394531 468.101562 312.097656 466.050781 312.097656 466.050781 C 312.097656 466.050781 312.339844 438.140625 313.417969 424.578125 C 314.496094 411.015625 329.832031 415.054688 340.09375 412.269531 C 350.351562 409.484375 359 407.140625 355.042969 397.761719 C 351.085938 388.382812 343.316406 385.652344 343.316406 385.652344 " fill-opacity="1" fill-rule="nonzero"/><path fill="#c44d2f" d="M 344.382812 392.191406 C 336.375 388.125 327.890625 384.679688 318.929688 383.511719 C 314.519531 382.9375 309.804688 382.789062 305.457031 383.839844 C 301.824219 384.726562 298.636719 386.828125 296.21875 389.660156 C 290.617188 396.222656 289.710938 405.070312 290.621094 413.351562 C 291.644531 422.679688 294.21875 431.820312 296.679688 440.855469 C 299.152344 449.945312 301.683594 459.050781 303.117188 468.375 C 303.199219 468.902344 303.273438 469.421875 303.347656 469.945312 C 300.335938 460.773438 297.097656 451.671875 294.257812 442.441406 C 292.835938 437.824219 291.539062 433.164062 290.515625 428.4375 C 289.492188 423.699219 288.765625 418.902344 288.058594 414.105469 C 286.777344 405.425781 285.707031 395.796875 290.511719 387.929688 C 294.917969 380.71875 303.515625 378.152344 311.570312 378.734375 C 316.25 379.074219 320.808594 380.363281 325.230469 381.875 C 329.761719 383.425781 334.226562 385.175781 338.628906 387.066406 C 339.742188 387.542969 340.851562 388.03125 341.957031 388.53125 C 342.53125 388.789062 343.03125 387.945312 342.453125 387.683594 C 337.992188 385.664062 333.464844 383.804688 328.875 382.097656 C 324.347656 380.417969 319.730469 378.851562 314.949219 378.085938 C 306.96875 376.808594 297.875 377.996094 292.0625 384.144531 C 285.839844 390.726562 285.359375 400.386719 286.304688 408.902344 C 287.402344 418.753906 289.164062 428.59375 291.878906 438.132812 C 294.628906 447.792969 298.007812 457.277344 301.191406 466.796875 C 301.585938 467.980469 301.984375 469.164062 302.386719 470.347656 C 302.570312 470.875 303.300781 470.769531 303.402344 470.339844 C 303.480469 470.902344 303.554688 471.460938 303.621094 472.023438 C 303.703125 472.675781 304.730469 472.6875 304.652344 472.023438 C 303.609375 462.96875 301.359375 454.113281 298.988281 445.328125 C 296.601562 436.484375 294.082031 427.652344 292.476562 418.621094 C 290.988281 410.238281 290.390625 400.988281 294.894531 393.375 C 296.722656 390.285156 299.3125 387.609375 302.5625 386.019531 C 306.46875 384.105469 311.15625 384.007812 315.421875 384.242188 C 324.332031 384.738281 332.933594 387.769531 340.929688 391.585938 C 341.921875 392.058594 342.90625 392.546875 343.886719 393.042969 C 344.453125 393.328125 344.953125 392.476562 344.382812 392.191406 " fill-opacity="1" fill-rule="nonzero"/><path fill="#c44d2f" d="M 341.011719 412.539062 C 331.578125 410.699219 321.707031 414.277344 315.785156 421.875 C 312.839844 425.652344 311.136719 430.066406 310.460938 434.789062 C 309.664062 440.414062 309.417969 446.160156 309.1875 451.828125 C 308.925781 458.339844 308.859375 464.871094 309.101562 471.382812 C 309.125 472.054688 310.160156 472.058594 310.148438 471.382812 C 309.90625 460.320312 310.132812 449.257812 311.140625 438.234375 C 311.585938 433.367188 312.5625 428.714844 315.199219 424.53125 C 317.578125 420.757812 320.960938 417.640625 324.953125 415.636719 C 329.800781 413.207031 335.433594 412.441406 340.753906 413.476562 C 341.363281 413.59375 341.625 412.660156 341.011719 412.539062 " fill-opacity="1" fill-rule="nonzero"/><path fill="#c44d2f" d="M 351.527344 400.914062 C 343.425781 399.773438 335.296875 398.777344 327.15625 397.953125 C 325.058594 397.738281 322.960938 397.53125 320.863281 397.339844 C 319.019531 397.171875 317.160156 397.011719 315.3125 397.113281 C 311.917969 397.296875 308.839844 398.503906 306.382812 400.875 C 301.125 405.957031 300.191406 413.988281 300.21875 420.929688 C 300.25 428.996094 301.878906 436.941406 303.039062 444.894531 C 303.972656 451.269531 304.585938 457.679688 305.109375 464.09375 C 302.1875 450.007812 299.597656 435.871094 297.558594 421.621094 C 296.539062 414.464844 295.164062 406.21875 299.148438 399.683594 C 303.035156 393.308594 310.84375 390.8125 317.953125 390.953125 C 327.628906 391.140625 336.589844 395.351562 345.878906 397.523438 C 346.496094 397.667969 346.757812 396.71875 346.140625 396.574219 C 337.613281 394.566406 329.480469 390.898438 320.695312 390.046875 C 313.359375 389.332031 305.316406 390.921875 300.148438 396.566406 C 294.894531 402.296875 295.023438 410.386719 295.925781 417.628906 C 297.007812 426.308594 298.457031 434.953125 299.984375 443.5625 C 301.683594 453.15625 303.546875 462.734375 305.742188 472.226562 C 305.75 472.367188 305.761719 472.511719 305.773438 472.65625 C 305.78125 472.796875 305.835938 472.902344 305.914062 472.984375 C 305.949219 473.132812 305.984375 473.285156 306.019531 473.433594 C 306.164062 474.042969 307.027344 473.847656 307.042969 473.296875 C 307.246094 473.742188 308.027344 473.671875 308.023438 473.089844 C 307.972656 466.617188 307.816406 460.144531 307.707031 453.675781 C 307.597656 447.472656 307.515625 441.261719 307.894531 435.070312 C 308.273438 428.953125 309.105469 422.820312 310.875 416.9375 C 312.421875 411.792969 315.566406 406.074219 321.507812 405.445312 C 323.238281 405.261719 325.007812 405.371094 326.746094 405.433594 C 328.539062 405.496094 330.332031 405.59375 332.121094 405.722656 C 335.75 405.988281 339.375 406.386719 342.972656 406.929688 C 343.585938 407.019531 343.851562 406.082031 343.230469 405.988281 C 336.765625 405.011719 330.210938 404.382812 323.667969 404.332031 C 320.800781 404.3125 318.195312 404.902344 315.898438 406.683594 C 313.730469 408.363281 312.191406 410.691406 311.117188 413.1875 C 309.917969 415.964844 309.164062 418.933594 308.542969 421.882812 C 307.894531 424.964844 307.445312 428.097656 307.140625 431.234375 C 306.519531 437.636719 306.503906 444.078125 306.59375 450.507812 C 306.699219 458 306.796875 465.492188 306.996094 472.980469 C 306.914062 472.613281 306.835938 472.242188 306.757812 471.871094 C 306.316406 464.1875 305.640625 456.496094 304.660156 448.863281 C 303.65625 441.042969 302.015625 433.289062 301.464844 425.417969 C 301.195312 421.53125 301.195312 417.597656 301.75 413.730469 C 302.246094 410.277344 303.21875 406.808594 305.210938 403.90625 C 307.09375 401.167969 309.832031 399.113281 313.113281 398.449219 C 316.753906 397.707031 320.640625 398.359375 324.296875 398.703125 C 333.308594 399.5625 342.300781 400.613281 351.265625 401.859375 C 351.886719 401.949219 352.152344 401.003906 351.527344 400.914062 " fill-opacity="1" fill-rule="nonzero"/><path fill="#f57c52" d="M 386.648438 434.472656 C 378.511719 436.871094 359.617188 436.839844 350.625 433.511719 C 341.632812 430.183594 360.566406 406.320312 360.566406 406.320312 L 395.269531 414.484375 L 400.652344 420.609375 C 400.652344 420.609375 400.03125 430.523438 386.648438 434.472656 " fill-opacity="1" fill-rule="nonzero"/><path fill="#c44d2f" d="M 377.460938 419.644531 C 368.082031 421.324219 358.558594 420.757812 349.378906 418.292969 C 348.769531 418.128906 348.515625 419.0625 349.117188 419.234375 C 358.351562 421.925781 368.277344 422.289062 377.722656 420.601562 C 378.347656 420.488281 378.082031 419.535156 377.460938 419.644531 " fill-opacity="1" fill-rule="nonzero"/><path fill="#c44d2f" d="M 383.453125 422.132812 C 373.636719 425.203125 363.074219 425.8125 352.964844 423.90625 C 350.109375 423.363281 347.308594 422.613281 344.550781 421.714844 C 343.941406 421.515625 343.691406 422.460938 344.285156 422.667969 C 354.070312 426.066406 364.796875 426.824219 375 425.15625 C 377.949219 424.671875 380.863281 423.972656 383.714844 423.078125 C 384.3125 422.890625 384.058594 421.945312 383.453125 422.132812 " fill-opacity="1" fill-rule="nonzero"/><path fill="#c44d2f" d="M 390.585938 422.4375 C 380.355469 428.539062 368.089844 430.992188 356.28125 429.5 C 352.890625 429.070312 349.574219 428.277344 346.320312 427.25 C 345.691406 427.050781 345.4375 428.015625 346.050781 428.230469 C 357.476562 432.214844 370.511719 431.796875 381.835938 427.6875 C 385.050781 426.523438 388.148438 425.050781 391.085938 423.292969 C 391.636719 422.96875 391.136719 422.109375 390.585938 422.4375 " fill-opacity="1" fill-rule="nonzero"/><path fill="#c44d2f" d="M 396.757812 421.515625 C 394.824219 424.175781 392.5625 426.648438 389.878906 428.574219 C 386.960938 430.671875 383.621094 431.925781 380.160156 432.804688 C 373.328125 434.53125 366.128906 434.855469 359.164062 433.78125 C 355.296875 433.183594 351.550781 432.132812 347.890625 430.761719 C 347.265625 430.53125 347.019531 431.507812 347.621094 431.75 C 354.300781 434.460938 361.671875 435.632812 368.867188 435.414062 C 372.460938 435.304688 376.050781 434.835938 379.550781 434.011719 C 383.117188 433.171875 386.632812 431.976562 389.695312 429.925781 C 392.824219 427.828125 395.40625 425.050781 397.605469 422.011719 C 397.980469 421.5 397.125 421.007812 396.757812 421.515625 " fill-opacity="1" fill-rule="nonzero"/><path fill="#c8d6fc" d="M 372.203125 303.648438 C 372.203125 303.648438 357.742188 304.921875 351.175781 312.027344 C 344.613281 319.132812 331.929688 342.332031 331.929688 342.332031 C 331.929688 342.332031 332.675781 346.304688 338.546875 352.175781 C 344.421875 358.046875 347.695312 359.402344 347.695312 359.402344 C 347.695312 359.402344 346.554688 370.9375 344.210938 375.683594 C 341.867188 380.429688 339.59375 385.261719 340.203125 388.226562 C 340.816406 391.1875 351.121094 406.195312 364.914062 415.648438 C 378.703125 425.105469 397.445312 428.121094 400.640625 420.996094 C 403.835938 413.875 406.109375 396.089844 407.324219 382.601562 C 408.539062 369.113281 410.121094 353.320312 410.121094 353.320312 C 410.121094 353.320312 415.464844 338.742188 405.5 325.859375 C 395.539062 312.980469 393.203125 310.828125 388.789062 308.09375 C 382.625 304.269531 372.203125 303.648438 372.203125 303.648438 " fill-opacity="1" fill-rule="nonzero"/><path fill="#f57c52" d="M 329.070312 425.289062 L 344.988281 462.160156 C 346.125 464.800781 348.613281 466.480469 351.210938 466.34375 C 351.65625 466.320312 352.136719 466.285156 352.664062 466.238281 C 357.585938 465.796875 359.554688 463.792969 358.777344 461.046875 C 358.003906 458.296875 353.8125 423.28125 353.8125 423.28125 L 329.070312 425.289062 " fill-opacity="1" fill-rule="nonzero"/><path fill="#c44d2f" d="M 349.277344 468.367188 C 345.382812 457.144531 341.152344 446.027344 337.078125 434.867188 C 336.867188 434.285156 335.929688 434.539062 336.144531 435.125 C 340.203125 446.289062 344.113281 457.523438 348.34375 468.625 C 348.5625 469.199219 349.488281 468.960938 349.277344 468.367188 " fill-opacity="1" fill-rule="nonzero"/><path fill="#c44d2f" d="M 357.257812 468.839844 C 354.929688 457.191406 352.445312 445.570312 350.027344 433.9375 C 349.898438 433.3125 348.945312 433.574219 349.074219 434.199219 C 351.476562 445.835938 353.8125 457.488281 356.300781 469.105469 C 356.433594 469.730469 357.382812 469.464844 357.257812 468.839844 " fill-opacity="1" fill-rule="nonzero"/><path fill="#c44d2f" d="M 351.332031 469.898438 C 349.042969 460.464844 346.441406 451.097656 343.652344 441.796875 C 342.851562 439.117188 342.027344 436.445312 341.191406 433.78125 C 341.003906 433.183594 340.0625 433.4375 340.25 434.039062 C 343.148438 443.308594 345.839844 452.644531 348.304688 462.035156 C 349.015625 464.742188 349.699219 467.453125 350.386719 470.160156 C 350.542969 470.773438 351.484375 470.515625 351.332031 469.898438 " fill-opacity="1" fill-rule="nonzero"/><path fill="#c44d2f" d="M 354.152344 470.105469 C 352.675781 460.78125 350.566406 451.53125 348.035156 442.441406 C 347.308594 439.828125 346.535156 437.226562 345.726562 434.632812 C 345.539062 434.035156 344.597656 434.292969 344.785156 434.894531 C 347.582031 443.917969 349.914062 453.089844 351.746094 462.359375 C 352.269531 465.023438 352.738281 467.695312 353.203125 470.367188 C 353.3125 470.996094 354.253906 470.722656 354.152344 470.105469 " fill-opacity="1" fill-rule="nonzero"/><path fill="#6886dc" d="M 358.941406 461.941406 C 356.339844 463.875 353.015625 465.542969 349.769531 465.476562 C 348.855469 465.460938 347.199219 464.8125 346.472656 464.296875 C 346.199219 464.105469 347.449219 467.484375 347.878906 468.375 C 348.089844 468.820312 348.722656 470.121094 348.820312 470.328125 C 348.902344 470.507812 348.996094 470.71875 348.957031 470.925781 C 348.945312 470.984375 348.882812 471.105469 348.847656 471.148438 C 348.742188 471.273438 348.648438 471.328125 348.503906 471.402344 C 348.226562 471.542969 347.929688 471.613281 347.609375 471.671875 C 346.625 471.855469 345.644531 472.03125 344.660156 472.210938 C 342.976562 472.519531 340.984375 472.824219 340.203125 474.554688 C 339.894531 475.242188 339.96875 476.046875 340.40625 476.65625 C 340.847656 477.28125 341.546875 477.660156 342.269531 477.90625 C 343.082031 478.183594 343.957031 478.289062 344.8125 478.367188 C 345.746094 478.449219 346.683594 478.464844 347.621094 478.4375 C 349.542969 478.386719 351.460938 478.191406 353.375 478.039062 C 354.382812 477.957031 355.386719 477.875 356.394531 477.796875 C 357.300781 477.722656 358.210938 477.675781 359.105469 477.546875 C 359.886719 477.433594 360.691406 477.238281 361.371094 476.824219 C 362.046875 476.410156 362.511719 474.554688 361.894531 471.890625 C 360.582031 466.191406 359.042969 461.867188 358.941406 461.941406 " fill-opacity="1" fill-rule="nonzero"/><path fill="#f57c52" d="M 362.527344 306.367188 C 358.648438 300.625 359.980469 297.429688 359.6875 294.320312 C 359.390625 291.207031 357.6875 290.257812 349.539062 282.109375 C 347.253906 279.824219 344.46875 265.269531 358.542969 262.375 C 368.894531 260.246094 380.175781 263.367188 385.132812 268.960938 C 389.757812 274.1875 391.25 279.175781 395.453125 281.46875 C 399.652344 283.761719 411.21875 286.238281 417.195312 292.214844 C 423.171875 298.1875 425.738281 302.992188 425.738281 310.078125 C 425.738281 317.160156 426.386719 321.921875 429.554688 324.410156 C 432.71875 326.898438 441.277344 333.773438 438.734375 340.792969 C 436.191406 347.8125 431.785156 347.480469 428.515625 350.140625 C 425.242188 352.800781 426.585938 358.691406 420.390625 361.882812 C 414.191406 365.070312 408.820312 358.0625 404.953125 359.8125 C 401.085938 361.566406 389.605469 366.632812 385.601562 358.925781 C 381.601562 351.21875 384.640625 348 379.769531 345.414062 C 374.894531 342.828125 367.546875 339.949219 367.875 332.269531 C 368.207031 324.589844 373.1875 321.808594 370.316406 315.800781 C 367.441406 309.796875 366.40625 312.109375 362.527344 306.367188 " fill-opacity="1" fill-rule="nonzero"/><path fill="#22186f" d="M 361.007812 337.832031 C 356.460938 344.859375 351.746094 351.773438 347.160156 358.769531 C 341.054688 354.546875 335.863281 349.042969 331.984375 342.71875 C 331.691406 342.238281 330.933594 342.675781 331.230469 343.160156 C 335.261719 349.765625 340.652344 355.425781 347.027344 359.808594 C 347.332031 360.019531 347.820312 359.421875 347.871094 359.351562 C 352.664062 352.4375 357.191406 345.335938 361.753906 338.269531 C 362.054688 337.800781 361.308594 337.367188 361.007812 337.832031 " fill-opacity="1" fill-rule="nonzero"/><path fill="#6886dc" d="M 313.632812 471.910156 C 313.558594 470.730469 313.417969 469.550781 313.203125 468.390625 C 312.964844 467.085938 312.632812 465.804688 312.226562 464.550781 C 312.148438 464.308594 311.46875 464.273438 311.355469 464.328125 C 308.394531 465.683594 304.960938 465.964844 301.804688 465.179688 C 300.917969 464.960938 300.054688 464.660156 299.222656 464.273438 C 298.921875 464.128906 298.574219 464.367188 298.652344 464.710938 C 298.878906 465.691406 299.105469 466.671875 299.332031 467.652344 C 299.445312 468.144531 299.558594 468.632812 299.671875 469.121094 C 299.726562 469.351562 299.777344 469.578125 299.828125 469.8125 C 299.871094 470.007812 299.917969 470.238281 299.835938 470.433594 C 299.8125 470.488281 299.726562 470.601562 299.679688 470.636719 C 299.546875 470.734375 299.449219 470.769531 299.289062 470.808594 C 298.988281 470.886719 298.679688 470.890625 298.355469 470.878906 C 297.359375 470.847656 296.359375 470.804688 295.363281 470.765625 C 293.652344 470.703125 291.636719 470.566406 290.503906 472.117188 C 290.054688 472.738281 289.953125 473.554688 290.242188 474.261719 C 290.542969 474.980469 291.144531 475.515625 291.792969 475.917969 C 292.527344 476.375 293.359375 476.675781 294.175781 476.941406 C 295.070312 477.230469 295.984375 477.453125 296.90625 477.632812 C 298.792969 478.003906 300.703125 478.238281 302.609375 478.507812 C 303.609375 478.648438 308.457031 479.0625 310.644531 478.71875 C 312.929688 478.351562 313.34375 476.023438 313.5 475.238281 C 313.71875 474.140625 313.699219 473.019531 313.632812 471.910156 " fill-opacity="1" fill-rule="nonzero"/><path fill="#c8d6fc" d="M 303.542969 424.84375 L 281.941406 479.621094 C 281.757812 480.085938 281.78125 480.605469 282.011719 481.046875 C 282.28125 481.5625 282.722656 482.222656 283.347656 482.609375 C 283.984375 483 285.03125 483.113281 285.84375 483.132812 C 286.527344 483.152344 287.15625 482.765625 287.453125 482.148438 L 312.722656 429.421875 C 313.121094 428.585938 312.789062 427.578125 311.972656 427.144531 L 305.96875 423.949219 C 305.054688 423.464844 303.921875 423.878906 303.542969 424.84375 " fill-opacity="1" fill-rule="nonzero"/><g clip-path="url(#154c0a4f6f)"><path fill="#c8d6fc" d="M 339.152344 441.515625 L 330.6875 504.5 C 330.652344 504.75 330.695312 505 330.8125 505.226562 C 331.0625 505.703125 331.617188 506.523438 332.585938 506.941406 C 333.4375 507.304688 334.597656 507.324219 335.402344 507.277344 C 335.9375 507.246094 336.394531 506.867188 336.515625 506.34375 L 351.378906 444.0625 C 351.539062 443.394531 351.117188 442.730469 350.445312 442.589844 L 340.613281 440.492188 C 339.917969 440.339844 339.246094 440.8125 339.152344 441.515625 " fill-opacity="1" fill-rule="nonzero"/></g><path fill="#22186f" d="M 422.128906 429.972656 C 422.050781 429.972656 421.964844 429.964844 421.882812 429.941406 L 401.496094 424.433594 C 401.011719 424.304688 400.71875 423.824219 400.8125 423.335938 C 400.910156 422.847656 401.367188 422.519531 401.863281 422.585938 C 413.136719 424.046875 422.136719 428 422.511719 428.167969 C 422.964844 428.367188 423.1875 428.882812 423.023438 429.347656 C 422.882812 429.730469 422.519531 429.972656 422.128906 429.972656 " fill-opacity="1" fill-rule="nonzero"/><path fill="#22186f" d="M 424.164062 431.476562 C 420.78125 434.410156 408.296875 436.386719 392.488281 438.882812 L 391.960938 438.96875 C 382.074219 440.53125 371.953125 441.585938 365.554688 442.175781 C 365.5 442.179688 365.449219 442.183594 365.394531 442.183594 C 363.535156 442.253906 362.082031 440.605469 362.378906 438.769531 C 363.132812 434.144531 363.625 427.28125 366.9375 422 C 371.886719 414.101562 384.367188 412.558594 396.527344 411.179688 C 409.492188 409.710938 422.332031 410.601562 428.421875 413.597656 C 429.96875 414.359375 430.640625 415.898438 431.148438 417.089844 C 431.433594 417.753906 431.453125 418.496094 431.222656 419.183594 C 430.796875 420.445312 430.261719 421.882812 429.609375 423.351562 C 428.28125 426.347656 426.476562 429.472656 424.164062 431.476562 Z M 441.316406 378.367188 C 439.136719 370.796875 424.726562 367.316406 403.203125 367.316406 C 381.6875 367.316406 370.816406 370.054688 362.484375 378.136719 C 356.375 384.054688 347.058594 402.832031 341.695312 403.128906 C 336.324219 403.425781 318.421875 399.550781 312.636719 400.25 C 306.855469 400.949219 305.527344 409.394531 304.519531 413.074219 C 303.515625 416.753906 300.335938 423.820312 304.621094 426.660156 C 307.546875 428.601562 329.847656 439.03125 340.570312 442.023438 C 347.449219 443.945312 352.6875 444.921875 356.261719 444.804688 L 356.246094 444.816406 L 356.816406 444.773438 C 356.890625 444.769531 356.964844 444.765625 357.035156 444.761719 L 359.007812 444.621094 C 359.175781 444.609375 376.015625 443.402344 392.253906 440.832031 L 392.78125 440.753906 C 409.519531 438.105469 421.613281 436.195312 425.402344 432.902344 C 430.292969 428.660156 432.988281 420.273438 433.929688 416.828125 C 433.964844 416.695312 434.011719 416.566406 434.066406 416.441406 C 435.402344 413.34375 437.085938 409.25 437.980469 406.34375 C 439.601562 401.054688 443.496094 385.941406 441.316406 378.367188 " fill-opacity="1" fill-rule="nonzero"/><path fill="#22186f" d="M 359.648438 442.394531 L 356.476562 444.800781 L 359.007812 444.621094 C 359.175781 444.609375 359.648438 442.394531 359.648438 442.394531 " fill-opacity="1" fill-rule="nonzero"/><path fill="#c44d2f" d="M 395.625 351.929688 C 394.996094 348.6875 393.738281 345.578125 391.929688 342.816406 C 390.179688 340.144531 387.953125 337.992188 385.464844 336.011719 C 383.171875 334.183594 380.53125 332.222656 379.644531 329.285156 C 379.078125 327.394531 379.382812 325.410156 379.652344 323.496094 C 379.894531 321.753906 380.074219 320.039062 379.839844 318.289062 C 379.414062 315.132812 377.902344 312.320312 375.664062 310.078125 C 373.636719 308.042969 371.195312 306.417969 369.359375 304.191406 C 368.453125 303.101562 367.753906 301.847656 367.441406 300.457031 C 367.039062 298.648438 367.300781 296.773438 367.324219 294.941406 C 367.347656 293.289062 367.144531 291.675781 366.425781 290.175781 C 365.742188 288.753906 364.679688 287.527344 363.507812 286.480469 C 360.734375 283.988281 357.191406 282.472656 354.601562 279.765625 C 352.34375 277.40625 350.851562 273.167969 353.453125 270.480469 C 353.902344 270.019531 353.195312 269.308594 352.746094 269.769531 C 350.707031 271.875 350.753906 275.054688 351.894531 277.59375 C 353.253906 280.625 356.207031 282.546875 358.886719 284.308594 C 361.621094 286.105469 364.71875 288.140625 365.871094 291.375 C 367.082031 294.773438 365.546875 298.496094 366.871094 301.894531 C 367.886719 304.511719 370.035156 306.398438 372.113281 308.183594 C 374.527344 310.257812 376.894531 312.34375 378.089844 315.382812 C 378.761719 317.078125 379.0625 318.898438 378.980469 320.71875 C 378.890625 322.667969 378.410156 324.578125 378.351562 326.527344 C 378.25 329.792969 379.785156 332.359375 382.136719 334.507812 C 383.40625 335.664062 384.792969 336.679688 386.113281 337.773438 C 387.527344 338.945312 388.824219 340.246094 389.953125 341.695312 C 392.34375 344.761719 393.964844 348.375 394.707031 352.183594 C 394.828125 352.785156 395.742188 352.53125 395.625 351.929688 " fill-opacity="1" fill-rule="nonzero"/><path fill="#c44d2f" d="M 410.949219 351.351562 C 410.5625 347.996094 409.382812 344.765625 407.476562 341.964844 C 405.621094 339.226562 403.171875 337.226562 400.460938 335.375 C 397.734375 333.515625 394.914062 331.558594 393.78125 328.304688 C 392.605469 324.925781 393.058594 321.253906 392.644531 317.753906 C 392.25 314.402344 390.945312 311.265625 388.753906 308.679688 C 386.742188 306.304688 384.066406 304.792969 381.394531 303.277344 C 378.878906 301.847656 376.183594 300.3125 374.679688 297.742188 C 372.847656 294.613281 373.476562 290.792969 372.367188 287.441406 C 370.210938 280.898438 362.339844 279.867188 358.238281 275.039062 C 357.835938 274.566406 357.15625 275.253906 357.554688 275.722656 C 359.390625 277.882812 361.890625 279.28125 364.300781 280.695312 C 366.6875 282.089844 369.230469 283.585938 370.671875 286.03125 C 372.46875 289.074219 371.917969 292.785156 372.90625 296.070312 C 373.761719 298.9375 375.847656 300.96875 378.292969 302.566406 C 380.800781 304.207031 383.601562 305.417969 385.945312 307.308594 C 388.542969 309.40625 390.4375 312.335938 391.265625 315.574219 C 392.148438 319 391.722656 322.585938 392.246094 326.0625 C 392.496094 327.714844 392.992188 329.34375 393.890625 330.761719 C 394.714844 332.066406 395.824219 333.152344 397.027344 334.109375 C 399.886719 336.375 403.09375 338.074219 405.472656 340.914062 C 407.941406 343.863281 409.523438 347.535156 409.988281 351.351562 C 410.0625 351.960938 411.023438 351.96875 410.949219 351.351562 " fill-opacity="1" fill-rule="nonzero"/><path fill="#c44d2f" d="M 424.464844 336.550781 C 419.796875 331.699219 412.523438 330.757812 407.859375 325.878906 C 405.410156 323.316406 403.84375 320.097656 403.183594 316.628906 C 402.550781 313.269531 402.503906 309.65625 400.730469 306.632812 C 397.832031 301.683594 391.644531 300.597656 387.195312 297.578125 C 386.070312 296.816406 385.03125 295.894531 384.253906 294.773438 C 383.273438 293.363281 382.765625 291.722656 382.378906 290.066406 C 381.628906 286.863281 381.226562 283.511719 379.019531 280.910156 C 376.621094 278.089844 373.011719 276.777344 369.777344 275.203125 C 366.597656 273.660156 363.160156 271.476562 362.285156 267.808594 C 362.136719 267.199219 361.199219 267.457031 361.34375 268.066406 C 362.964844 274.84375 371.046875 276.117188 375.992188 279.53125 C 377.398438 280.503906 378.621094 281.722656 379.425781 283.246094 C 380.238281 284.78125 380.617188 286.503906 380.972656 288.195312 C 381.628906 291.308594 382.308594 294.421875 384.640625 296.753906 C 388.582031 300.703125 394.722656 301.367188 398.578125 305.40625 C 401.058594 308 401.433594 311.601562 401.929688 314.988281 C 402.441406 318.445312 403.421875 321.683594 405.496094 324.542969 C 407.71875 327.617188 410.734375 329.65625 414.089844 331.316406 C 417.488281 332.996094 421.109375 334.449219 423.792969 337.21875 C 424.222656 337.660156 424.894531 336.988281 424.464844 336.550781 " fill-opacity="1" fill-rule="nonzero"/><path fill="#c44d2f" d="M 419.910156 312.796875 C 418.488281 311.214844 416.324219 311.125 414.359375 310.816406 C 413.226562 310.640625 412.136719 310.359375 411.175781 309.710938 C 410.242188 309.078125 409.496094 308.199219 408.90625 307.253906 C 407.554688 305.09375 407.015625 302.597656 406.289062 300.191406 C 405.585938 297.871094 404.644531 295.652344 402.957031 293.871094 C 401.417969 292.253906 399.4375 291.082031 397.277344 290.503906 C 395.058594 289.914062 392.699219 289.878906 390.539062 289.0625 C 385.851562 287.296875 386.070312 281.617188 383.617188 277.984375 C 380.804688 273.828125 375.871094 271.835938 371.363281 270.105469 C 370.773438 269.878906 370.523438 270.824219 371.101562 271.046875 C 375.207031 272.621094 379.742188 274.414062 382.460938 278.050781 C 385.003906 281.449219 384.820312 286.59375 388.539062 289.136719 C 390.378906 290.394531 392.675781 290.648438 394.820312 291.007812 C 397.191406 291.402344 399.414062 292.085938 401.292969 293.65625 C 403.246094 295.289062 404.386719 297.453125 405.15625 299.847656 C 405.902344 302.179688 406.394531 304.601562 407.515625 306.796875 C 408.578125 308.867188 410.210938 310.714844 412.492188 311.421875 C 414.671875 312.097656 417.550781 311.664062 419.21875 313.488281 C 419.644531 313.953125 420.332031 313.261719 419.910156 312.796875 " fill-opacity="1" fill-rule="nonzero"/><path fill="#f57c52" d="M 432.042969 301.476562 C 431.296875 297.898438 428.84375 294.980469 425.535156 293.472656 C 423.78125 292.675781 421.902344 292.179688 420.167969 291.34375 C 418.253906 290.417969 416.832031 288.96875 415.414062 287.425781 C 412.820312 284.601562 409.847656 282.386719 406.121094 281.300781 C 402.152344 280.140625 397.730469 280.984375 393.910156 279.304688 C 390.816406 277.941406 388.75 275.152344 387.015625 272.308594 C 388.210938 273.382812 389.449219 274.410156 390.839844 275.226562 C 394.046875 277.113281 397.652344 277.140625 401.265625 277.253906 C 404.773438 277.363281 408.933594 277.824219 411.160156 280.910156 C 411.527344 281.417969 412.382812 280.933594 412.015625 280.410156 C 407.597656 274.074219 398.71875 277.6875 392.660156 275.019531 C 389.460938 273.613281 387.109375 270.894531 384.507812 268.664062 C 381.84375 266.378906 378.789062 264.621094 375.460938 263.5 C 371.652344 262.210938 367.5625 261.773438 363.566406 262.25 C 362.9375 262.324219 362.925781 263.324219 363.566406 263.25 C 370.550781 262.425781 377.8125 264.460938 383.261719 268.9375 C 383.835938 269.410156 384.394531 269.90625 384.949219 270.414062 C 384.898438 270.535156 384.902344 270.675781 384.984375 270.820312 C 386.742188 273.859375 388.617188 277.015625 391.527344 279.09375 C 394.824219 281.453125 398.792969 281.242188 402.636719 281.652344 C 406.582031 282.074219 410.3125 283.765625 413.164062 286.535156 C 414.578125 287.902344 415.78125 289.484375 417.316406 290.726562 C 418.777344 291.910156 420.476562 292.617188 422.230469 293.257812 C 424.285156 294.011719 426.363281 294.738281 428 296.25 C 429.589844 297.71875 430.65625 299.628906 431.109375 301.734375 C 431.242188 302.34375 432.167969 302.085938 432.042969 301.476562 " fill-opacity="1" fill-rule="nonzero"/><path fill="#f57c52" d="M 367.417969 338.480469 C 364.648438 334.859375 361.882812 330.953125 362.855469 326.152344 C 363.644531 322.265625 366.066406 318.523438 365.5625 314.4375 C 365.324219 312.484375 364.320312 310.875 363.132812 309.351562 C 361.917969 307.789062 360.46875 306.261719 359.941406 304.296875 C 358.863281 300.257812 361.660156 296.28125 361 292.195312 C 360.613281 289.820312 358.96875 288.066406 357.234375 286.527344 C 355 284.546875 352.738281 282.597656 350.492188 280.628906 C 350.015625 280.214844 349.316406 280.90625 349.796875 281.328125 C 351.820312 283.109375 353.839844 284.890625 355.863281 286.671875 C 357.472656 288.085938 359.265625 289.582031 359.847656 291.734375 C 360.402344 293.792969 359.820312 295.949219 359.351562 297.964844 C 358.902344 299.878906 358.449219 301.859375 358.757812 303.832031 C 359.394531 307.894531 363.625 310.066406 364.441406 314.019531 C 364.851562 316.019531 364.3125 318.0625 363.6875 319.957031 C 363.027344 321.953125 362.207031 323.90625 361.804688 325.976562 C 361.351562 328.316406 361.601562 330.585938 362.539062 332.773438 C 363.53125 335.09375 365.085938 337.113281 366.636719 339.082031 C 366.984375 339.523438 367.761719 338.929688 367.417969 338.480469 " fill-opacity="1" fill-rule="nonzero"/><g clip-path="url(#c5ef7abf8e)"><path fill="#f57c52" d="M 438.171875 322.277344 C 435.070312 320.105469 431.25 318.851562 428.945312 315.6875 C 426.769531 312.703125 426.035156 308.972656 424.90625 305.527344 C 424.351562 303.832031 423.707031 302.148438 422.789062 300.613281 C 421.738281 298.855469 420.355469 297.3125 418.859375 295.925781 C 415.40625 292.738281 411.351562 290.25 406.980469 288.53125 C 406.382812 288.296875 406.128906 289.257812 406.71875 289.492188 C 410.617188 291.027344 414.25 293.226562 417.410156 295.980469 C 418.910156 297.296875 420.335938 298.734375 421.449219 300.402344 C 422.460938 301.90625 423.164062 303.570312 423.746094 305.277344 C 424.867188 308.585938 425.5625 312.109375 427.363281 315.144531 C 429.21875 318.277344 432.203125 319.9375 435.277344 321.675781 C 437.070312 322.6875 438.855469 323.792969 440.160156 325.417969 C 441.632812 327.246094 442.410156 329.546875 442.429688 331.882812 C 442.4375 332.507812 443.402344 332.507812 443.398438 331.882812 C 443.382812 327.941406 441.363281 324.511719 438.171875 322.277344 " fill-opacity="1" fill-rule="nonzero"/></g></svg>